<svg width="227" height="54" viewBox="0 0 227 54" fill="none" xmlns="http://www.w3.org/2000/svg"><path fill-rule="evenodd" clip-rule="evenodd" d="m47.25 8.28.28 1.72c.23 1.6.33 3.2.31 4.82 0 3.57-.43 7.12-1.28 10.59a39.67 39.67 0 0 1-5.9 13.14 40.96 40.96 0 0 1-14.5 12.7l-.81.44-.83-.44a40.98 40.98 0 0 1-14.49-12.7 39.68 39.68 0 0 1-5.9-13.14 44.54 44.54 0 0 1-1.28-10.59c-.02-1.61.09-3.22.3-4.82l.3-1.72a1.08 1.08 0 1 0-2.13-.35l-.29 1.72a34.21 34.21 0 0 0-.34 5.17c0 3.75.45 7.47 1.35 11.1A41.83 41.83 0 0 0 8.27 39.8 43.08 43.08 0 0 0 23.5 53.15l1.33.72a1.07 1.07 0 0 0 1.02 0l1.34-.72c7-3.77 11.87-8.53 15.24-13.36 2.9-4.2 5.01-8.9 6.23-13.86.89-3.63 1.34-7.36 1.34-11.1.02-1.74-.1-3.47-.34-5.18l-.28-1.72a1.08 1.08 0 1 0-2.13.35h-.01Z" fill="#7E90A5"/><path fill-rule="evenodd" clip-rule="evenodd" d="m9.33 7.1 16.02-4.88 16.37 5a1.08 1.08 0 0 0 .63-2.08L25.66.04c-.2-.05-.42-.05-.63 0l-16.33 5a1.08 1.08 0 1 0 .63 2.06Z" fill="#7E90A5"/><path fill-rule="evenodd" clip-rule="evenodd" d="m1.42 8.6 22.96 44.8a1.08 1.08 0 0 0 1.91.02l14-26.18.02-.04 8.97-18.64a1.08 1.08 0 0 0-1.95-.94L38.4 26.24 25.38 50.59 3.34 7.61a1.08 1.08 0 1 0-1.92.98Z" fill="#7E90A5"/><path fill-rule="evenodd" clip-rule="evenodd" d="M12.41 28.55h25.54a1.08 1.08 0 0 0 0-2.15H12.4a1.08 1.08 0 0 0 0 2.15Zm71.22-9.3h-16.6a1.09 1.09 0 0 0-1.1 1.09v13.33a1.1 1.1 0 0 0 1.1 1.09h16.6V37h-16.6a3.32 3.32 0 0 1-3.34-3.33V20.35a3.32 3.32 0 0 1 3.33-3.33h16.61v2.24Zm31.19-2.24v2.25h-16v6.6h12.86v2.28H98.82v6.61h16v2.26H96.56v-20h18.26Z" fill="#7E90A5"/><path d="M147.76 20.37v5.86a3.31 3.31 0 0 1-3.33 3.33h-3.06l6.28 7.44h-2.97l-6.25-7.44h-7.34c-.37-.02-.73-.06-1.09-.11V37h-2.25V17.03h16.66a3.32 3.32 0 0 1 3.33 3.34h.02Zm-16.66 6.91h13.33a1.04 1.04 0 0 0 1.05-1.05v-5.86a1.06 1.06 0 0 0-.3-.77.99.99 0 0 0-.75-.32h-13.34a1.09 1.09 0 0 0-1.08 1.09v5.86a1 1 0 0 0 .32.75 1.07 1.07 0 0 0 .76.3Z" fill="#7E90A5"/><path fill-rule="evenodd" clip-rule="evenodd" d="M159.7 17h20v2.26h-8.85v17.75h-2.26V19.26h-8.89v-2.25Zm32.11 20V17h2.26v20h-2.26Zm32.27-20h2.9l-8.37 10L227 37h-2.92l-7.44-8.86h-6.44V37h-2.28V17h2.28v8.86h6.44l7.44-8.85Z" fill="#7E90A5"/></svg>
