<svg width="22" height="14" viewBox="0 0 22 14" fill="none" xmlns="http://www.w3.org/2000/svg">
<path d="M21.5891 1.27435C21.4834 1.01574 21.2811 0.810232 21.0266 0.702834C20.9014 0.648602 20.7669 0.619836 20.6308 0.618164H15.4224C15.1461 0.618164 14.8812 0.729671 14.6858 0.928154C14.4905 1.12664 14.3807 1.39584 14.3807 1.67654C14.3807 1.95723 14.4905 2.22643 14.6858 2.42492C14.8812 2.6234 15.1461 2.73491 15.4224 2.73491H18.1203L12.2974 8.65121L8.87031 5.15858C8.77348 5.05938 8.65827 4.98064 8.53133 4.92691C8.40439 4.87318 8.26824 4.84551 8.13073 4.84551C7.99322 4.84551 7.85706 4.87318 7.73013 4.92691C7.60319 4.98064 7.48798 5.05938 7.39114 5.15858L1.14113 11.5088C1.0435 11.6072 0.966003 11.7243 0.913119 11.8532C0.860235 11.9822 0.833008 12.1205 0.833008 12.2603C0.833008 12.4 0.860235 12.5383 0.913119 12.6673C0.966003 12.7963 1.0435 12.9133 1.14113 13.0117C1.23797 13.1109 1.35318 13.1896 1.48012 13.2434C1.60705 13.2971 1.7432 13.3248 1.88072 13.3248C2.01823 13.3248 2.15438 13.2971 2.28132 13.2434C2.40825 13.1896 2.52346 13.1109 2.6203 13.0117L8.13073 7.40233L11.5578 10.895C11.6547 10.9942 11.7699 11.0729 11.8968 11.1266C12.0237 11.1804 12.1599 11.208 12.2974 11.208C12.4349 11.208 12.5711 11.1804 12.698 11.1266C12.8249 11.0729 12.9402 10.9942 13.037 10.895L19.5891 4.22721V6.96839C19.5891 7.24909 19.6988 7.51829 19.8942 7.71678C20.0895 7.91526 20.3545 8.02677 20.6308 8.02677C20.907 8.02677 21.172 7.91526 21.3673 7.71678C21.5627 7.51829 21.6724 7.24909 21.6724 6.96839V1.67654C21.6708 1.53823 21.6425 1.40159 21.5891 1.27435Z" fill="#44E5AD"/>
</svg>
