<svg width="51" height="51" viewBox="0 0 51 51" fill="none" xmlns="http://www.w3.org/2000/svg">
<g clip-path="url(#clip0_364_160)">
<path fill-rule="evenodd" clip-rule="evenodd" d="M5.29395 6.21899C5.29395 5.59739 5.04702 5.00125 4.60748 4.56171C4.16794 4.12217 3.5718 3.87524 2.9502 3.87524C2.32859 3.87524 1.73245 4.12217 1.29291 4.56171C0.853375 5.00125 0.606445 5.59739 0.606445 6.21899L0.606445 45.2815C0.606445 46.5752 1.65645 47.6252 2.9502 47.6252H48.2627C48.8843 47.6252 49.4804 47.3783 49.92 46.9388C50.3595 46.4992 50.6064 45.9031 50.6064 45.2815C50.6064 44.6599 50.3595 44.0638 49.92 43.6242C49.4804 43.1847 48.8843 42.9377 48.2627 42.9377H5.29395V6.21899ZM49.9189 14.1252C50.3329 13.6809 50.5583 13.0933 50.5476 12.4861C50.5369 11.8789 50.2909 11.2996 49.8615 10.8702C49.4321 10.4408 48.8528 10.1948 48.2456 10.1841C47.6384 10.1734 47.0507 10.3987 46.6064 10.8127L31.8564 25.5627L24.1377 17.844C23.6982 17.4051 23.1025 17.1586 22.4814 17.1586C21.8603 17.1586 21.2646 17.4051 20.8252 17.844L10.6689 28.0002C10.2549 28.4445 10.0296 29.0322 10.0403 29.6394C10.051 30.2466 10.297 30.8259 10.7264 31.2553C11.1558 31.6847 11.7351 31.9307 12.3423 31.9414C12.9495 31.9521 13.5371 31.7267 13.9814 31.3127L22.4814 22.8127L30.2002 30.5315C30.6397 30.9704 31.2353 31.2169 31.8564 31.2169C32.4775 31.2169 33.0732 30.9704 33.5127 30.5315L49.9189 14.1252Z" fill="white"/>
</g>
<defs>
<clipPath id="clip0_364_160">
<rect width="50" height="50" fill="white" transform="translate(0.606445 0.750244)"/>
</clipPath>
</defs>
</svg>
