<svg width="304" height="54" viewBox="0 0 304 54" fill="none" xmlns="http://www.w3.org/2000/svg"><path d="M46.16 32.28c-.94.58-2.04.69-2.88.21-1.04-.62-1.67-2.04-1.67-3.97V22.6c0-2.82-1.1-4.86-2.97-5.38-3.19-.95-5.59 2.98-6.48 4.44l-5.64 9.06V19.57c-.05-2.56-.88-4.08-2.45-4.55-1.04-.32-2.61-.16-4.13 2.14L7.37 37.36A22.36 22.36 0 0 1 4.8 27c0-12.2 9.77-22.08 21.72-22.08 11.96 0 21.72 9.89 21.72 22.08v.1c.1 2.36-.62 4.24-2.08 5.18ZM53.05 27v-.1C53 12.09 41.09 0 26.52 0 11.9 0 0 12.09 0 27c0 14.86 11.9 27 26.52 27 6.74 0 13.1-2.56 18.02-7.22.99-.94 1.04-2.46.1-3.45a2.4 2.4 0 0 0-3.4-.16l-.04.05a21.43 21.43 0 0 1-30.91-1.41L21.62 23.6v8.42c0 4.03 1.56 5.34 2.87 5.7 1.3.37 3.29.11 5.43-3.29l6.21-10.1c.2-.31.37-.63.57-.84v5.13c0 3.77 1.52 6.8 4.13 8.27a7.57 7.57 0 0 0 7.78-.31c3.03-2 4.65-5.45 4.44-9.58Zm27.64-9.2c.63.36 1.2 1.25 1.2 2.03 0 1.26-1.04 2.3-2.24 2.3-.32 0-.58-.1-.84-.15a8.57 8.57 0 0 0-5.06-1.73c-4.44 0-7.47 3.61-7.47 8.11s3.08 8.06 7.47 8.06a8.1 8.1 0 0 0 5.63-2.3c.37-.27.84-.42 1.3-.42 1.21 0 2.15.94 2.15 2.14 0 .79-.47 1.47-1.04 1.83a12.5 12.5 0 0 1-8 3.04c-6.78 0-12.31-5.6-12.31-12.5C61.48 21.3 67 15.7 73.8 15.7c2.5-.05 4.9.73 6.89 2.1Zm12.43 5.22c4.64 0 8.5 3.93 8.5 8.8 0 4.8-3.91 8.94-8.5 8.94a9 9 0 0 1-8.88-8.95c0-4.86 4.02-8.79 8.88-8.79Zm-.06 13.4c2.04 0 3.76-1.94 3.76-4.55 0-2.62-1.72-4.3-3.76-4.3-2.19 0-4.02 1.63-4.02 4.3 0 2.56 1.83 4.55 4.02 4.55Zm11.49 1.62V25.7a2.41 2.41 0 0 1 2.4-2.46c1.3 0 2.4 1.1 2.4 2.46v12.35c0 1.36-1.1 2.46-2.4 2.46-1.3 0-2.4-1.15-2.4-2.46Zm-.36-19.46a2.81 2.81 0 0 1 2.76-2.88 2.86 2.86 0 0 1 0 5.7 2.83 2.83 0 0 1-2.77-2.82Zm14.35 12.76v6.7c0 1.36-1.1 2.46-2.4 2.46-1.3 0-2.4-1.1-2.4-2.46V25.12c0-1.05.84-1.89 1.88-1.89s1.83.9 1.83 1.89a6.96 6.96 0 0 1 5.27-2.1c4.8 0 6.94 3.61 6.94 7.75v7.27c0 1.36-1.1 2.46-2.4 2.46-1.3 0-2.4-1.1-2.4-2.46v-6.7c0-2.09-.26-3.87-3.29-3.87-2.14 0-3.03 1.78-3.03 3.87Zm26.68 2.57c-.57 0-.94-.26-1.25-.63l-5.59-6.07v10.83c0 1.36-1.1 2.46-2.4 2.46-1.3 0-2.4-1.1-2.4-2.46V16.6c.16-.37.52-.63.89-.63.41 0 .78.37 1.04.63l8.93 10.04c.26.32.57.47.78.47.16 0 .53-.15.79-.47l8.93-10.04c.26-.26.57-.63 1.04-.63.42 0 .78.26.89.63v21.45a2.41 2.41 0 0 1-2.4 2.46c-1.31 0-2.4-1.1-2.4-2.46V27.21l-5.6 6.07c-.41.37-.78.63-1.25.63Zm23.08 2.5c2.14 0 3.97-1.93 3.97-4.54 0-2.62-1.88-4.35-3.97-4.35-2.09 0-3.81 1.78-3.81 4.35 0 2.5 1.67 4.55 3.81 4.55Zm5.12 2.2-.1-.57c-.95 1.83-3.92 2.67-5.8 2.67-4.5 0-7.83-4.08-7.83-8.95 0-4.81 3.39-8.79 8.09-8.79.78 0 3.5.21 5.59 2.67l.1-.58c0-1.04.78-1.88 1.83-1.88a1.9 1.9 0 0 1 1.88 1.88v13.5c0 1.05-.84 1.89-1.88 1.89a1.8 1.8 0 0 1-1.88-1.83Zm16.97-11.14h-.52c-3.03.16-3.6 1.88-3.6 3.87v6.7c0 1.36-1.1 2.46-2.41 2.46-1.3 0-2.4-1.1-2.4-2.46V25.12c0-1.05.83-1.89 1.88-1.89 1.04 0 1.83.9 1.83 1.89 1.77-1.68 3.23-2.04 4.7-2.1h.47c1.14 0 2.19 1 2.19 2.25a2.2 2.2 0 0 1-2.14 2.2Zm18.53 9.42c.21.37.37.73.37 1.15a2.5 2.5 0 0 1-2.4 2.4c-.84 0-1.57-.62-2.14-1.35l-5.54-6.44V38c0 1.36-1.1 2.46-2.4 2.46-1.3 0-2.4-1.1-2.4-2.46V18.37a2.41 2.41 0 0 1 2.4-2.46c1.36 0 2.4 1.1 2.4 2.46V30.6l5.53-6.12c.58-.63 1.26-1.31 2.1-1.31 1.2 0 2.3 1.1 2.3 2.35 0 .37-.11.79-.32 1.1l-4.39 4.82 4.5 5.44Zm9.4-9.37c-1.3 0-3.45.68-3.45 2.72h6.95c-.05-2.04-2.25-2.72-3.5-2.72Zm6.27 5.81h-9.72c0 2.88 2.77 3.35 3.97 3.35.89 0 2.14-.16 3.13-.63.32-.2.79-.36 1.26-.36 1.04 0 1.93.89 1.93 1.98 0 .74-.47 1.36-1.04 1.73-1.47 1.1-3.4 1.36-5.22 1.36-4.86 0-8.88-2.61-8.88-8.74 0-4.81 2.45-9 8.2-9 4.64 0 8.14 3.04 8.25 8.43 0 1-.84 1.88-1.88 1.88Zm13.36 7.38h-1.3c-3.66 0-5.8-1.62-5.8-7.33v-5.9h-1.25a2.23 2.23 0 0 1-2.14-2.2 2.25 2.25 0 0 1 2.14-2.26h1.25v-4.55a2.41 2.41 0 0 1 2.4-2.46c1.3 0 2.4 1.1 2.4 2.46v4.55h1.99c1.15 0 2.14 1 2.14 2.25 0 1.15-1.04 2.2-2.14 2.2h-1.98v4.97c0 3.3.15 3.98 1.61 3.98h.68c1.15 0 2.14.94 2.14 2.14 0 1.16-.99 2.15-2.14 2.15Zm23.24-22.92c.62.37 1.2 1.26 1.2 2.04 0 1.26-1.05 2.3-2.25 2.3-.31 0-.57-.1-.83-.15a8.57 8.57 0 0 0-5.07-1.73c-4.44 0-7.46 3.61-7.46 8.11s3.08 8.06 7.46 8.06a8.1 8.1 0 0 0 5.64-2.3c.37-.27.84-.42 1.3-.42 1.2 0 2.15.94 2.15 2.14 0 .79-.47 1.47-1.05 1.83a12.5 12.5 0 0 1-7.99 3.04c-6.78 0-12.32-5.6-12.32-12.5 0-6.91 5.54-12.51 12.32-12.51 2.51-.05 4.96.73 6.9 2.1Zm12.16 18.63c2.14 0 3.97-1.94 3.97-4.55 0-2.62-1.88-4.35-3.97-4.35-2.14 0-3.81 1.78-3.81 4.35 0 2.5 1.72 4.55 3.81 4.55Zm5.12 2.2-.1-.58c-.95 1.83-3.92 2.67-5.8 2.67-4.5 0-7.83-4.08-7.83-8.95 0-4.81 3.39-8.79 8.09-8.79.78 0 3.5.21 5.59 2.67l.1-.58c0-1.04.78-1.88 1.83-1.88a1.9 1.9 0 0 1 1.88 1.88v13.5c0 1.05-.84 1.89-1.88 1.89a1.8 1.8 0 0 1-1.88-1.83Zm16.86-2.2c2.14 0 3.81-2.04 3.81-4.55 0-2.62-1.72-4.35-3.8-4.35-2.15 0-3.97 1.73-3.97 4.35 0 2.61 1.82 4.55 3.96 4.55Zm-3.96 2.88v6.12c0 1.36-1.1 2.46-2.4 2.46-1.31 0-2.4-1.1-2.4-2.46v-20.3c0-1.05.83-1.89 1.87-1.89 1.05 0 1.83.9 1.83 2.1a7.71 7.71 0 0 1 5.64-2.3c4.64 0 8.09 3.92 8.09 8.78 0 4.82-3.29 8.95-7.83 8.95-1.41-.05-3.5-.47-4.8-1.46Z" fill="#7E90A5"/></svg>
