<svg width="238" height="51" viewBox="0 0 238 51" fill="none" xmlns="http://www.w3.org/2000/svg"><path d="M78.69 20.46c-.73-2.88-2.6-4.98-6.23-4.98-5.37 0-7.6 4.72-7.6 9.52s2.23 9.52 7.6 9.52c3.9 0 6.02-2.9 6.38-6.54h4.29c-.37 6-4.6 10.13-10.64 10.13-7.5 0-12-5.95-12-13.11 0-7.16 4.47-13.1 11.97-13.1 5.63.02 10.1 3.13 10.61 8.53l-4.38.03ZM85.7 28.43c0-5.53 3.32-9.53 9.13-9.53 5.81 0 9.13 4 9.13 9.53 0 5.52-3.32 9.57-9.13 9.57-5.81 0-9.14-4-9.14-9.57Zm14.3 0c0-3.12-1.59-6.39-5.14-6.39-3.56 0-5.14 3.27-5.14 6.39 0 3.11 1.58 6.4 5.14 6.4 3.55 0 5.13-3.24 5.13-6.4ZM107.42 12.5h4v3.78h-4v-3.79Zm0 6.9h4v18.1h-4V19.4ZM115.77 19.4h3.8v2.67l.07.07a6.47 6.47 0 0 1 5.63-3.21c3.92 0 6.41 2.1 6.41 6.17v12.43h-4V26.14c-.07-2.83-1.19-4.05-3.53-4.05-2.67 0-4.38 2.1-4.38 4.78v10.69h-4V19.39ZM158.25 37.5h-2.8l-.67-2.92c-2.34 2.67-4.5 3.53-7.53 3.53-7.5 0-11.99-5.97-11.99-13.11s4.5-13.1 12-13.1c5.44 0 10.03 2.9 10.7 8.53h-4.27c-.42-3.3-3.3-4.98-6.44-4.98-5.37 0-7.6 4.72-7.6 9.52s2.23 9.53 7.6 9.53c4.5.08 6.93-2.62 7-6.88h-6.63V24.3h10.63v13.2ZM165.57 29.49c0 2.83 1.54 5.37 4.88 5.37 2.31 0 3.72-1.01 4.42-3h3.78c-.88 3.94-4.23 6.17-8.2 6.17-5.68 0-8.87-3.97-8.87-9.53 0-5.16 3.37-9.55 8.77-9.55 5.7 0 9.21 5.14 8.54 10.6h-13.31v-.06Zm9.32-2.62c-.13-2.52-1.87-4.8-4.54-4.8-2.78 0-4.67 2.1-4.78 4.8h9.32ZM194.17 25.47c-.3-2.2-1.92-3.4-4.12-3.4-2.08 0-4.99 1.09-4.99 6.59 0 3 1.33 6.2 4.8 6.2 2.31 0 3.92-1.53 4.31-4.13h4c-.73 4.7-3.63 7.3-8.3 7.3-5.69 0-8.8-4.03-8.8-9.37 0-5.48 2.98-9.73 8.93-9.73 4.2 0 7.78 2.1 8.17 6.54h-4ZM201.54 12.5h4V26.7l7.22-7.32h4.9l-6.93 6.65 7.6 11.47h-4.87l-5.56-8.8-2.38 2.31v6.49h-4V12.49h.02ZM219.4 28.43c0-5.53 3.32-9.53 9.13-9.53 5.82 0 9.14 4 9.14 9.53 0 5.52-3.32 9.57-9.14 9.57-5.81 0-9.13-4-9.13-9.57Zm14.3 0c0-3.12-1.58-6.39-5.14-6.39-3.56 0-5.14 3.27-5.14 6.39 0 3.11 1.58 6.4 5.14 6.4 3.56 0 5.14-3.24 5.14-6.4Z" fill="#7E90A5"/><path opacity=".2" d="M50.87 24.88a24.97 24.97 0 1 1-49.94.23 24.97 24.97 0 0 1 49.94-.23Z" fill="#3A4457"/><path d="M38.56 16.08c-1.82-.53-3.7-1.27-5.6-2.02-.11-.47-.52-1.07-1.38-1.8-1.25-1.07-3.58-1.05-5.6-.56-2.23-.53-4.42-.7-6.53-.2-17.26 4.75-7.47 16.36-13.81 28.02.9 1.91 10.62 13.06 24.69 10.07 0 0-4.82-11.56 6.04-17.1 8.82-4.52 15.18-12.87 2.2-16.41Z" fill="#7E90A5"/><path d="M40.7 23.67a1.05 1.05 0 1 1-2.1.02 1.05 1.05 0 0 1 2.1-.02Z" fill="#fff"/><path d="M26 11.68c1.25.1 5.81 1.56 6.99 2.36-.98-2.83-4.29-3.2-6.99-2.36Z" fill="#4C5251"/><path d="M27.2 18.86a4.83 4.83 0 1 1-9.66 0 4.83 4.83 0 0 1 9.66 0Z" fill="#fff"/><path d="M25.77 18.9a3.4 3.4 0 1 1-6.81 0 3.4 3.4 0 0 1 6.8 0Z" fill="#4C5251"/><path d="M44.6 25.8c-3.9 2.76-8.35 4.85-14.67 4.85-2.95 0-3.56-3.13-5.5-1.6-.99.8-4.55 2.56-7.37 2.43-2.81-.14-7.4-1.78-8.66-7.81-.51 6.03-.77 10.45-3.02 15.53 4.5 7.2 15.22 12.76 24.97 10.37-1.06-7.3 5.34-14.46 8.94-18.11 1.35-1.4 3.95-3.66 5.32-5.66Z" fill="#7E90A5"/><path d="M44.45 25.98a17.32 17.32 0 0 1-4.13 2.66c-1.48.7-3.03 1.27-4.63 1.68-1.6.41-3.27.73-4.95.57-1.69-.16-3.4-.73-4.52-2l.06-.06a8.84 8.84 0 0 0 4.52 1.26 21.58 21.58 0 0 0 9.37-1.82 17 17 0 0 0 4.24-2.35l.04.06Z" fill="#4C5251"/></svg>
