<svg width="51" height="51" viewBox="0 0 51 51" fill="none" xmlns="http://www.w3.org/2000/svg">
<path d="M3.14648 15.594C3.14648 12.5752 5.59648 10.1252 8.61523 10.1252H41.4277C44.4465 10.1252 46.8965 12.5752 46.8965 15.594V35.9065C46.8965 37.3569 46.3203 38.7479 45.2947 39.7735C44.2691 40.7991 42.8781 41.3752 41.4277 41.3752H8.61523C7.16483 41.3752 5.77383 40.7991 4.74824 39.7735C3.72265 38.7479 3.14648 37.3569 3.14648 35.9065V15.594ZM16.4621 24.8565C17.019 24.8565 17.5704 24.7468 18.0849 24.5337C18.5994 24.3206 19.0669 24.0082 19.4607 23.6144C19.8545 23.2207 20.1668 22.7532 20.3799 22.2387C20.593 21.7242 20.7027 21.1728 20.7027 20.6159C20.7027 20.059 20.593 19.5075 20.3799 18.9931C20.1668 18.4786 19.8545 18.0111 19.4607 17.6173C19.0669 17.2235 18.5994 16.9112 18.0849 16.698C17.5704 16.4849 17.019 16.3752 16.4621 16.3752C15.3374 16.3752 14.2588 16.822 13.4635 17.6173C12.6683 18.4126 12.2215 19.4912 12.2215 20.6159C12.2215 21.7406 12.6683 22.8192 13.4635 23.6144C14.2588 24.4097 15.3374 24.8565 16.4621 24.8565ZM12.0777 26.9752C11.3666 26.9752 10.6846 27.2577 10.1818 27.7606C9.67897 28.2634 9.39648 28.9454 9.39648 29.6565C9.39659 30.8203 9.7857 31.9507 10.502 32.8679C11.2182 33.7852 12.2206 34.4368 13.3496 34.719L13.5152 34.7627C15.4527 35.2471 17.4746 35.2471 19.409 34.7627L19.5777 34.7221C20.7068 34.4399 21.7091 33.7883 22.4254 32.8711C23.1416 31.9538 23.5308 30.8234 23.5309 29.6596C23.5313 29.3073 23.4622 28.9583 23.3277 28.6326C23.1931 28.3069 22.9957 28.011 22.7466 27.7617C22.4976 27.5124 22.2019 27.3146 21.8764 27.1796C21.5509 27.0447 21.202 26.9752 20.8496 26.9752H12.0777ZM29.709 19.5002C29.2946 19.5002 28.8972 19.6649 28.6041 19.9579C28.3111 20.2509 28.1465 20.6483 28.1465 21.0627C28.1465 21.4771 28.3111 21.8746 28.6041 22.1676C28.8972 22.4606 29.2946 22.6252 29.709 22.6252H39.084C39.4984 22.6252 39.8958 22.4606 40.1888 22.1676C40.4819 21.8746 40.6465 21.4771 40.6465 21.0627C40.6465 20.6483 40.4819 20.2509 40.1888 19.9579C39.8958 19.6649 39.4984 19.5002 39.084 19.5002H29.709ZM29.709 28.8752C29.2946 28.8752 28.8972 29.0399 28.6041 29.3329C28.3111 29.6259 28.1465 30.0233 28.1465 30.4377C28.1465 30.8521 28.3111 31.2496 28.6041 31.5426C28.8972 31.8356 29.2946 32.0002 29.709 32.0002H39.084C39.4984 32.0002 39.8958 31.8356 40.1888 31.5426C40.4819 31.2496 40.6465 30.8521 40.6465 30.4377C40.6465 30.0233 40.4819 29.6259 40.1888 29.3329C39.8958 29.0399 39.4984 28.8752 39.084 28.8752H29.709Z" fill="white"/>
</svg>
