<svg width="242" height="54" viewBox="0 0 242 54" fill="none" xmlns="http://www.w3.org/2000/svg"><path d="M66.36 18.59c0-1.83-.62-2.72-1.86-2.72-.27 0-.54 0-.76.1-.31.04-.67.08-.98.08-.31 0-.58-.13-.8-.36a1.01 1.01 0 0 1-.31-.84c0-.85.49-1.29 1.51-1.29.05 0 .22 0 .53.04 3.65.23 5.34.36 5.12.36h.36l8.76-.27 1.91-.09c.4-.04.76-.04 1.07-.04 1.25 0 1.91.58 1.91 1.69l-.08 1.87c-.05.8-.1 1.51-.1 2.18 0 .58 0 1.2.05 1.78.09.53.09 1.07.13 1.56 0 .93-.44 1.37-1.33 1.37-.89 0-1.33-.66-1.33-1.95v-1.92c0-2.04-.45-3.29-1.3-3.64-.62-.27-2.26-.4-4.89-.4-1.02-.05-2.05 0-3.07.13-1.02.27-1.56 1.02-1.56 2.22v3.65c0 .98.23 1.56.67 1.7.27.04.58.08.85.08h1.47c1.5 0 2.26-.53 2.26-1.56 0-.4-.04-.75-.09-1.1-.04-.4-.08-.85-.08-1.25 0-.98.44-1.47 1.29-1.47.84 0 1.29.53 1.29 1.55 0 .18-.1.94-.23 2.27a32.4 32.4 0 0 0-.22 2.98c0 .5.05 1.34.14 2.58.04.18.08.63.17 1.3.05.44.1.84.1 1.29a1.2 1.2 0 0 1-.99 1.33h-.3c-.85 0-1.3-.53-1.3-1.56 0-.4.05-.8.1-1.15.03-.4.08-.8.08-1.16 0-1.07-.71-1.56-2.1-1.56h-1.64c-.7 0-1.15.14-1.29.36a3.1 3.1 0 0 0-.22 1.56v2.26c0 .4 0 .94.04 1.56.05.8.05 1.34.05 1.6.04.98.22 1.6.58 1.83.26.17.89.26 1.91.26h4.98c1.43 0 2.45-.22 2.98-.62.54-.44.8-1.24.8-2.4 0-.36 0-.9-.04-1.65-.04-.75-.04-1.24-.04-1.64 0-1.12.44-1.65 1.29-1.65.93 0 1.37.58 1.37 1.7 0 .44 0 1.1-.04 2-.04.88-.04 1.55-.04 2 0 .35 0 .84.04 1.5.04.67.04 1.16.04 1.52 0 1.16-.57 1.73-1.69 1.73-.26 0-.7-.04-1.29-.08-.3-.05-.84-.05-1.6-.05.18 0-.8-.04-2.84-.09-2.05-.04-3.88-.09-5.39-.09-2.31 0-4.54.1-6.72.27-.08 0-.22 0-.3.05h-.23c-1.02 0-1.56-.45-1.56-1.34 0-.8.36-1.16 1.12-1.16.13 0 .44.05.97.1.27.08.5.08.76.08 1.25 0 1.87-.93 1.87-2.76l.04-14.63Zm30.7 14.5v-2.36c.04-.98.45-1.51 1.34-1.51.88 0 1.29.58 1.29 1.69 0 2.67-.36 4.5-1.03 5.56-.93 1.42-2.44 2.14-4.54 2.14-1.95 0-3.33-.63-4.13-1.87-.63-.9-.9-2.45-.9-4.63v-8.76c0-.54-.22-.76-.7-.76h-1.2c-.36 0-.72-.13-.98-.4-.27-.22-.4-.58-.4-.93 0-.36.13-.67.4-.94.22-.27.53-.4.84-.4h1.42c.4 0 .63-.22.63-.71v-3.7c0-.93.49-1.37 1.42-1.37.9 0 1.34.44 1.34 1.38v3.91c0 .36.22.54.66.54h4c.94 0 1.39.44 1.39 1.29 0 .89-.5 1.33-1.52 1.33h-4c-.36 0-.53.27-.53.76v8.98c0 2.58.84 3.83 2.58 3.83 1.64.04 2.58-.98 2.62-3.07Zm10.19-18.55-.14 7.12c.8-.8 1.7-1.43 2.67-1.92a7.71 7.71 0 0 1 2.85-.53c2.1 0 3.78.58 5.07 1.78a6.12 6.12 0 0 1 1.92 4.71v6.1c0 1.42 0 2.22.04 2.36.09 1.2.4 1.82.94 1.82.3 0 .57-.09.84-.22.18-.05.4-.05.58-.05.89 0 1.33.4 1.33 1.25s-.57 1.25-1.73 1.25c-.45 0-.94-.05-1.38-.1-.85-.08-1.65-.17-2.5-.17-.48 0-.97 0-1.46.09-1.02.13-1.65.22-1.91.22-.4 0-.8-.13-1.12-.4a1.27 1.27 0 0 1-.44-.98c0-.31.13-.62.4-.8.27-.22.58-.36.89-.31.31 0 .67.09.93.18.23.09.4.09.63.09.7 0 1.1-.8 1.1-2.36 0-.31.05-.85.1-1.74v-3.56c0-2.49-.27-4.13-.76-5.02-.71-1.3-1.96-1.92-3.74-1.92-1.9 0-3.33.67-4.22 1.96-.63.9-.94 2.36-.94 4.36v2.63c0 .26-.09.49-.13.7v.72c0 1.38 0 2.18.05 2.4.13 1.2.48 1.78 1.1 1.78.27 0 .59-.09.85-.18.27-.09.54-.13.8-.17.8 0 1.2.4 1.2 1.15 0 .9-.53 1.34-1.6 1.34-.35 0-.84-.05-1.55-.1-.8-.08-1.6-.13-2.4-.13-.4 0-.99.05-1.74.1-.98.08-1.6.13-1.87.13-1.02 0-1.51-.45-1.51-1.34 0-.75.49-1.11 1.42-1.11.22 0 .49 0 .71.09.31.09.58.13.9.13.4 0 .66-.35.8-1.11.17-1.51.26-3.02.21-4.54V23.7c0-3.65-.08-5.96-.22-6.94-.13-.98-.49-1.42-1.02-1.42-.27 0-.53.04-.76.09a4.9 4.9 0 0 1-.8.09c-.84 0-1.24-.4-1.24-1.16 0-.36.17-.67.44-.89.31-.27.67-.36 1.07-.36.13 0 .53.05 1.25.1.48.04.97.08 1.5.08.32 0 .63-.04.94-.09.27-.04.58-.09.85-.09.58 0 .84.4.84 1.2l-.04.23Zm34.2 12.81c.05.58 0 1.16-.17 1.7-.13.21-.49.3-1.07.3h-11.65a.77.77 0 0 0-.63.14c-.08.13-.17.26-.13.44a6.6 6.6 0 0 0 1.65 4.58 5.2 5.2 0 0 0 4.1 1.83 5.2 5.2 0 0 0 2.93-.9 3.77 3.77 0 0 0 1.73-2.22l.31-1.06c.14-.54.63-.94 1.2-.9.9 0 1.38.45 1.38 1.39 0 1.6-.8 2.98-2.4 4.22a8.72 8.72 0 0 1-5.47 1.83c-2.58 0-4.58-.85-6.1-2.59-1.5-1.73-2.27-4.04-2.27-6.94 0-2.98.8-5.38 2.4-7.25a7.88 7.88 0 0 1 6.28-2.75 7.49 7.49 0 0 1 5.65 2.3 8.27 8.27 0 0 1 2.27 5.88Zm-13.3-.93c0 .35.28.53.8.53h8.82c.53 0 .75-.18.75-.53 0-1.3-.53-2.5-1.47-3.38a4.73 4.73 0 0 0-3.47-1.43c-1.37 0-2.7.54-3.73 1.47-1.11 1.02-1.7 2.14-1.7 3.34Zm21.54-5.52v1.02a5.92 5.92 0 0 1 5.07-2.67 5.81 5.81 0 0 1 4.14 1.43 4.73 4.73 0 0 1 1.6 3.69 4 4 0 0 1-.8 2.63 2.62 2.62 0 0 1-2.14 1.02 2.1 2.1 0 0 1-1.42-.54 1.66 1.66 0 0 1-.58-1.24c0-.4.18-.76.45-1.02.26-.32.62-.45 1.02-.45.18 0 .31.05.49.09.13-.27.22-.53.22-.8 0-.71-.35-1.38-.93-1.78a3.58 3.58 0 0 0-2.32-.71c-1.9 0-3.15.84-3.82 2.58-.4 1.07-.58 2.62-.58 4.76v2.4c0 1.65 0 2.54.04 2.76.14 1.38.5 2.09 1.16 2.09.36 0 .67-.04.98-.13.22-.05.44-.1.71-.1.8 0 1.2.4 1.2 1.16 0 .85-.49 1.25-1.51 1.25h-.13c-.58 0-1.11-.05-1.65-.13-.53-.1-1.11-.14-1.64-.14-.98 0-1.74.05-2.32.1l-2.05.17c-.97 0-1.5-.45-1.5-1.3 0-.75.48-1.1 1.42-1.1.17 0 .35 0 .53.04l.53.1c.18.04.36.04.54.08.62 0 .93-.58.98-1.7V32.6l-.1-8.32c-.08-1.42-.44-2.18-1.1-2.18-.27 0-.54.05-.8.09-.27.04-.54.09-.8.09-.8 0-1.2-.4-1.2-1.16 0-.84.53-1.24 1.55-1.24.35 0 .71.04 1.11.09.36.04.71.08 1.11.08.31 0 .63-.04.94-.08.22-.05.44-.1.71-.1.58-.04.89.32.89 1.03Zm20.1-1.69a6.5 6.5 0 0 1 4.1 1.29v-.13c0-.9.4-1.34 1.16-1.34.8 0 1.2.4 1.2 1.16 0 .13 0 .53-.04 1.11a8.2 8.2 0 0 0-.14 1.47c0 .31.05.71.09 1.29.05.58.09.98.09 1.29 0 .93-.4 1.38-1.2 1.38-.58.09-1.11-.36-1.2-.94v-1.46c-.05-.72-.45-1.38-1.25-1.87a5.44 5.44 0 0 0-2.9-.8c-1.01-.05-2 .26-2.84.84a2.62 2.62 0 0 0-1.16 2.14c0 1.55 1.07 2.49 3.25 2.76l2.14.3c4.14.59 6.23 2.28 6.23 5.17a5.31 5.31 0 0 1-2 4.27 8.14 8.14 0 0 1-5.25 1.64 8.28 8.28 0 0 1-5.25-1.73v.71c0 .9-.4 1.34-1.25 1.34-.89 0-1.33-.5-1.33-1.52.08-.62.17-1.24.22-1.91.04-.36.09-.67.09-1.02 0-.54-.05-1.12-.14-1.65-.09-.4-.13-.8-.13-1.2 0-.85.4-1.29 1.16-1.29.53 0 .84.13.97.36.18.62.27 1.29.23 1.95.04 1.07.58 1.92 1.64 2.58a7.74 7.74 0 0 0 4.1.98c1.06.05 2.09-.27 2.98-.93a2.77 2.77 0 0 0 1.15-2.32c0-1.64-1.33-2.62-3.95-2.89-2.5-.26-4.41-.75-5.74-1.47-1.34-.7-1.96-2-1.96-3.78a5.1 5.1 0 0 1 1.91-4.13 7.44 7.44 0 0 1 5.03-1.65Zm20.96 6.85c0-.98.63-1.56 1.83-1.69a2.72 2.72 0 0 0-1.25-2 4.46 4.46 0 0 0-2.71-.71 4.98 4.98 0 0 0-4.1 2c-1.02 1.33-1.55 3.11-1.55 5.34 0 2.31.49 4.09 1.47 5.38.93 1.29 2.44 2 4 1.96a4.53 4.53 0 0 0 4.45-3.47c.27-.85.4-1.34.44-1.47.22-.45.67-.76 1.16-.71.4 0 .75.13 1.02.4.27.26.4.62.4 1.02a5.3 5.3 0 0 1-.58 2.18 7.32 7.32 0 0 1-6.98 4.45 7.56 7.56 0 0 1-6-2.63c-1.52-1.73-2.28-4.04-2.28-6.9 0-3.02.8-5.42 2.36-7.24 1.56-1.83 3.65-2.72 6.28-2.72a7.33 7.33 0 0 1 4.84 1.6 5.1 5.1 0 0 1 1.96 4.05c.05.8-.22 1.6-.75 2.23-.5.58-1.2.89-1.92.89-.58 0-1.1-.18-1.5-.54-.37-.4-.59-.89-.59-1.42Zm23.76 12.55c-2 0-3.25-.85-3.7-2.58-1.24 1.82-3.2 2.75-5.87 2.75-1.95 0-3.56-.48-4.71-1.46a4.87 4.87 0 0 1-1.78-3.92 4.75 4.75 0 0 1 2.58-4.45 8.03 8.03 0 0 1 1.69-.7c.49-.1 1.42-.28 2.9-.41 2.04-.22 3.37-.53 4-.93.62-.4.93-1.12.93-2.18a2.98 2.98 0 0 0-1.02-2.36 4.26 4.26 0 0 0-2.9-.85c-1.1 0-2.17.31-3.06.94-.36.22-.54.49-.54.75 0 .1.09.23.31.36.36.31.58.76.54 1.25 0 .44-.18.88-.54 1.2-.35.3-.84.49-1.33.49a2.22 2.22 0 0 1-2.23-2.27c0-1.38.67-2.54 2.05-3.52a8.07 8.07 0 0 1 4.94-1.47c4.45 0 6.67 2.14 6.67 6.41v7.39c0 .7 0 1.37.09 2.09.13.84.58 1.29 1.25 1.29.84 0 1.29-.76 1.29-2.32v-1.78c0-.75.35-1.15 1.1-1.15.8 0 1.2.58 1.2 1.73v2.27c-.21 2.27-1.46 3.43-3.86 3.43Zm-4.1-7.3v-2.58c-.48.44-1.06.8-1.69 1.02-1.02.27-2.09.45-3.2.54-2.76.26-4.14 1.29-4.14 3.07-.04.84.36 1.64 1.03 2.18.8.58 1.73.84 2.71.8 1.65 0 2.94-.45 3.87-1.34a5.13 5.13 0 0 0 1.43-3.69Zm14.6-10.37v1.03a6.99 6.99 0 0 1 5.87-2.76c1.3 0 2.58.36 3.74 1.02a5.13 5.13 0 0 1 2.35 2.5c.36 1.02.54 2.13.54 3.24v6.94c0 1.07 0 1.7.04 1.87.14.85.45 1.25.98 1.25.27 0 .58-.05.85-.1.27-.04.49-.08.75-.08.31 0 .63.13.85.3.22.23.36.5.36.81 0 .36-.18.71-.45.93-.31.27-.67.36-1.07.36-.58 0-1.11-.09-1.69-.13-.71-.1-1.47-.14-2.18-.14-.53 0-1.07 0-1.55.1-1.2.13-1.87.22-1.96.22-.98 0-1.47-.45-1.47-1.3 0-.75.44-1.1 1.29-1.1.22 0 .44.04.67.08.3.1.57.14.89.14.58 0 .93-.67.97-2v-6.9c.05-.9-.04-1.78-.17-2.67a3.64 3.64 0 0 0-1.43-2.18 4.56 4.56 0 0 0-2.71-.85c-1.96 0-3.34.71-4.18 2.1-.58.93-.9 2.57-.9 4.84v4.85c-.04.76.05 1.47.23 2.18.09.36.45.58.8.58.27 0 .53-.04.8-.13.27-.1.58-.14.85-.14.75 0 1.11.4 1.11 1.25 0 .8-.49 1.2-1.47 1.2-.18 0-.84-.09-1.91-.22-.58-.1-1.2-.14-1.78-.1-.67 0-1.38.05-2.05.14-1.06.14-1.69.18-1.82.18-1.02 0-1.56-.4-1.56-1.25a1 1 0 0 1 .9-1.15h.3c.22 0 .45.04.67.09.31.09.67.09.98.09.76 0 1.11-.72 1.16-2.14v-9.74c0-.58-.1-1.16-.32-1.7a.84.84 0 0 0-.84-.44c-.27 0-.53.05-.76.1-.26.04-.49.08-.75.08-.9 0-1.34-.4-1.34-1.2 0-.8.54-1.25 1.65-1.25.13 0 .26 0 .35.05l1.34.13c.35 0 .67-.04 1.02-.09.62-.04.98-.09.98-.09.71.1 1.07.5 1.07 1.2ZM11.24 25.7a2.28 2.28 0 0 1 2.27-2.26h3.83a2.33 2.33 0 0 1 2.31 2.3v14.42c.45-.13.98-.26 1.6-.4a1.95 1.95 0 0 0 1.47-1.87V20.01a2.33 2.33 0 0 1 2.31-2.31h3.83A2.33 2.33 0 0 1 31.17 20v16.6l1.87-.8a1.9 1.9 0 0 0 1.16-1.79v-19.8a2.32 2.32 0 0 1 2.27-2.3h3.82a2.29 2.29 0 0 1 2.27 2.3v16.29c3.3-2.4 6.68-5.3 9.35-8.77a3.75 3.75 0 0 0 .57-3.6A27 27 0 0 0 18.14 1.5 27 27 0 0 0 3.59 40.43a3.35 3.35 0 0 0 3.25 1.7c.71-.05 1.6-.14 2.71-.28a1.9 1.9 0 0 0 1.7-1.91V25.7ZM11.15 48.84a26.97 26.97 0 0 0 42.76-23.71c-9.79 14.72-28.03 21.62-42.76 23.7Z" fill="#7E90A5"/></svg>
