<svg width="223" height="36" viewBox="0 0 223 36" fill="none" xmlns="http://www.w3.org/2000/svg"><path d="M25.76 0v8.28H20.3v-2.8h-2.74v14.21H14.6V5.47h-2.74v2.81H6.43V0h19.33ZM25.76 27.9V36H6.43v-8.1h5.43v3.17h8.43V27.9h5.47ZM6.4 8.28H3.43v5.47H6.4V8.28ZM6.4 22.43H3.43v5.47H6.4v-5.47ZM28.71 22.43h-2.95v5.47h2.95v-5.47ZM28.71 8.28h-2.95v5.47h2.95V8.28ZM3.44 13.75H.5v8.68h2.95v-8.68Z" fill="#81819E"/><path d="M28.71 13.75v8.68h-2.95v5.47H20.3v3.17h-8.42V27.9H6.43v-5.47H3.44v-8.68h2.99V8.28h5.44v-2.8h2.73v14.21h2.95V5.47h2.74v2.81h5.47v5.47h2.95Z" fill="#fff"/><path d="M34.65 16.45v3.24h-2.99v2.74h-2.95v-8.68h2.95v2.7h3ZM54.06 16.6h-9.4v-6.48h-2.88v15.84h2.88v-6.48h9.4v6.48h2.88V10.12h-2.88v6.48ZM109.53 13.43h-3.2v3.2h3.2v-3.2ZM112.74 10.22h-3.2v3.2h3.2v-3.2ZM109.53 19.48h-3.2v3.2h3.2v-3.2ZM149.35 22.72h-3.24v3.24h3.24v-3.24ZM112.74 22.68h-3.2v3.2h3.2v-3.2ZM63.13 10.12h-2.88v15.84h2.88v-6.48h9.43v6.48h2.88V10.12H63.13Zm9.4 6.48h-9.4V13h9.43v3.6h-.04ZM100.1 10.12h-2.88v15.84h2.88v-6.48h6.23V16.6h-6.23v-6.48ZM115.8 13v12.96H130.92v-2.88h-12.24v-3.6h6.22V16.6h-6.22V13h12.24v-2.88H115.8V13ZM134.23 13v12.96h2.88v-6.48h5.76v3.24h3.24v-3.24H149.35v-9.36h-15.12V13Zm12.24 3.6h-9.36V13h9.36v3.6ZM152.66 13v12.96h2.88V13h9.36v12.88h2.88V10.12h-15.12V13ZM173.94 10.04h-2.88v15.84H186.18V10.12h-12.24v-.08ZM183.3 13v9.97h-9.36V13h9.36ZM192.55 10.04h-2.88v15.84H204.79V10.12h-12.24v-.08ZM201.9 13v9.97h-9.36V13h9.36ZM210.66 10.12v-.08h-2.88v15.84h2.88V13h9.36v12.88h2.88V10.12h-12.24ZM78.68 10.12v15.84H93.87v-2.88h-12.3V13h12.3v-2.88H78.68Z" fill="#81819E"/></svg>