<svg width="17" height="18" viewBox="0 0 17 18" fill="none" xmlns="http://www.w3.org/2000/svg">
<path fill-rule="evenodd" clip-rule="evenodd" d="M6.6792 6.43508H9.30995V7.7455C9.68891 6.99183 10.6607 6.31466 12.1206 6.31466C14.9192 6.31466 15.5837 7.81491 15.5837 10.5675V15.6654H12.7503V11.1944C12.7503 9.62683 12.3714 8.74283 11.4066 8.74283C10.0686 8.74283 9.51253 9.69554 9.51253 11.1937V15.6654H6.6792V6.43508ZM1.82074 15.545H4.65408V6.31466H1.82074V15.545ZM5.05995 3.30495C5.06006 3.54244 5.01296 3.77758 4.92139 3.9967C4.82983 4.21583 4.69562 4.41457 4.52658 4.58137C4.18403 4.92181 3.72036 5.11237 3.23741 5.1112C2.75531 5.11088 2.29271 4.9208 1.94966 4.58208C1.78123 4.41471 1.64747 4.21575 1.55607 3.99659C1.46466 3.77744 1.4174 3.5424 1.41699 3.30495C1.41699 2.82541 1.60824 2.36641 1.95037 2.02783C2.29312 1.68865 2.75591 1.49849 3.23812 1.4987C3.7212 1.4987 4.18445 1.68924 4.52658 2.02783C4.86799 2.36641 5.05995 2.82541 5.05995 3.30495Z" fill="#AFB6E5"/>
</svg>
