<svg width="102" height="102" viewBox="0 0 102 102" fill="none" xmlns="http://www.w3.org/2000/svg"><path d="M74.83 5.64v48.11c0 3.9-2.4 8.4-5.3 10.1L6.3 100.35c-2.9 1.7-5.29-.1-5.29-4v-48.1c0-3.9 2.4-8.4 5.3-10.1l63.33-36.5c2.9-1.7 5.2.1 5.2 4Z" stroke="#060437" stroke-width="1.5" stroke-miterlimit="10" stroke-linecap="round" stroke-linejoin="round"/><path d="m12.19 86.76 9.59-15.5c2-3.2 4.7-5 6.9-4.6l9.38 2c2.3.5 5.2-1.5 7.2-5l19.18-33.31" stroke="#060437" stroke-width="1.5" stroke-miterlimit="10" stroke-linecap="round" stroke-linejoin="round"/><path d="m64.34 36.05.2-5.7-4.7 2.2M9.6 63.75l10.68-6.2M9.6 71.35l5.09-3" stroke="#060437" stroke-width="1.5" stroke-miterlimit="10" stroke-linecap="round" stroke-linejoin="round"/><path d="M74.83 5.64v9.2L1.1 57.45v-9.2c0-3.9 2.4-8.4 5.3-10.1l63.23-36.5c2.9-1.7 5.2.1 5.2 4Z" fill="#EDE9FF" stroke="#060437" stroke-width="1.5" stroke-miterlimit="10" stroke-linecap="round" stroke-linejoin="round"/><path d="m61.04 14.64 6.6-3.8M53.65 18.94l2.8-1.6" stroke="#060437" stroke-width="1.5" stroke-miterlimit="10" stroke-linecap="round" stroke-linejoin="round"/><path d="M11.17 45.2c.69-1.62.5-3.26-.4-3.65-.92-.39-2.22.62-2.91 2.24-.7 1.63-.51 3.26.4 3.65.91.4 2.22-.61 2.9-2.24ZM19.5 40.32c.7-1.62.52-3.26-.4-3.65-.91-.39-2.21.62-2.9 2.24-.7 1.63-.51 3.26.4 3.65.91.4 2.21-.61 2.9-2.24ZM27.8 35.53c.7-1.62.52-3.26-.4-3.65-.91-.39-2.21.62-2.9 2.24-.7 1.63-.52 3.26.4 3.65.91.4 2.21-.61 2.9-2.24Z" fill="#fff" stroke="#060437" stroke-width="1.5" stroke-miterlimit="10" stroke-linecap="round" stroke-linejoin="round"/><path d="M95.3 42.75c-1.7-.9-3.6-1.1-5.69-.7-1.3.3-2.7.8-4.1 1.6-8.59 4.9-15.48 18.2-15.48 29.7 0 3 .5 5.5 1.3 7.5.9 2.2 2.2 3.8 3.8 4.9l-9.7-5.5-.5-.3c-3.2-2-5.09-6.3-5.09-12.4 0-11.4 7-24.7 15.49-29.7 3.7-2.2 7.19-2.4 9.89-1l.5.3 9.59 5.6Z" fill="#EDE9FF" stroke="#060437" stroke-width="1.5" stroke-miterlimit="10" stroke-linecap="round" stroke-linejoin="round"/><path d="M101 55.45c0 11.4-7 24.7-15.48 29.7-3.8 2.2-7.3 2.4-9.9.9-.2-.1-.3-.2-.5-.3-1.6-1-2.9-2.7-3.79-4.9a21 21 0 0 1-1.3-7.5c0-11.4 7-24.7 15.49-29.7 1.4-.8 2.8-1.4 4.1-1.6 2.09-.4 4.09-.2 5.69.7h.1l.5.3c3.1 2 5.09 6.4 5.09 12.4Z" fill="#fff" stroke="#060437" stroke-width="1.5" stroke-miterlimit="10" stroke-linecap="round" stroke-linejoin="round"/><path d="M78.12 72.95c-.4-1.1-.7-2.4-.7-3.9 0-5.9 3.6-12.7 8-15.3a6.04 6.04 0 0 1 4.2-.8M93.4 59.85c0 5.9-3.59 12.7-7.98 15.3-.8.4-1.5.7-2.2.9" stroke="#060437" stroke-width="1.5" stroke-miterlimit="10" stroke-linecap="round" stroke-linejoin="round"/></svg>
