<svg width="102" height="102" viewBox="0 0 102 102" fill="none" xmlns="http://www.w3.org/2000/svg"><path d="M31.86 72 9.57 84.9l-7-4.1c-2.1-1.2-2.1-3.2 0-4.4l18.5-10.8M79.84 51.9l19.59 11.5c2.1 1.2 2.1 3.2 0 4.4l-55.98 32.3a8.46 8.46 0 0 1-7.6 0L9.58 84.9l19-11" stroke="#060437" stroke-width="1.5" stroke-miterlimit="10" stroke-linecap="round" stroke-linejoin="round"/><path d="M73.74 72.3v-7.2h-12.6M50.25 85.9h-12.6v-7.3M51.95 70.3l7.7 10.7M9.27 78.7l10.9-6.2M14.77 34.4l-12.2 7.1c-2.1 1.2-2.1 3.2 0 4.4l7 4.1 26.29 15.2c2.1 1.2 5.5 1.2 7.6 0l55.97-32.3c2.1-1.2 2.1-3.2 0-4.4l-4.6-2.7" stroke="#060437" stroke-width="1.5" stroke-miterlimit="10" stroke-linecap="round" stroke-linejoin="round"/><path d="M42.55 53.6c-2 1.2-5.5 1-7.8-.3l-2.5-1.4c-2.29-1.3-2.59-3.4-.59-4.5 2-1.2 5.5-1 7.8.3l2.5 1.4c2.4 1.3 2.6 3.4.6 4.5ZM57.05 45.2c-2 1.2-5.5 1-7.8-.3l-11.2-6.5c-2.3-1.3-2.6-3.4-.6-4.5 2-1.2 5.5-1 7.8.3l11.2 6.5c2.4 1.3 2.6 3.4.6 4.5ZM71.64 36.8c-2 1.2-5.5 1-7.8-.3l-8-4.5c-2.3-1.3-2.6-3.4-.6-4.5 2-1.2 5.5-1 7.8.3l8 4.5c2.3 1.4 2.6 3.4.6 4.5ZM86.13 24.2c2 1.2 2 3 0 4.2-2 1.2-5.3 1.2-7.3 0l-18.88-11c-2-1.2-2-3 0-4.2 2-1.2 5.3-1.2 7.3 0l18.88 11Z" fill="#EDE9FF" stroke="#060437" stroke-width="1.5" stroke-miterlimit="10" stroke-linecap="round" stroke-linejoin="round"/><path d="M57.55 1s-4.9 10.7-7.4 15.2c-1.5 2.8-2.1 4.7-6.3 6.1L33.55 25c-2.59.8-4.69 2.6-5.99 4.9l-6.4 12.2" stroke="#060437" stroke-width="1.5" stroke-miterlimit="10" stroke-linecap="round" stroke-linejoin="round"/></svg>
