<svg width="102" height="102" viewBox="0 0 102 102" fill="none" xmlns="http://www.w3.org/2000/svg"><path d="m11.55 61.9-8.3 4.7c-3 1.7-3 6.1 0 7.8l43.7 25.2c2.5 1.4 5.6 1.4 8.1 0l43.7-25.2c3-1.7 3-6.1 0-7.8l-23.8-13.7" stroke="#060437" stroke-width="1.5" stroke-miterlimit="10" stroke-linecap="round" stroke-linejoin="round"/><path d="M68.75 60.3c9.8 5.6 9.8 14.8 0 20.4-9.8 5.6-25.6 5.6-35.4 0-4.3-2.5-6.7-5.6-7.2-8.8" stroke="#060437" stroke-width="1.5" stroke-miterlimit="10" stroke-linecap="round" stroke-linejoin="round"/><path d="M101.05 20.6c0 .9-.5 1.7-1.6 2.4l-.5.3-59.5 34.2c-2.4 1.4-6.7 1.2-9.5-.4l-1.1-.7-7.9-4.5-17.6-10.1c-.1 0-.1-.1-.2-.1-1.4-.9-2.1-2-2.1-3 0-.9.5-1.7 1.6-2.4l59.9-34.6c2.4-1.4 6.7-1.2 9.5.4l17.6 10.2 7.9 4.5 1.1.7c1.6.9 2.4 2 2.4 3.1Z" fill="#fff" stroke="#060437" stroke-width="1.5" stroke-miterlimit="10" stroke-linecap="round" stroke-linejoin="round"/><path d="m97.55 16.8-4.9 2.8-63.9 36.9-7.8-4.6 63.8-36.8 4.9-2.8 7.9 4.5Z" fill="#EDE9FF" stroke="#060437" stroke-width="1.5" stroke-miterlimit="10" stroke-linecap="round" stroke-linejoin="round"/><path d="M66.95 15.8c3.48 0 6.3-1.66 6.3-3.7s-2.82-3.7-6.3-3.7-6.3 1.66-6.3 3.7 2.82 3.7 6.3 3.7Z" fill="#fff" stroke="#060437" stroke-width="1.5" stroke-miterlimit="10" stroke-linecap="round" stroke-linejoin="round"/><path d="M62.45 18.4c3.48 0 6.3-1.66 6.3-3.7s-2.82-3.7-6.3-3.7-6.3 1.66-6.3 3.7 2.82 3.7 6.3 3.7Z" fill="#EDE9FF" stroke="#060437" stroke-width="1.5" stroke-miterlimit="10" stroke-linecap="round" stroke-linejoin="round"/><path d="m23.75 32.5 1.4-.8M11.95 39.3l8.5-4.9M20.75 39l14.6-8.5M16.05 41.6l1.6-.9M20.15 44l9.9-5.7" stroke="#060437" stroke-width="1.5" stroke-miterlimit="10" stroke-linecap="round" stroke-linejoin="round"/><path d="M101.05 20.6v7.9c0 .9-.5 1.7-1.6 2.4l-60 34.6c-2.4 1.4-6.7 1.2-9.5-.4L3.35 49.7c-1.5-.9-2.3-2-2.3-3.1v-7.9c0 1 .7 2.1 2.1 3 .1 0 .1.1.2.1L20.95 52l7.9 4.5 1.1.7c2.8 1.6 7.1 1.8 9.5.4l59.4-34.3.5-.3c1.1-.7 1.7-1.5 1.7-2.4Z" fill="#fff" stroke="#060437" stroke-width="1.5" stroke-miterlimit="10" stroke-linecap="round" stroke-linejoin="round"/><path d="m64.55 61.4 3.6 2.1c.6.4 1.4.4 2 0l3.6-2.1c.7-.4.7-1.3 0-1.7l-3.5-2.1c-.6-.4-1.4-.4-2 0l-3.6 2.1c-.7.3-.7 1.3-.1 1.7ZM64.55 81.2l3.6 2.1c.6.4 1.4.4 2 0l3.6-2.1c.7-.4.7-1.3 0-1.7l-3.5-2.1c-.6-.4-1.4-.4-2 0l-3.6 2.1c-.7.4-.7 1.3-.1 1.7ZM28.25 81.2l3.6 2.1c.6.4 1.4.4 2 0l3.6-2.1c.7-.4.7-1.3 0-1.7l-3.6-2.1c-.6-.4-1.4-.4-2 0l-3.6 2.1c-.7.4-.7 1.3 0 1.7Z" fill="#EDE9FF" stroke="#060437" stroke-width="1.5" stroke-miterlimit="10" stroke-linecap="round" stroke-linejoin="round"/></svg>
