<svg width="127" height="36" viewBox="0 0 127 36" fill="none" xmlns="http://www.w3.org/2000/svg"><path d="M21.96 27c1.26-1.07 1.42-2.43 1.85-3.63 2.68-7.3 5.27-14.6 7.9-21.92.16-.48.39-.95.6-1.45h9.88c-.26.8-.51 1.6-.78 2.36l-6.72 18.6a404.6 404.6 0 0 0-1.65 4.56c-.32.89-.88 1.46-1.87 1.46-2.98.03-5.94.03-9.2.03ZM20.67 9.04c-1.24.84-1.36 2.08-1.75 3.16-2.71 7.42-5.39 14.89-8.06 22.31-.16.48-.37.95-.58 1.49H.42c.08-.31.1-.54.18-.77 2.96-8.16 5.92-16.35 8.86-24.54.48-1.32.9-1.65 2.26-1.65h8.95ZM47.56 27h-2.63V10.12h3.74l7.36 12.8.23-.04V10.09h2.65v16.87h-3.76c-2.41-4.24-4.88-8.54-7.32-12.86l-.23.06c-.04 4.24-.04 8.48-.04 12.85ZM126.49 31.57c-.86.4-1.79.81-2.88 1.29v-5.48h-.78c-.99-.04-2 .02-2.96-.15-3.06-.5-4.92-2.54-5.14-5.68-.06-1-.02-2 .2-2.98a5.43 5.43 0 0 1 4.53-4.39c2.3-.47 4.62-.24 7.03-.02v17.41Zm-2.96-15.15c-2.39-.52-4.4.06-5.24 1.47-1 1.63-.87 4.55.24 5.89 1.05 1.26 3.25 1.74 5.02 1.03-.02-2.79-.02-5.6-.02-8.4ZM98.63 26.98c-2.55.46-5.08.83-7.6 0a5.6 5.6 0 0 1-3.9-4.3 7.86 7.86 0 0 1 .79-5.89 5.59 5.59 0 0 1 4.64-2.8c1.01-.07 2.04-.01 3.23-.01V9.04h2.84v17.94Zm-2.86-10.52a6.83 6.83 0 0 0-3.16-.04c-1.36.29-2.14 1.18-2.5 2.46a6.81 6.81 0 0 0-.24 1.94c0 2.21 1.13 3.87 3 4.24.9.19 1.9.02 2.9.02v-8.62ZM72.77 27c-3.03.27-5.82.58-8.6.03-1.87-.38-2.73-1.62-2.88-3.85a3.54 3.54 0 0 1 2.47-3.74c.84-.27 1.73-.42 2.61-.48 1.1-.08 2.18-.02 3.25-.02.43-1.76-.1-2.63-1.8-2.67-1.43-.04-2.87.13-4.29.21-.43.02-.86.1-1.35.17v-2.22c.72-.12 1.4-.3 2.1-.37 1.9-.14 3.82-.33 5.71.17 1.42.37 2.47 1.28 2.53 2.77.16 3.26.18 6.57.25 10Zm-2.88-6.1c-1.56.13-3 .15-4.4.38-.99.16-1.38.8-1.38 1.78-.02.99.4 1.7 1.32 1.96a8.8 8.8 0 0 0 4.46.08v-4.2ZM112.4 26.94c-.45.07-.78.15-1.1.17-2.16.04-4.32.18-6.46.08-1.65-.08-3.1-.76-3.58-2.56-.74-2.73.08-4.92 3.13-5.46 1.3-.23 2.65-.19 3.98-.25.33-.02.66 0 1 0 .34-1.84-.15-2.63-1.9-2.67-1.56-.02-3.12.17-4.69.27l-.88.1v-2.2a18.42 18.42 0 0 1 7.63-.24c1.6.34 2.5 1.33 2.73 2.94.08.62.14 1.24.14 1.84.03 2.28 0 4.55 0 6.8v1.18Zm-2.8-5.91c-1.55 0-3.05-.23-4.53.25-.87.27-1.24.8-1.28 1.65-.04 1.01.27 1.68 1.11 1.99 1.54.58 3.13.47 4.69.2.02-1.42.02-2.7.02-4.1ZM25.52 16.05c-.25.72-.5 1.5-.76 2.3l-2.37 6.48c-.3.87-.65 1.7-1.76 1.74-1.13.04-1.52-.78-1.83-1.65-.56-1.5-1.1-2.98-1.6-4.47-.09-.27-.07-.62.03-.89l3.17-8.83c.29-.78.78-1.3 1.67-1.28.82.02 1.3.52 1.58 1.26.55 1.55 1.13 3.1 1.69 4.65l.18.69ZM84.49 14.3v2.22l-1.4-.14c-1.05-.07-2.12-.1-3.17-.15-.2 0-.41.02-.62.06-.84.19-1.33.62-1.4 1.18-.06.58.31 1.02 1.24 1.28.92.27 1.85.48 2.78.73.49.14.98.3 1.43.52 1.22.57 1.94 1.48 1.98 2.89.04 1.47-.43 2.69-1.73 3.4a6 6 0 0 1-2.59.84c-1.8.06-3.62-.15-5.4-.27-.13 0-.25-.1-.4-.17v-2.23l1.05.15c1.3.1 2.6.27 3.87.29.55 0 1.15-.21 1.66-.46.84-.45.9-1.49.08-2.03a5.44 5.44 0 0 0-1.52-.6c-.92-.26-1.87-.43-2.77-.74-1.77-.62-2.63-1.84-2.57-3.43.08-1.72 1.1-2.96 2.88-3.46 1.68-.45 3.39-.3 5.1-.14.53.06.98.19 1.5.27Z" fill="#81819E"/></svg>