<svg width="124" height="36" viewBox="0 0 124 36" fill="none" xmlns="http://www.w3.org/2000/svg"><path d="M46.16 11.97h2.52v12.06h-1.97l-6.08-7.67v7.67H38.1V11.97h1.97l6.09 7.67v-7.67ZM51.13 24.03V11.97h8.38v2.04h-5.77v2.82h5.45v2.03h-5.45v3.05h5.77v2.04h-8.38v.08ZM76.65 11.97h2.53l-4.35 12.06H72.7l-2.84-7.99L67 24.03h-2.13l-4.35-12.06h2.77l2.76 8.38L69 11.97h1.9l2.84 8.38 2.92-8.38ZM82.1 23.8a5.4 5.4 0 0 1-2.13-1.03l.87-1.87a7.15 7.15 0 0 0 3.95 1.25c.79 0 1.34-.16 1.73-.4.4-.23.64-.54.64-1.01 0-.4-.16-.7-.56-.94-.4-.23-1.02-.4-1.97-.63-1.1-.23-1.9-.47-2.6-.78a3.1 3.1 0 0 1-1.43-1.17 2.87 2.87 0 0 1-.48-1.65c0-.7.24-1.4.64-1.95s.94-1.02 1.73-1.33a6.6 6.6 0 0 1 2.53-.47c.87 0 1.66.15 2.53.39a5.4 5.4 0 0 1 1.9 1.02l-.87 1.87a6.13 6.13 0 0 0-3.56-1.25c-.7 0-1.26.16-1.66.4-.4.23-.63.62-.63 1.09 0 .31.08.47.24.7.16.16.4.32.79.47.4.16.87.32 1.58.4a8.2 8.2 0 0 1 3.4 1.32 2.56 2.56 0 0 1 1.02 2.2c0 1.17-.47 2.03-1.34 2.66a6.33 6.33 0 0 1-3.71 1.01 7.23 7.23 0 0 1-2.61-.3ZM101.22 18.86c.4.55.55 1.1.55 1.88 0 1.02-.4 1.8-1.1 2.43-.72.62-1.82.86-3.17.86h-5.76V11.97h5.6c1.27 0 2.3.32 3 .86.72.55 1.11 1.34 1.11 2.27 0 .63-.15 1.18-.47 1.65-.32.47-.79.78-1.42 1.02a3.1 3.1 0 0 1 1.66 1.1Zm-6.88-1.96h2.53c.71 0 1.19-.07 1.5-.3.32-.24.48-.63.48-1.1 0-.47-.16-.87-.48-1.1-.31-.23-.87-.31-1.5-.31h-2.53v2.81Zm4.43 4.7c.31-.23.47-.63.47-1.17 0-.55-.16-.94-.47-1.18-.32-.23-.87-.39-1.58-.39h-2.85v3.05h2.85c.7.08 1.26-.08 1.58-.31ZM106.27 24.03v-9.94h-3.79v-2.2h10.35v2.2h-3.8v9.94h-2.76ZM116.07 23.4a5.2 5.2 0 0 1-2.13-2.2 7.2 7.2 0 0 1-.71-3.28c0-1.25.23-2.35.7-3.29a5.2 5.2 0 0 1 2.14-2.19 7.06 7.06 0 0 1 5.53-.39c.71.24 1.34.55 1.82 1.02l-.87 1.88c-.56-.4-1.03-.7-1.58-.86-.56-.16-1.1-.32-1.66-.32-1.1 0-1.9.32-2.53 1.02-.63.7-.87 1.72-.87 3.05 0 1.33.32 2.35.87 3.06.55.7 1.42 1.01 2.53 1.01.55 0 1.1-.08 1.66-.31a7.87 7.87 0 0 0 1.58-.86l.87 1.88c-.48.47-1.11.78-1.82 1.01-.71.24-1.5.4-2.3.4a4.86 4.86 0 0 1-3.23-.63ZM32.25 9v18l-15.72 9-11.3-6.5-4.26-2.42L.81 27V9l15.72-9 11.3 6.5 4.26 2.42.16.08Z" fill="#81819E"/><path d="M19.06 10.72 14 17.84 5.71 29.5h-.47L.97 27.08l11.7-16.36h6.39ZM32.1 8.92 20.4 25.28H14l5.06-7.12L27.43 6.5h.4l4.26 2.42Z" fill="#fff"/><path opacity=".4" d="M19.06 10.72v7.44L14 25.28v-7.51l5.06-7.05Z" fill="#fff"/></svg>