<svg width="250" height="159" viewBox="0 0 250 159" fill="none" xmlns="http://www.w3.org/2000/svg">
<path opacity="0.24" d="M23.466 110.29C57.2921 157.615 143.341 163.225 191.071 131.757C199.803 126.065 225.236 109.233 226.084 82.6434C226.168 80.9358 226.762 58.168 210.824 46.8653C194.547 35.3188 181.067 49.9553 154.786 43.6941C121.723 35.7253 120.96 7.42814 86.2011 1.3296C67.4654 -1.92295 52.375 3.60639 48.0514 5.39529C45.6776 6.37106 22.4486 16.21 12.1906 39.4658C-2.56067 72.8044 20.9226 106.794 23.466 110.29Z" fill="#6864F9"/>
<path d="M168.025 117.211C167.66 117.211 167.293 117.203 166.919 117.185C162.516 116.98 158.734 114.597 155.016 109.685C151.693 105.294 148.685 99.2142 145.499 92.7779C137.232 76.074 126.945 55.2847 103.673 47.4595C62.8501 33.7295 42.6162 47.6063 29.2275 56.7892L28.6512 57.1844C26.0586 58.9609 23.3444 59.8975 20.5841 59.9686C18.3724 60.0273 16.1379 59.5311 13.9336 58.5005C10.1989 56.7522 7.88465 54.0996 7.79004 53.9874L8.29258 53.591C8.31531 53.6174 10.6271 56.263 14.2414 57.9496C19.0482 60.1929 23.7695 59.7654 28.274 56.6794L28.8502 56.2842C35.6082 51.6501 44.0163 45.8827 55.9699 42.947C62.4593 41.3532 69.439 40.7742 76.7149 41.217C85.1224 41.732 94.2671 43.6347 103.895 46.8722C127.425 54.7843 137.775 75.7035 146.093 92.5119C149.266 98.9217 152.262 104.976 155.549 109.32C159.141 114.067 162.766 116.367 166.956 116.564C177.528 117.056 185.441 110.131 193.09 103.435C196.939 100.065 200.92 96.5798 205.193 94.081C210.012 91.2622 214.697 90.029 219.516 90.302C224.389 90.5804 229.022 91.7326 233.284 93.7275C236.693 95.3225 239.873 97.4566 242.736 100.07C247.61 104.519 249.912 108.889 249.934 108.932L249.351 109.209C249.329 109.166 247.067 104.879 242.268 100.504C237.849 96.4747 230.308 91.5417 219.475 90.9239C209.027 90.3279 201.148 97.224 193.529 103.894C186.045 110.442 178.316 117.211 168.025 117.211Z" fill="white"/>
<path d="M133.399 36.585C132.654 36.585 131.901 36.555 131.138 36.4951C121.752 35.7423 113.234 30.3736 105.821 20.5389C95.8074 7.25525 86.1798 2.84734 79.8648 1.48902C73.0602 0.0250026 68.5753 1.68751 68.5305 1.70454L68.2891 1.1261C68.4783 1.05387 73.0079 -0.623912 80.0073 0.881802C84.1026 1.76268 88.1918 3.56202 92.1606 6.22932C97.1074 9.55434 101.882 14.2465 106.352 20.1748C113.647 29.8533 122.004 35.1356 131.19 35.8744C138.869 36.4928 145.726 33.7497 150.126 31.3396C154.908 28.7205 157.905 25.9164 157.934 25.8882L158.392 26.3315C158.362 26.3603 155.317 29.2091 150.467 31.8699C146.418 34.0886 140.325 36.585 133.399 36.585Z" fill="white"/>
<path d="M81.4855 132.752H140.73C140.73 132.752 131.385 125.631 134.955 100.602C138.525 75.5732 152.147 52.5647 139.716 29.0552H81.4855C81.4855 29.0552 86.7751 37.2714 86.5988 51.9351C86.4225 66.5988 80.6899 80.0323 77.0763 96.3461C71.9642 119.436 81.4855 132.752 81.4855 132.752Z" fill="#1ED797"/>
<path d="M77.8349 132.752H137.079C137.079 132.752 127.734 125.631 131.304 100.602C134.874 75.5732 148.496 52.5647 136.065 29.0552H77.8349C77.8349 29.0552 83.1239 37.2708 82.9482 51.9345C82.7725 66.5983 77.0393 80.0317 73.4256 96.3456C68.3129 119.436 77.8349 132.752 77.8349 132.752Z" fill="#44E5AD"/>
<path d="M123.466 36.0598C123.776 37.3308 124.272 38.5537 124.94 39.6919C126.25 41.8859 128.743 44.4628 133.319 44.9185C133.531 46.3537 133.806 49.0686 133.677 52.9991C133.561 56.5707 133.137 60.4325 132.42 64.4769C131.523 69.5361 130.161 74.8971 128.372 80.4103C124.17 93.3522 123.056 102.896 122.862 108.622C122.733 112.443 122.978 115.136 123.201 116.699C122.252 117.02 121.349 117.452 120.511 117.984C118.613 119.184 116.153 121.466 114.736 125.645H90.2534C89.8735 124.41 89.3198 123.229 88.6075 122.136C87.2178 120.022 84.6326 117.427 80.047 116.537C79.9192 115.337 79.7478 113.317 79.7017 110.824C79.6329 107.091 79.8406 101.499 81.2192 96.0582C81.6087 94.5208 82.1229 92.6093 82.7176 90.3959C86.2526 77.245 92.0473 55.6893 90.3474 44.7077C92.7513 44.0088 96.8184 41.9734 99.3864 36.0551H123.464L123.466 36.0598ZM124.912 34.4014H98.2001C94.9378 43.1655 88.3261 43.4186 88.3261 43.4186C91.3236 54.964 82.3017 84.7683 79.5408 95.6671C76.7799 106.566 78.4829 117.971 78.4829 117.971C87.7105 118.982 88.8858 127.297 88.8858 127.297H116.04C118.333 118.645 125.18 117.915 125.18 117.915C125.18 117.915 122.006 105.611 130.029 80.8983C138.052 56.1855 134.789 43.3341 134.789 43.3341C125.709 43.3341 124.915 34.4014 124.915 34.4014H124.912Z" fill="#6DE2BB"/>
<path d="M106.071 69.7406C106.361 69.7406 106.655 69.75 106.946 69.7694C110.228 69.9814 113.295 71.4037 115.501 73.7363C117.707 76.0688 118.879 79.1292 118.769 82.2717C118.659 85.4142 117.277 88.3931 114.913 90.5799C112.55 92.7667 109.39 93.9905 106.101 93.993C105.811 93.993 105.516 93.9836 105.225 93.9642C101.943 93.7522 98.8757 92.3298 96.6699 89.9971C94.4641 87.6645 93.2925 84.604 93.4024 81.4613C93.5122 78.3187 94.8948 75.3398 97.2586 73.1531C99.6223 70.9663 102.782 69.7428 106.072 69.7406H106.071ZM106.072 68.0869C98.5563 68.0869 92.2217 73.6576 91.7038 80.9319C91.1631 88.5245 97.1642 95.0982 105.108 95.6132C105.441 95.6347 105.772 95.6455 106.101 95.6455C113.616 95.6455 119.951 90.0748 120.468 82.8011C121.009 75.2085 115.008 68.6348 107.064 68.1198C106.731 68.0983 106.4 68.0875 106.071 68.0875L106.072 68.0869Z" fill="#6DE2BB"/>
<path d="M111.261 46.0404C111.38 46.0404 111.499 46.0475 111.617 46.0615C112.332 46.1462 112.987 46.4883 113.447 47.0182C113.908 47.548 114.14 48.2257 114.096 48.9132C114.052 49.6007 113.735 50.2464 113.211 50.7187C112.686 51.191 111.993 51.4545 111.272 51.4553C111.153 51.4553 111.034 51.4483 110.916 51.4342C110.201 51.3495 109.546 51.0073 109.086 50.4774C108.625 49.9476 108.394 49.2698 108.438 48.5822C108.482 47.8947 108.798 47.249 109.323 46.7767C109.847 46.3044 110.541 46.0411 111.261 46.0404ZM111.261 44.3867C110.075 44.3869 108.936 44.8284 108.084 45.6176C107.232 46.4069 106.735 47.482 106.699 48.6153C106.662 49.7486 107.088 50.8511 107.886 51.6895C108.685 52.5279 109.794 53.0362 110.977 53.107C112.161 53.1777 113.328 52.8052 114.229 52.0685C115.131 51.3317 115.697 50.2884 115.808 49.1595C115.919 48.0306 115.566 46.9048 114.824 46.0203C114.082 45.1358 113.009 44.5622 111.832 44.4208C111.642 44.3981 111.452 44.3867 111.261 44.3867Z" fill="#6DE2BB"/>
<path d="M101.52 114.469C101.638 114.469 101.757 114.476 101.875 114.491C102.59 114.575 103.245 114.917 103.705 115.447C104.166 115.977 104.398 116.655 104.354 117.342C104.31 118.03 103.994 118.675 103.469 119.148C102.944 119.62 102.251 119.884 101.531 119.884C101.412 119.884 101.293 119.877 101.174 119.863C100.459 119.779 99.8046 119.436 99.344 118.907C98.8835 118.377 98.6517 117.699 98.6957 117.011C98.7397 116.324 99.0563 115.678 99.5809 115.206C100.106 114.733 100.799 114.47 101.52 114.469ZM101.52 112.816C100.334 112.816 99.1941 113.257 98.3425 114.046C97.491 114.836 96.9942 115.911 96.9573 117.044C96.9204 118.177 97.3463 119.279 98.1448 120.118C98.9434 120.956 100.052 121.464 101.236 121.535C102.419 121.606 103.585 121.233 104.487 120.497C105.389 119.76 105.955 118.717 106.066 117.588C106.177 116.459 105.824 115.333 105.082 114.449C104.34 113.565 103.266 112.991 102.09 112.85C101.901 112.827 101.71 112.816 101.52 112.816Z" fill="#6DE2BB"/>
<path d="M114.832 83.1353L112.668 82.9944C112.562 84.1812 112.089 85.3851 111.501 86.0669L110.1 85.4796C110.759 84.6401 111.152 83.6372 111.231 82.5904C111.334 81.1363 110.526 80.0957 109.304 80.0164C108.126 79.9401 107.338 80.6912 106.589 82.1652C105.584 84.1988 104.506 85.425 102.642 85.3035C100.864 85.186 99.5998 83.8941 99.4124 81.9861L97.248 81.8451L97.3384 80.5755L99.4167 80.7105C99.547 79.4844 99.9494 78.6669 100.356 78.0967L101.734 78.701C101.193 79.4495 100.877 80.3259 100.822 81.2344C100.709 82.8117 101.653 83.4695 102.51 83.5247C103.625 83.5969 104.235 82.8758 105.133 81.144C106.183 79.0927 107.373 78.1002 109.28 78.2241C110.973 78.3339 112.479 79.5636 112.692 81.6971L114.921 81.8422L114.832 83.1353Z" fill="#6DE2BB"/>
<path d="M75.6195 132.752H134.864C134.864 132.752 125.519 125.631 129.089 100.602C132.659 75.5732 146.281 52.5647 133.85 29.0552H75.6195C75.6195 29.0552 80.9092 37.2714 80.7328 51.9351C80.5565 66.5988 74.8239 80.0323 71.2103 96.3461C66.0976 119.436 75.6195 132.752 75.6195 132.752Z" fill="#1ED797"/>
<path d="M71.9684 132.752H131.213C131.213 132.752 121.868 125.631 125.438 100.602C129.008 75.5732 142.629 52.5647 130.199 29.0552H71.9684C71.9684 29.0552 77.258 37.2714 77.0817 51.9351C76.9054 66.5988 71.1728 80.0323 67.5592 96.3461C62.4471 119.436 71.9684 132.752 71.9684 132.752Z" fill="#44E5AD"/>
<path d="M117.599 36.0598C117.909 37.3308 118.406 38.5537 119.074 39.6919C120.384 41.8859 122.877 44.4628 127.452 44.9185C127.665 46.3537 127.94 49.0686 127.811 52.9991C127.694 56.5707 127.271 60.4325 126.554 64.4769C125.657 69.5361 124.295 74.8971 122.506 80.4103C118.304 93.3522 117.19 102.896 116.996 108.622C116.866 112.443 117.112 115.136 117.335 116.699C116.386 117.02 115.482 117.452 114.644 117.984C112.747 119.184 110.287 121.466 108.869 125.645H84.3871C84.0073 124.41 83.4536 123.229 82.7413 122.136C81.3516 120.022 78.7664 117.427 74.1808 116.537C74.053 115.337 73.8816 113.317 73.8355 110.824C73.7667 107.091 73.9744 101.499 75.353 96.0582C75.7425 94.5208 76.2567 92.6093 76.8514 90.3959C80.3864 77.245 86.1811 55.6893 84.4811 44.7077C86.8851 44.0088 90.9522 41.9734 93.5202 36.0551H117.598L117.599 36.0598ZM119.046 34.4014H92.3339C89.0716 43.1655 82.4599 43.4186 82.4599 43.4186C85.4573 54.964 76.4355 84.7683 73.6746 95.6671C70.9136 106.566 72.6166 117.971 72.6166 117.971C81.8443 118.982 83.0196 127.297 83.0196 127.297H110.174C112.466 118.645 119.313 117.915 119.313 117.915C119.313 117.915 116.14 105.611 124.163 80.8983C132.185 56.1855 128.923 43.3341 128.923 43.3341C119.842 43.3341 119.049 34.4014 119.049 34.4014H119.046Z" fill="#6DE2BB"/>
<path d="M100.203 69.7406C100.493 69.7406 100.787 69.75 101.078 69.7694C104.36 69.9814 107.427 71.4038 109.633 73.7365C111.839 76.0691 113.01 79.1296 112.901 82.2722C112.791 85.4148 111.408 88.3938 109.044 90.5805C106.681 92.7673 103.521 93.9908 100.231 93.993C99.9412 93.993 99.6464 93.9836 99.3558 93.9642C96.0737 93.7522 93.0062 92.3297 90.8004 89.997C88.5946 87.6643 87.4231 84.6037 87.533 81.4611C87.6429 78.3184 89.0256 75.3395 91.3895 73.1528C93.7534 70.9661 96.9134 69.7426 100.203 69.7406ZM100.203 68.0869C92.6875 68.0869 86.3529 73.6576 85.8356 80.9319C85.295 88.5245 91.296 95.0982 99.239 95.6132C99.572 95.6347 99.903 95.6455 100.232 95.6455C107.747 95.6455 114.082 90.0748 114.599 82.8011C115.14 75.2085 109.139 68.6348 101.196 68.1198C100.863 68.0983 100.532 68.0875 100.203 68.0875V68.0869Z" fill="#6DE2BB"/>
<path d="M105.393 46.0404C105.512 46.0404 105.631 46.0475 105.749 46.0615C106.464 46.1462 107.119 46.4883 107.579 47.0182C108.04 47.548 108.272 48.2257 108.228 48.9132C108.184 49.6007 107.867 50.2464 107.343 50.7187C106.818 51.191 106.125 51.4545 105.404 51.4553C105.285 51.4553 105.166 51.4483 105.048 51.4342C104.333 51.3495 103.678 51.0074 103.218 50.4776C102.757 49.9477 102.526 49.2701 102.569 48.5825C102.613 47.895 102.93 47.2493 103.454 46.777C103.979 46.3047 104.672 46.0413 105.393 46.0404H105.393ZM105.393 44.3867C104.206 44.3869 103.067 44.8284 102.215 45.6176C101.364 46.4069 100.867 47.482 100.83 48.6153C100.793 49.7486 101.219 50.8511 102.018 51.6895C102.816 52.5279 103.925 53.0362 105.109 53.107C106.293 53.1777 107.459 52.8052 108.36 52.0685C109.262 51.3317 109.828 50.2884 109.939 49.1595C110.05 48.0306 109.697 46.9048 108.955 46.0203C108.213 45.1358 107.14 44.5622 105.963 44.4208C105.774 44.3981 105.583 44.3867 105.393 44.3867Z" fill="#6DE2BB"/>
<path d="M95.6538 114.469C95.7728 114.469 95.8916 114.476 96.0096 114.491C96.7247 114.575 97.3792 114.917 97.8397 115.447C98.3002 115.977 98.5321 116.655 98.4882 117.342C98.4443 118.03 98.1278 118.675 97.6032 119.148C97.0787 119.62 96.3855 119.884 95.6649 119.884C95.5458 119.884 95.4268 119.877 95.3086 119.863C94.5934 119.779 93.9388 119.436 93.4783 118.907C93.0178 118.377 92.7859 117.699 92.83 117.011C92.874 116.324 93.1906 115.678 93.7152 115.206C94.2399 114.733 94.9332 114.47 95.6538 114.469ZM95.6538 112.816C94.4678 112.816 93.3284 113.257 92.4768 114.046C91.6253 114.836 91.1285 115.911 91.0916 117.044C91.0547 118.177 91.4806 119.279 92.2791 120.118C93.0777 120.956 94.1862 121.464 95.3699 121.535C96.5537 121.606 97.7197 121.233 98.6213 120.497C99.5228 119.76 100.089 118.717 100.2 117.588C100.311 116.459 99.9581 115.333 99.2159 114.449C98.4738 113.565 97.4008 112.991 96.224 112.85C96.0349 112.827 95.8444 112.816 95.6538 112.816Z" fill="#6DE2BB"/>
<path d="M108.966 83.1353L106.801 82.9944C106.695 84.1812 106.222 85.3851 105.634 86.0669L104.233 85.4796C104.892 84.6401 105.285 83.6372 105.364 82.5904C105.467 81.1363 104.659 80.0957 103.438 80.0164C102.259 79.9401 101.472 80.6912 100.723 82.1652C99.717 84.1988 98.6394 85.425 96.7754 85.3035C94.9969 85.186 93.7331 83.8941 93.5457 81.9861L91.3813 81.8451L91.4717 80.5755L93.55 80.7105C93.6803 79.4844 94.0827 78.6669 94.4894 78.0967L95.8674 78.701C95.326 79.4495 95.0104 80.3259 94.9551 81.2344C94.8427 82.8117 95.7863 83.4695 96.6433 83.5247C97.7578 83.5969 98.3685 82.8758 99.2667 81.144C100.317 79.0927 101.507 78.1002 103.414 78.2241C105.106 78.3339 106.612 79.5636 106.826 81.6971L109.054 81.8422L108.966 83.1353Z" fill="#6DE2BB"/>
<path d="M69.7533 132.752H128.998C128.998 132.752 119.653 125.631 123.223 100.602C126.793 75.5732 140.414 52.5647 127.983 29.0552H69.7533C69.7533 29.0552 75.0429 37.2714 74.8666 51.9351C74.6903 66.5988 68.9577 80.0323 65.3441 96.3461C60.2314 119.436 69.7533 132.752 69.7533 132.752Z" fill="#1ED797"/>
<path d="M66.1017 132.752H125.346C125.346 132.752 116.001 125.631 119.571 100.602C123.141 75.5732 136.763 52.5647 124.332 29.0552H66.1017C66.1017 29.0552 71.3895 37.2708 71.215 51.9345C71.0405 66.5983 65.3061 80.0317 61.6925 96.3456C56.5804 119.436 66.1017 132.752 66.1017 132.752Z" fill="#44E5AD"/>
<path d="M111.733 36.0599C112.043 37.331 112.539 38.5538 113.208 39.6921C114.517 41.886 117.01 44.4629 121.586 44.9186C121.799 46.3539 122.074 49.0687 121.945 52.9992C121.828 56.5709 121.405 60.4327 120.688 64.4771C119.791 69.5363 118.429 74.8973 116.639 80.4104C112.437 93.3523 111.323 102.896 111.129 108.623C111 112.443 111.245 115.136 111.468 116.699C110.519 117.02 109.616 117.452 108.777 117.985C106.88 119.184 104.42 121.466 103.002 125.645H78.5203C78.1404 124.41 77.5867 123.229 76.8744 122.136C75.4854 120.022 72.8995 117.427 68.3146 116.537C67.981 113.379 67.3433 104.513 69.4862 96.0584C69.8757 94.5209 70.3899 92.6094 70.9846 90.3966C74.5196 77.2457 80.3142 55.69 78.6143 44.7084C81.0183 44.0096 85.0853 41.9741 87.6533 36.0558H111.731L111.733 36.0599ZM113.179 34.4021H86.4676C83.2054 43.1663 76.5937 43.4194 76.5937 43.4194C79.5911 54.9648 70.5693 84.769 67.8084 95.6678C65.0474 106.567 66.7504 117.972 66.7504 117.972C75.9781 118.983 77.1534 127.298 77.1534 127.298H104.308C106.6 118.646 113.447 117.915 113.447 117.915C113.447 117.915 110.273 105.612 118.296 80.899C126.319 56.1862 123.058 43.3389 123.058 43.3389C113.977 43.3389 113.184 34.4062 113.184 34.4062L113.179 34.4021Z" fill="#6DE2BB"/>
<path d="M94.3383 69.7406C94.6283 69.7406 94.9226 69.75 95.2132 69.7694C98.4951 69.9814 101.563 71.4038 103.768 73.7365C105.974 76.0691 107.146 79.1296 107.036 82.2722C106.926 85.4148 105.543 88.3938 103.18 90.5805C100.816 92.7673 97.656 93.9908 94.3666 93.993C94.0766 93.993 93.7817 93.9836 93.4911 93.9642C90.2091 93.7522 87.1416 92.3298 84.9359 89.9971C82.7301 87.6645 81.5585 84.604 81.6683 81.4613C81.7782 78.3187 83.1608 75.3398 85.5245 73.1531C87.8883 70.9663 91.0482 69.7428 94.3377 69.7406H94.3383ZM94.3377 68.0869C86.8223 68.0869 80.4877 73.6576 79.9704 80.9319C79.4297 88.5245 85.4308 95.0982 93.3738 95.6132C93.7068 95.6347 94.0377 95.6455 94.3666 95.6455C101.882 95.6455 108.217 90.0748 108.734 82.8011C109.275 75.2085 103.274 68.6348 95.3299 68.1198C94.9969 68.0983 94.666 68.0875 94.3371 68.0875L94.3377 68.0869Z" fill="#6DE2BB"/>
<path d="M99.5271 46.0404C99.646 46.0404 99.7648 46.0475 99.8828 46.0615C100.598 46.1462 101.252 46.4883 101.713 47.0182C102.173 47.548 102.405 48.2257 102.361 48.9132C102.317 49.6007 102.001 50.2464 101.476 50.7187C100.952 51.191 100.259 51.4545 99.5381 51.4553C99.419 51.4553 99.3 51.4483 99.1818 51.4342C98.4666 51.3495 97.8121 51.0073 97.3515 50.4774C96.891 49.9476 96.6592 49.2698 96.7032 48.5822C96.7472 47.8947 97.0638 47.249 97.5884 46.7767C98.1131 46.3044 98.8064 46.0411 99.5271 46.0404ZM99.5271 44.3867C98.3408 44.3869 97.2013 44.8284 96.3496 45.6176C95.4979 46.4069 95.001 47.482 94.9641 48.6153C94.9272 49.7486 95.3532 50.8511 96.1518 51.6895C96.9505 52.5279 98.0591 53.0362 99.243 53.107C100.427 53.1777 101.593 52.8052 102.495 52.0685C103.396 51.3317 103.963 50.2884 104.074 49.1595C104.185 48.0306 103.832 46.9048 103.09 46.0203C102.347 45.1358 101.274 44.5622 100.097 44.4208C99.9081 44.3981 99.7177 44.3867 99.5271 44.3867Z" fill="#6DE2BB"/>
<path d="M89.7881 114.469C89.907 114.469 90.0258 114.476 90.1438 114.491C90.8589 114.575 91.5134 114.917 91.9739 115.447C92.4344 115.977 92.6663 116.655 92.6224 117.342C92.5784 118.03 92.262 118.675 91.7374 119.148C91.2129 119.62 90.5197 119.884 89.7991 119.884C89.68 119.884 89.561 119.877 89.4428 119.863C88.7276 119.779 88.0731 119.436 87.6126 118.907C87.1521 118.377 86.9202 117.699 86.9642 117.011C87.0082 116.324 87.3248 115.678 87.8495 115.206C88.3741 114.733 89.0674 114.47 89.7881 114.469ZM89.7881 112.816C88.602 112.816 87.4626 113.257 86.6111 114.046C85.7596 114.836 85.2627 115.911 85.2258 117.044C85.1889 118.177 85.6148 119.279 86.4134 120.118C87.2119 120.956 88.3204 121.464 89.5041 121.535C90.6879 121.606 91.8539 121.233 92.7554 120.497C93.657 119.76 94.2231 118.717 94.3341 117.588C94.4451 116.459 94.0922 115.333 93.3501 114.449C92.608 113.565 91.535 112.991 90.3582 112.85C90.1691 112.827 89.9787 112.816 89.7881 112.816Z" fill="#6DE2BB"/>
<path d="M103.099 83.1353L100.934 82.9944C100.828 84.1812 100.355 85.3851 99.7671 86.0669L98.3664 85.4796C99.0255 84.6401 99.4181 83.6372 99.4974 82.5904C99.6006 81.1363 98.7921 80.0957 97.5708 80.0164C96.3925 79.9401 95.6048 80.6912 94.8559 82.1652C93.8502 84.1988 92.7727 85.425 90.9087 85.3035C89.1301 85.186 87.8664 83.8941 87.679 81.9861L85.5146 81.8451L85.605 80.5755L87.6833 80.7105C87.8136 79.4844 88.216 78.6669 88.6227 78.0967L90.0007 78.701C89.4593 79.4495 89.1437 80.3259 89.0884 81.2344C88.9759 82.8117 89.9196 83.4695 90.7766 83.5247C91.8911 83.5969 92.5017 82.8758 93.3999 81.144C94.4499 79.0927 95.6399 78.1002 97.5468 78.2241C99.2394 78.3339 100.745 79.5636 100.959 81.6971L103.187 81.8422L103.099 83.1353Z" fill="#6DE2BB"/>
<path d="M63.8864 132.752H123.131C123.131 132.752 113.786 125.631 117.356 100.602C120.926 75.5732 134.547 52.5647 122.116 29.0552H63.8864C63.8864 29.0552 69.1778 37.2708 68.9997 51.9345C68.8215 66.5983 63.0908 80.0317 59.4771 96.3456C54.3651 119.436 63.8864 132.752 63.8864 132.752Z" fill="#1ED797"/>
<path d="M60.235 132.752H119.479C119.479 132.752 110.134 125.631 113.704 100.602C117.274 75.5732 130.896 52.5647 118.465 29.0552H60.235C60.235 29.0552 65.5246 37.2714 65.3483 51.9351C65.172 66.5988 59.4394 80.0323 55.8258 96.3461C50.7137 119.436 60.235 132.752 60.235 132.752Z" fill="#44E5AD"/>
<path d="M105.866 36.0599C106.176 37.331 106.673 38.5538 107.341 39.6921C108.651 41.886 111.144 44.4629 115.719 44.9186C115.932 46.3539 116.207 49.0687 116.078 52.9992C115.961 56.5709 115.538 60.4327 114.821 64.4771C113.924 69.5363 112.562 74.8973 110.773 80.4104C106.571 93.3523 105.457 102.896 105.263 108.623C105.133 112.443 105.379 115.136 105.602 116.699C104.653 117.02 103.749 117.452 102.911 117.985C101.014 119.184 98.5537 121.466 97.1364 125.645H72.6554C72.2756 124.41 71.7219 123.229 71.0096 122.136C69.6199 120.022 67.0347 117.427 62.4491 116.537C62.3213 115.337 62.1499 113.317 62.1038 110.824C62.035 107.091 62.2427 101.499 63.6213 96.0584C64.0108 94.5209 64.525 92.6094 65.1197 90.3966C68.6547 77.2457 74.4494 55.69 72.7494 44.7084C75.1534 44.0096 79.2205 41.9741 81.7885 36.0558H105.866V36.0599ZM107.314 34.4021H80.6009C77.3387 43.1663 70.727 43.4194 70.727 43.4194C73.7244 54.9648 64.7026 84.769 61.9417 95.6678C59.1807 106.567 60.8837 117.972 60.8837 117.972C70.1114 118.983 71.2867 127.298 71.2867 127.298H98.4413C100.733 118.646 107.58 117.915 107.58 117.915C107.58 117.915 104.404 105.616 112.429 80.9037C120.454 56.1915 117.19 43.3395 117.19 43.3395C108.109 43.3395 107.316 34.4068 107.316 34.4068L107.314 34.4021Z" fill="#B7F5E0"/>
<path d="M88.4718 69.7406C88.7618 69.7406 89.0561 69.75 89.3467 69.7694C92.6287 69.9814 95.6962 71.4038 97.9019 73.7365C100.108 76.0691 101.279 79.1296 101.169 82.2722C101.06 85.4148 99.677 88.3938 97.3133 90.5805C94.9495 92.7673 91.7896 93.9908 88.5001 93.993C88.2101 93.993 87.9152 93.9836 87.6246 93.9642C84.3426 93.7522 81.2751 92.3298 79.0693 89.9971C76.8635 87.6645 75.6919 84.604 75.8018 81.4613C75.9116 78.3187 77.2942 75.3398 79.658 73.1531C82.0217 70.9663 85.1817 69.7428 88.4712 69.7406H88.4718ZM88.4712 68.0869C80.9557 68.0869 74.6211 73.6576 74.1032 80.9319C73.5625 88.5245 79.5636 95.0982 87.5066 95.6132C87.8396 95.6347 88.1706 95.6455 88.4994 95.6455C96.0149 95.6455 102.35 90.0748 102.867 82.8011C103.407 75.2085 97.4064 68.6348 89.4628 68.1198C89.1298 68.0983 88.7988 68.0875 88.47 68.0875L88.4712 68.0869Z" fill="#B7F5E0"/>
<path d="M93.66 46.0404C93.7789 46.0404 93.8977 46.0475 94.0157 46.0615C94.7309 46.1462 95.3853 46.4883 95.8458 47.0182C96.3064 47.548 96.5383 48.2257 96.4943 48.9132C96.4504 49.6007 96.1339 50.2464 95.6094 50.7187C95.0848 51.191 94.3917 51.4545 93.671 51.4553C93.5519 51.4553 93.4329 51.4483 93.3147 51.4342C92.5996 51.3495 91.9451 51.0074 91.4846 50.4776C91.0241 49.9477 90.7922 49.2701 90.8361 48.5825C90.88 47.895 91.1965 47.2493 91.721 46.777C92.2456 46.3047 92.9388 46.0413 93.6594 46.0404H93.66ZM93.6594 44.3867C92.4732 44.3869 91.3336 44.8284 90.4819 45.6176C89.6303 46.4069 89.1334 47.482 89.0965 48.6153C89.0595 49.7486 89.4855 50.8511 90.2842 51.6895C91.0828 52.5279 92.1915 53.0362 93.3754 53.107C94.5593 53.1777 95.7255 52.8052 96.6272 52.0685C97.5288 51.3317 98.0951 50.2884 98.2061 49.1595C98.3171 48.0306 97.9641 46.9048 97.2219 46.0203C96.4797 45.1358 95.4065 44.5622 94.2295 44.4208C94.0404 44.3981 93.85 44.3867 93.6594 44.3867Z" fill="#B7F5E0"/>
<path d="M83.9228 114.469C84.0417 114.469 84.1605 114.476 84.2785 114.491C84.9937 114.575 85.6482 114.917 86.1087 115.447C86.5692 115.977 86.8011 116.655 86.7571 117.342C86.7132 118.03 86.3967 118.675 85.8722 119.148C85.3477 119.62 84.6545 119.884 83.9339 119.884C83.8148 119.884 83.6958 119.877 83.5776 119.863C82.8624 119.779 82.2078 119.436 81.7473 118.907C81.2868 118.377 81.055 117.699 81.099 117.011C81.143 116.324 81.4596 115.678 81.9842 115.206C82.5089 114.733 83.2022 114.47 83.9228 114.469ZM83.9228 112.816C82.7368 112.816 81.5974 113.257 80.7458 114.046C79.8943 114.836 79.3975 115.911 79.3606 117.044C79.3237 118.177 79.7496 119.279 80.5481 120.118C81.3467 120.956 82.4552 121.464 83.6389 121.535C84.8226 121.606 85.9887 121.233 86.8902 120.497C87.7917 119.76 88.3579 118.717 88.4689 117.588C88.5799 116.459 88.227 115.333 87.4849 114.449C86.7428 113.565 85.6697 112.991 84.493 112.85C84.3038 112.827 84.1134 112.816 83.9228 112.816Z" fill="#B7F5E0"/>
<path d="M97.2326 83.1353L95.0682 82.9944C94.962 84.1812 94.4889 85.3851 93.901 86.0669L92.5002 85.4796C93.1593 84.6401 93.5519 83.6372 93.6313 82.5904C93.7345 81.1363 92.926 80.0957 91.7046 80.0164C90.5263 79.9401 89.7387 80.6912 88.9898 82.1652C87.9841 84.1988 86.9065 85.425 85.0425 85.3035C83.2639 85.186 82.0002 83.8941 81.8128 81.9861L79.6484 81.8451L79.7387 80.5755L81.8171 80.7105C81.9474 79.4844 82.3498 78.6669 82.7565 78.0967L84.1345 78.701C83.5931 79.4495 83.2775 80.3259 83.2222 81.2344C83.1097 82.8117 84.0534 83.4695 84.9104 83.5247C86.0249 83.5969 86.6355 82.8758 87.5337 81.144C88.5837 79.0927 89.7737 78.1002 91.6807 78.2241C93.3732 78.3339 94.879 79.5636 95.0928 81.6971L97.3211 81.8422L97.2326 83.1353Z" fill="#B7F5E0"/>
<path d="M187.423 147.94V153.672C187.423 155.061 178.548 156.186 167.598 156.186C156.648 156.186 147.773 155.06 147.773 153.672V147.94H187.423Z" fill="#FFC775"/>
<path d="M167.598 150.455C178.547 150.455 187.423 149.329 187.423 147.94C187.423 146.552 178.547 145.426 167.598 145.426C156.649 145.426 147.773 146.552 147.773 147.94C147.773 149.329 156.649 150.455 167.598 150.455Z" fill="#FFC67B"/>
<path d="M167.598 149.904C176.878 149.904 184.401 149.025 184.401 147.941C184.401 146.856 176.878 145.977 167.598 145.977C158.318 145.977 150.795 146.856 150.795 147.941C150.795 149.025 158.318 149.904 167.598 149.904Z" fill="#FF9350"/>
<path d="M186.459 149.531C186.472 150.853 186.486 152.176 186.499 153.498C182.316 154.626 177.989 155.196 173.642 155.191L173.562 151.262C177.93 151.352 182.285 150.767 186.459 149.531Z" fill="#F19A6A"/>
<path d="M157.858 151.102V154.992C156.224 154.897 154.596 154.721 152.981 154.464C152.07 154.318 151.199 154.152 150.363 153.972V150.047C151.191 150.242 152.064 150.42 152.981 150.576C154.594 150.845 156.223 151.02 157.858 151.102Z" fill="url(#paint0_linear_0_1)"/>
<path d="M191.352 141.649L191.017 147.372C190.936 148.759 182.01 149.41 171.077 148.827C160.145 148.244 151.349 146.648 151.429 145.261L151.763 139.538L191.352 141.649Z" fill="#FFC775"/>
<path d="M191.341 141.639C191.422 140.252 182.626 138.656 171.694 138.073C160.762 137.491 151.834 138.143 151.753 139.53C151.672 140.916 160.469 142.512 171.401 143.095C182.333 143.677 191.26 143.025 191.341 141.639Z" fill="#FFC67B"/>
<path d="M188.324 141.478C188.388 140.395 180.928 139.118 171.662 138.624C162.397 138.13 154.834 138.608 154.771 139.69C154.708 140.773 162.168 142.051 171.433 142.544C180.699 143.038 188.261 142.56 188.324 141.478Z" fill="#FF9350"/>
<path d="M190.293 143.186L190.102 147.149C185.861 148.053 181.508 148.392 177.169 148.157L177.318 144.23C181.674 144.551 186.055 144.198 190.293 143.186Z" fill="#F19A6A"/>
<path d="M161.648 143.232L161.421 147.116C159.795 146.933 158.18 146.668 156.583 146.324C155.681 146.13 154.819 145.918 153.998 145.693L154.227 141.775C155.042 142.013 155.903 142.237 156.807 142.439C158.403 142.796 160.019 143.061 161.648 143.232Z" fill="url(#paint1_linear_0_1)"/>
<path d="M182.564 133.733V139.465C182.564 140.854 173.689 141.979 162.739 141.979C151.789 141.979 142.914 140.853 142.914 139.465V133.733H182.564Z" fill="#FFC775"/>
<path d="M162.739 136.248C173.688 136.248 182.564 135.122 182.564 133.734C182.564 132.345 173.688 131.219 162.739 131.219C151.79 131.219 142.915 132.345 142.915 133.734C142.915 135.122 151.79 136.248 162.739 136.248Z" fill="#FFC67B"/>
<path d="M162.739 135.697C172.019 135.697 179.542 134.818 179.542 133.734C179.542 132.649 172.019 131.771 162.739 131.771C153.459 131.771 145.937 132.649 145.937 133.734C145.937 134.818 153.459 135.697 162.739 135.697Z" fill="#FF9350"/>
<path d="M181.597 135.323C181.611 136.646 181.624 137.968 181.638 139.291C177.455 140.42 173.13 140.99 168.784 140.986L168.703 137.057C173.071 137.146 177.425 136.561 181.597 135.324V135.323Z" fill="#F19A6A"/>
<path d="M152.998 136.895V140.785C151.364 140.69 149.736 140.514 148.121 140.257C147.21 140.111 146.34 139.946 145.503 139.765V135.841C146.332 136.035 147.204 136.213 148.121 136.369C149.734 136.638 151.363 136.813 152.998 136.895Z" fill="url(#paint2_linear_0_1)"/>
<path d="M190.325 125.106V130.838C190.325 132.227 181.45 133.352 170.5 133.352C159.551 133.352 150.676 132.226 150.676 130.838V125.106H190.325Z" fill="#FFC775"/>
<path d="M170.501 127.621C181.45 127.621 190.326 126.495 190.326 125.106C190.326 123.717 181.45 122.592 170.501 122.592C159.552 122.592 150.676 123.717 150.676 125.106C150.676 126.495 159.552 127.621 170.501 127.621Z" fill="#FFC67B"/>
<path d="M170.5 127.069C179.78 127.069 187.303 126.19 187.303 125.106C187.303 124.022 179.78 123.143 170.5 123.143C161.221 123.143 153.698 124.022 153.698 125.106C153.698 126.19 161.221 127.069 170.5 127.069Z" fill="#FF9350"/>
<path d="M189.359 126.696C189.372 128.019 189.386 129.341 189.399 130.664C185.217 131.792 180.891 132.363 176.545 132.358L176.464 128.43C180.832 128.519 185.186 127.933 189.359 126.697V126.696Z" fill="#F19A6A"/>
<path d="M160.76 128.267V132.158C159.126 132.063 157.498 131.886 155.883 131.629C154.972 131.484 154.101 131.318 153.265 131.137V127.213C154.093 127.408 154.966 127.586 155.883 127.742C157.496 128.011 159.125 128.186 160.76 128.267Z" fill="url(#paint3_linear_0_1)"/>
<path d="M185.153 119.726V125.458C185.153 126.847 176.278 127.972 165.328 127.972C154.378 127.972 145.503 126.846 145.503 125.458V119.726H185.153Z" fill="#FFC775"/>
<path d="M165.329 122.24C176.278 122.24 185.153 121.114 185.153 119.726C185.153 118.337 176.278 117.211 165.329 117.211C154.38 117.211 145.504 118.337 145.504 119.726C145.504 121.114 154.38 122.24 165.329 122.24Z" fill="#FFC67B"/>
<path d="M165.329 121.689C174.609 121.689 182.132 120.81 182.132 119.726C182.132 118.642 174.609 117.763 165.329 117.763C156.049 117.763 148.526 118.642 148.526 119.726C148.526 120.81 156.049 121.689 165.329 121.689Z" fill="#FF9350"/>
<path d="M184.186 121.316C184.199 122.639 184.213 123.961 184.226 125.283C180.044 126.412 175.718 126.982 171.372 126.978L171.292 123.05C175.659 123.138 180.013 122.553 184.186 121.316Z" fill="#F19A6A"/>
<path d="M155.587 122.887V126.778C153.953 126.682 152.325 126.506 150.711 126.249C149.799 126.103 148.929 125.938 148.093 125.757V121.833C148.921 122.027 149.793 122.205 150.711 122.362C152.324 122.63 153.952 122.806 155.587 122.887Z" fill="url(#paint4_linear_0_1)"/>
<path d="M191.216 110.99V116.722C191.216 118.111 182.341 119.236 171.391 119.236C160.442 119.236 151.563 118.11 151.563 116.722V110.99H191.216Z" fill="#FFC775"/>
<path d="M171.391 113.505C182.34 113.505 191.216 112.379 191.216 110.991C191.216 109.602 182.34 108.476 171.391 108.476C160.442 108.476 151.566 109.602 151.566 110.991C151.566 112.379 160.442 113.505 171.391 113.505Z" fill="#FFC67B"/>
<path d="M171.391 112.953C180.671 112.953 188.194 112.074 188.194 110.99C188.194 109.906 180.671 109.027 171.391 109.027C162.111 109.027 154.588 109.906 154.588 110.99C154.588 112.074 162.111 112.953 171.391 112.953Z" fill="#FF9350"/>
<path d="M190.249 112.58C190.263 113.903 190.276 115.225 190.29 116.548C186.107 117.676 181.781 118.247 177.435 118.243C177.408 116.933 177.382 115.623 177.355 114.314C181.723 114.403 186.077 113.818 190.249 112.581V112.58Z" fill="#F19A6A"/>
<path d="M161.651 114.152V118.042C160.017 117.947 158.389 117.771 156.774 117.514C155.863 117.368 154.992 117.202 154.156 117.022V113.098C154.984 113.292 155.857 113.47 156.774 113.626C158.387 113.895 160.016 114.07 161.651 114.152Z" fill="url(#paint5_linear_0_1)"/>
<path d="M48.0663 156.908L38.8854 155.213C38.8854 155.213 38.0959 153.041 39.8389 150.154C39.94 149.985 40.0524 149.822 40.1755 149.666C41.8441 147.583 43.4144 150.387 43.4144 150.387C43.4144 150.387 44.7764 152.987 47.0932 154.337C47.957 154.84 48.312 155.326 48.4171 155.736C48.5965 156.424 48.0663 156.908 48.0663 156.908Z" fill="#8978F7"/>
<path d="M48.0663 156.908L38.8854 155.214C38.8854 155.214 38.0959 153.041 39.8389 150.155C39.94 149.985 40.0524 149.822 40.1755 149.667L41.7765 151.094C41.7765 151.094 40.9662 154.424 44.9712 155.129L48.4184 155.736C48.5965 156.425 48.0663 156.908 48.0663 156.908Z" fill="#634DF4"/>
<path d="M61.0299 158.325H50.9311C50.9311 158.325 49.6274 156.174 50.8586 152.771C50.9605 152.479 51.0947 152.197 51.2592 151.932C52.596 149.843 54.6996 152.318 54.6996 152.318C54.6996 152.318 56.7011 154.81 59.4479 155.789C60.4579 156.149 60.939 156.587 61.1435 156.998C61.4943 157.703 61.0299 158.325 61.0299 158.325Z" fill="#8978F7"/>
<path d="M61.0299 158.325H50.9311C50.9311 158.325 49.6274 156.174 50.8586 152.771C50.9605 152.478 51.0948 152.197 51.2592 151.931L52.9179 152.614C52.9179 152.614 51.2985 158.618 61.1466 156.998C61.4944 157.703 61.0299 158.325 61.0299 158.325Z" fill="#634DF4"/>
<path d="M39.4276 131.437C29.0376 137.23 5.5949 138.403 0.664678 119.654C0.59628 119.392 0.531158 119.127 0.469313 118.857C-2.43476 106.135 11.2679 99.546 11.4547 88.6883C11.6414 77.8305 17.218 68.3182 28.567 70.3824C40.4376 72.5411 40.7245 78.1048 40.7245 78.1048L40.8388 78.8606L46.1069 113.874C46.1069 113.874 49.962 125.563 39.4276 131.437Z" fill="#A39CD3"/>
<path d="M39.4275 131.437C29.0374 137.23 5.59477 138.403 0.664551 119.654C8.309 136.114 32.0294 124.463 26.1641 115.34C21.8918 108.694 17.9059 103.498 29.1437 104.593C37.5776 105.415 27.7467 88.333 29.2359 82.905C30.7251 77.477 36.3446 77.1094 36.3446 77.1094L40.838 78.86L46.1061 113.873C46.1061 113.873 49.9618 125.563 39.4275 131.437Z" fill="#7267BB"/>
<path d="M49.16 133.185C49.16 133.185 47.7925 138.733 46.1061 144.062C45.2521 146.754 44.3183 149.39 43.4385 151.226C43.3247 151.462 43.1303 151.654 42.8874 151.77C42.6444 151.886 42.3673 151.92 42.1017 151.866L40.696 151.582C40.4052 151.524 40.1475 151.364 39.9727 151.135C39.7978 150.905 39.7185 150.622 39.7499 150.339C40.1462 146.771 41.4388 134.597 41.7773 124.571C41.8682 121.841 41.8903 119.27 41.8031 117.076C48.3227 119.213 49.16 133.185 49.16 133.185Z" fill="#000E94"/>
<path d="M46.1055 144.056C46.2665 137.451 43.1424 128.256 41.7773 124.572C41.8683 121.841 41.8904 119.271 41.8031 117.077C48.3221 119.213 49.1595 133.185 49.1595 133.185C49.1595 133.185 47.7919 138.734 46.1055 144.062V144.056Z" fill="#14182D"/>
<path d="M55.1576 152.055C55.1648 152.21 55.1391 152.364 55.0821 152.509C55.025 152.654 54.9378 152.787 54.8258 152.898C54.7137 153.01 54.579 153.099 54.4299 153.16C54.2808 153.221 54.1204 153.252 53.9583 153.252H51.8327C51.5159 153.252 51.2118 153.133 50.9869 152.919C50.762 152.706 50.6345 152.416 50.6322 152.114C50.6107 148.733 50.0922 138.321 44.9703 127.578C42.5571 122.517 40.6452 118.614 39.3059 115.339C37.1827 110.15 36.4952 106.539 37.5243 102.393C39.2002 95.6297 49.7199 100.792 49.7199 100.792C49.7199 100.792 50.1868 102.356 50.8171 105.299C51.7251 109.552 52.9674 116.688 53.6303 126.153C54.5297 139.077 55.0077 148.786 55.1576 152.055Z" fill="#000E94"/>
<path d="M50.8153 105.3C49.5651 105.558 47.0634 103.483 43.5954 105.864C39.9135 108.393 39.3059 115.34 39.3059 115.34C37.1827 110.151 36.4952 106.54 37.5243 102.393C39.2002 95.6302 49.7199 100.792 49.7199 100.792C49.7199 100.792 50.1856 102.355 50.8153 105.3Z" fill="#14182D"/>
<path d="M19.599 98.1237L19.7508 97.264C19.1696 97.1519 18.6136 96.8982 18.3169 96.6315L18.7144 95.8388C19.109 96.1578 19.584 96.3728 20.0923 96.4624C20.6766 96.557 21.1238 96.345 21.1982 95.921C21.2688 95.5222 20.9893 95.2127 20.3455 94.8639C19.4313 94.37 18.8753 93.8427 19.0215 93.0182C19.1561 92.2548 19.8159 91.7603 20.781 91.7521L20.9346 90.8835L21.6952 91.0063L21.5496 91.8284C21.9931 91.9048 22.4129 92.0754 22.7783 92.3276L22.3839 93.1028C22.1787 92.9695 21.8064 92.6993 21.1754 92.5977C20.5261 92.4932 20.2379 92.7739 20.1845 93.0763C20.1231 93.4398 20.4179 93.6976 21.1533 94.1263C22.1264 94.6666 22.5049 95.2198 22.366 96.0091C22.2327 96.7625 21.5674 97.3392 20.5199 97.3339L20.3584 98.2471L19.599 98.1237Z" fill="#F9D679"/>
<path d="M16.9519 100.23C15.7428 99.53 14.778 98.5027 14.1796 97.2784C13.5813 96.054 13.3762 94.6875 13.5903 93.3517C13.8044 92.0159 14.428 90.7708 15.3824 89.7738C16.3368 88.7768 17.5791 88.0728 18.9521 87.7506C20.3251 87.4285 21.7672 87.5028 23.096 87.9642C24.4249 88.4255 25.5807 89.2531 26.4175 90.3424C27.2543 91.4316 27.7343 92.7336 27.7969 94.0837C27.8596 95.4337 27.502 96.7712 26.7694 97.927C25.7856 99.4753 24.1994 100.587 22.3589 101.019C20.5184 101.451 18.5739 101.167 16.9519 100.23ZM23.8156 89.4007C22.784 88.8033 21.5902 88.5117 20.3852 88.5628C19.1803 88.6139 18.0182 89.0054 17.046 89.6878C16.0739 90.3703 15.3353 91.313 14.9236 92.3967C14.5119 93.4804 14.4457 94.6565 14.7334 95.7761C15.021 96.8958 15.6495 97.9088 16.5395 98.687C17.4294 99.4652 18.5408 99.9737 19.733 100.148C20.9253 100.323 22.1449 100.155 23.2376 99.6669C24.3303 99.1787 25.247 98.3918 25.8718 97.4056C26.7075 96.0829 26.9603 94.4974 26.5748 92.9968C26.1894 91.4962 25.1971 90.203 23.8156 89.4007Z" fill="#F9D679"/>
<path d="M44.1789 77.8319C44.1789 78.2771 41.8057 79.3 41.8057 79.3L39.8736 77.1642C39.8736 77.1642 39.6702 75.4107 39.5381 74.0036C39.4663 73.229 39.4153 72.5607 39.4319 72.3446C39.4785 71.7362 42.9226 73.3829 42.9226 73.3829C42.9226 73.3829 44.0155 76.8659 44.1629 77.6957C44.1719 77.7406 44.1773 77.7862 44.1789 77.8319Z" fill="#FCA69D"/>
<path d="M44.163 77.6955L43.5959 77.8318C43.5959 77.8318 42.4846 75.5386 39.5381 74.0041C39.4663 73.2295 39.4153 72.5612 39.4319 72.3451C39.4785 71.7367 42.9226 73.3834 42.9226 73.3834C42.9226 73.3834 44.0149 76.8658 44.163 77.6955Z" fill="#E57673"/>
<path d="M46.553 74.7172C44.8328 75.4741 40.5489 73.0728 40.5489 73.0728C40.3872 73.1398 40.2128 73.1744 40.0366 73.1744C39.6458 73.1797 39.0905 73.0335 38.5787 72.3458C38.014 71.5774 37.5503 70.7455 37.1982 69.8688L37.6633 68.4441L42.6445 65.5078L46.5549 67.2426C46.5549 67.2426 46.8405 68.3584 47.0629 69.7314C47.3849 71.728 47.5741 74.2679 46.553 74.7172Z" fill="#FCA69D"/>
<path d="M47.0613 69.73C45.4406 70.4347 41.7587 68.1174 40.9908 68.643C40.3924 69.0541 40.3764 70.8017 40.3764 70.8017C40.3764 70.8017 38.6427 69.8404 38.5948 71.1347C38.5457 72.4096 39.9894 73.149 40.0361 73.1725C39.6454 73.1778 39.09 73.0315 38.5782 72.3439C38.0135 71.5755 37.5498 70.7435 37.1978 69.8668L37.6628 68.4421L42.644 65.5059L46.5544 67.2406C46.5544 67.2406 46.8389 68.3564 47.0613 69.73Z" fill="#EA847D"/>
<path d="M52.7287 65.2242C48.5081 70.7443 41.2458 66.7076 40.3771 67.6566C39.5084 68.6056 40.3771 70.8013 40.3771 70.8013C40.3771 70.8013 39.3222 69.4964 38.3915 69.9116C37.4607 70.3268 38.5758 72.344 38.5758 72.344C37.997 71.8551 37.4522 71.3308 36.9447 70.7743C36.2032 69.9521 35.5065 68.9697 35.5968 68.2491C35.7811 66.7657 37.3975 66.8838 37.3975 66.8838C37.3975 66.8838 36.5288 65.2224 37.0252 63.5617C37.5216 61.9009 45.2182 62.4365 45.2182 62.4365C45.2182 62.4365 38.018 56.5053 45.2182 53.8932C47.0201 53.2402 48.6537 53.2778 50.0268 53.7881C54.1374 55.3179 55.8939 61.0882 52.7287 65.2242Z" fill="#6A3442"/>
<path d="M52.1389 103.016C51.6474 103.555 49.6624 101.904 46.3074 101.916C45.2267 101.918 44.0035 102.095 42.6427 102.571C37.0563 104.529 34.7758 103.105 36.3148 97.0542C36.657 95.7035 36.3062 94.1027 35.7109 92.3844C33.6399 86.3979 28.6205 78.9809 39.7177 75.7551C39.7177 75.7551 42.1789 78.1429 43.9949 76.9884C46.1827 77.4775 49.3485 80.6816 49.4412 83.5292C49.472 84.4688 49.4412 85.6938 49.4314 87.0592C49.4185 88.7328 49.4314 90.6132 49.6268 92.4173C49.7527 93.6082 49.9567 94.7663 50.2798 95.8104C51.4846 99.7239 52.7907 102.305 52.1389 103.016Z" fill="#8978F7"/>
<path d="M46.3069 101.916C45.2263 101.919 44.0031 102.095 42.6423 102.572C37.0559 104.53 34.7754 103.106 36.3144 97.0545C36.6566 95.7038 36.3058 94.1029 35.7104 92.3846L41.6765 82.9058C41.6765 82.9058 42.4248 87.8874 44.1641 88.689C45.9033 89.4906 49.1103 89.9663 49.431 87.0582C49.4181 88.7319 49.431 90.6123 49.6263 92.4163L42.5415 96.0638C42.5415 96.0638 38.644 101.882 46.3069 101.916Z" fill="#634DF4"/>
<path d="M62.6042 97.5276C61.7711 97.7167 60.6026 97.7126 59.3696 97.7355C56.1423 97.7942 56.8863 102.6 55.5833 100.82C54.2802 99.0409 55.5833 95.7776 55.1588 94.7716C54.7342 93.7657 54.529 91.7449 54.529 91.7449C53.8532 87.3993 52.2332 86.9994 48.136 84.5969C44.0389 82.1945 39.9429 81.7493 35.5908 77.5752C36.7311 75.4475 39.7162 75.7547 39.7162 75.7547C39.7162 75.7547 44.3196 79.344 47.3195 80.3529C53.4183 82.4035 56.1436 87.7687 57.7563 90.426C59.369 93.0833 60.3009 90.5569 62.8462 94.1762C64.4177 96.4136 63.9521 97.2228 62.6042 97.5276Z" fill="#A39CD3"/>
<path d="M62.6042 97.5276C61.7711 97.7167 60.6026 97.7126 59.3696 97.7355C56.1424 97.7942 56.8863 102.6 55.5833 100.82C54.2802 99.0409 55.5833 95.7776 55.1588 94.7716C54.7343 93.7657 54.5291 91.7449 54.5291 91.7449C53.8533 87.3993 52.2332 86.9994 48.136 84.5969C44.0389 82.1945 39.9429 81.7493 35.5908 77.5752C36.7311 75.4475 39.7162 75.7547 39.7162 75.7547C39.7162 75.7547 38.7646 76.7048 41.8051 79.3005C44.8455 81.8961 47.6378 82.6073 49.624 83.7348C51.6102 84.8624 54.9007 87.7757 55.2761 90.1417C55.6515 92.5078 56.9017 98.0908 62.6042 97.5276Z" fill="#7267BB"/>
<path d="M58.8572 90.762C58.8314 91.1666 58.6833 91.5254 58.3792 91.7151C57.3864 92.3382 55.4616 92.1303 55.4616 92.1303L55.2773 90.4273C55.5254 90.0918 55.8033 89.7774 56.1079 89.4877C56.5435 89.0766 57.0909 88.6902 57.6045 88.6902C58.3552 88.6884 58.9149 89.8447 58.8572 90.762Z" fill="#FCA69D"/>
<path d="M58.8571 90.7619C58.8313 91.1666 58.6833 91.5254 58.3792 91.7151C57.3864 92.3382 55.4616 92.1303 55.4616 92.1303L55.2773 90.4272C55.5254 90.0917 55.8033 89.7773 56.1079 89.4875C56.146 90.0378 56.3457 91.5495 57.4024 91.4719C58.6925 91.3762 58.8565 90.7625 58.8565 90.7625L58.8571 90.7619Z" fill="#EA847D"/>
<path d="M36.686 76.9268C36.686 76.9268 41.1192 77.1493 41.8036 83.8564L42.488 90.5604C42.488 90.5604 47.3912 89.5427 50.2461 89.5768C52.0094 89.6007 53.7702 89.7111 55.5216 89.9074C55.5216 89.9074 56.6582 92.2212 55.1591 92.8736C53.6601 93.5261 42.9844 96.965 39.0132 95.8375C35.042 94.71 25.1122 79.4355 36.686 76.9268Z" fill="#8978F7"/>
<path d="M52.7283 65.2241C48.5077 70.7443 41.2453 66.7075 40.3766 67.6565C39.5079 68.6055 40.3766 70.8013 40.3766 70.8013C40.3766 70.8013 39.3218 69.4964 38.391 69.9116C37.4603 70.3268 38.5753 72.344 38.5753 72.344C37.9966 71.8551 37.4517 71.3308 36.9442 70.7743C36.3077 68.7899 38.9483 68.5474 38.9483 68.5474C38.9483 68.5474 37.7687 66.7087 38.9483 65.7597C40.1278 64.8107 47.2028 67.717 50.4312 63.6832C53.6597 59.6494 50.0264 53.7886 50.0264 53.7886C54.137 55.3178 55.8935 61.0881 52.7283 65.2241Z" fill="#3D2042"/>
<path d="M157.093 113.044C155.71 113.278 153.447 112.567 152.262 111.465C151.639 110.886 151.315 110.2 151.572 109.486C152.254 108.032 155.978 110.88 155.978 110.88C155.978 110.88 155.11 109.752 155.823 109.455C156.11 109.338 156.441 109.648 156.737 110.064C157.174 110.683 157.53 111.532 157.53 111.532C157.53 111.532 159.205 112.687 157.093 113.044Z" fill="#FFB7A8"/>
<path d="M157.092 113.044C155.71 113.278 153.446 112.567 152.261 111.466C152.346 111.517 154.083 112.537 155.486 111.961C156.367 111.598 156.653 110.524 156.733 110.062C157.171 110.68 157.527 111.53 157.527 111.53C157.527 111.53 159.205 112.687 157.092 113.044Z" fill="#EA847D"/>
<path d="M214.785 153.623C214.847 154.869 210.564 156.47 210.564 156.47C210.564 156.47 203.722 156.975 204.156 155.966C204.241 155.77 204.483 155.567 204.818 155.362C206.207 154.514 209.207 153.633 209.314 153.059C209.448 152.348 210.13 150.181 210.13 150.181L210.91 149.847L212.486 149.174C212.486 149.174 214.724 152.377 214.785 153.623Z" fill="#8978F7"/>
<path d="M214.785 153.623C214.847 154.869 210.564 156.471 210.564 156.471C210.564 156.471 203.722 156.975 204.156 155.966C204.241 155.77 204.483 155.567 204.818 155.362C204.934 156.496 209.418 155.483 211.441 153.717C211.809 151.917 210.937 149.9 210.913 149.846L212.489 149.173C212.489 149.173 214.724 152.377 214.785 153.623Z" fill="#634DF4"/>
<path d="M197.314 152.051V155.74C197.314 156.005 197.207 156.26 197.015 156.45C196.823 156.641 196.561 156.754 196.284 156.764C193.566 156.865 186.403 157.076 186.329 156.5C186.313 156.383 186.499 156.189 186.82 155.949C188.439 154.734 193.497 152.317 193.497 152.317L195.34 152.189L197.314 152.051Z" fill="#8978F7"/>
<path d="M197.314 152.051V155.74C197.314 156.005 197.207 156.26 197.015 156.45C196.823 156.641 196.561 156.754 196.284 156.764C193.566 156.865 186.403 157.076 186.329 156.5C186.313 156.383 186.499 156.189 186.82 155.949C187.487 156.196 188.866 156.437 191.169 155.699C192.077 155.415 192.915 154.958 193.632 154.354C194.348 153.751 194.929 153.014 195.337 152.189L197.314 152.051Z" fill="#634DF4"/>
<path d="M210.928 104.434C210.091 110.227 203.446 115.322 194.567 115.743C187.392 102.467 181.086 99.3342 176.552 99.0417C173.124 98.8204 169.518 100.14 166.845 98.3887C166.705 98.2974 166.569 98.1994 166.438 98.0951C163.965 96.0984 163.93 92.2507 164.242 89.4536C164.242 89.4536 161.612 89.759 160.914 87.979C160.215 86.1991 161.193 85.7539 161.193 85.7539C161.193 85.7539 161.008 76.6767 169.386 77.1213C177.763 77.5658 171.714 83.9734 184.839 79.9683C187.845 79.0516 189.693 79.1802 190.903 79.9383C194.66 82.2938 192.462 87.8598 196.74 91.5895C200.42 94.7988 204.423 92.1873 208.116 95.7208C208.871 96.4501 209.487 97.2991 209.938 98.2302C210.963 100.314 211.187 102.649 210.928 104.434Z" fill="#6A3442"/>
<path d="M210.928 104.434C210.091 110.226 203.446 115.322 194.567 115.742C187.392 102.466 181.086 99.334 176.553 99.0416C173.124 98.8202 169.519 100.14 166.846 98.3885C167.281 97.7385 167.633 96.8905 167.555 95.8968C167.37 93.5243 165.135 90.6116 165.135 90.6116H172.292C172.292 90.6116 172.89 91.8025 178.477 91.5659C184.063 91.3292 188.097 90.8371 188.377 95.5004C188.657 100.164 191.597 101.868 195.545 101.768C202.528 101.591 198.482 109.844 206.065 107.443C212.266 105.48 209.991 98.3997 209.936 98.2288C210.963 100.314 211.187 102.648 210.928 104.434Z" fill="#3D2042"/>
<path d="M213.606 149.292L210.162 150.894C210.162 150.894 200.947 139.681 199.735 137.011C198.524 134.341 193.498 124.552 193.498 124.552L196.228 107.448C196.228 107.448 197.402 108.006 199.005 110.663C200.418 113.008 202.168 116.989 203.74 123.662C207.09 137.901 213.606 149.292 213.606 149.292Z" fill="#000E94"/>
<path d="M199.735 137.011C198.524 134.342 193.498 124.552 193.498 124.552L196.228 107.448C196.228 107.448 197.402 108.006 199.005 110.663C199.374 112.349 200.05 116.461 199.271 121.193C198.245 127.4 199.735 137.011 199.735 137.011Z" fill="#14182D"/>
<path d="M197.987 152.584C197.987 152.584 194.077 152.733 193.632 152.584C193.187 152.436 185.629 137.768 183.953 132.562C182.485 128.001 186.665 120.54 185.5 113.764C185.337 112.793 185.052 111.843 184.652 110.937C186.064 109.217 187.61 107.6 189.276 106.102C189.276 106.102 194.551 105.034 196.972 108.238C198.407 110.138 198.179 115.616 197.171 120.818V120.823C196.481 124.391 195.423 127.828 194.288 129.892C191.496 134.964 197.987 152.584 197.987 152.584Z" fill="#000E94"/>
<path d="M189.458 112.005C188.678 113.761 186.297 113.578 185.501 113.764C185.338 112.793 185.053 111.843 184.652 110.937C186.064 109.217 187.61 107.6 189.276 106.102C189.276 106.102 194.551 105.034 196.973 108.238C198.408 110.137 192.752 104.593 189.458 112.005Z" fill="#14182D"/>
<path d="M171.152 95.5035C170.968 95.49 170.825 95.4183 170.749 95.2738C170.47 94.4435 169.569 92.6941 169.569 92.6941C169.777 91.7263 171.53 90.647 171.53 90.647C171.799 90.891 172.053 91.1496 172.291 91.4216C172.732 91.9201 173.239 92.596 173.449 93.2573C173.782 94.3102 172.021 95.5645 171.152 95.5035Z" fill="#FFB7A8"/>
<path d="M171.152 95.5037C170.968 95.4902 170.825 95.4185 170.749 95.274C170.47 94.4436 169.569 92.6942 169.569 92.6942C169.777 91.7264 171.53 90.647 171.53 90.647C171.799 90.891 172.053 91.1496 172.291 91.4216C170.724 92.6619 170.992 94.7496 171.152 95.5037Z" fill="#EA847D"/>
<path d="M171.095 91.2677H171.09C171.09 91.2677 169.042 95.1235 166.745 93.878C165.381 93.1375 164.454 90.4062 163.929 88.3121C163.568 86.8833 163.395 85.7505 163.395 85.7505C165.69 90.378 169.104 87.2632 169.104 87.2632C169.15 89.698 170.796 89.0737 170.871 89.0438C170.871 89.0428 170.871 89.0418 170.871 89.0408C170.913 88.941 171.866 86.7288 172.732 88.5998C173.598 90.4708 171.223 91.2277 171.095 91.2677Z" fill="#FFB7A8"/>
<path d="M189.458 109.28C187.865 111.175 185.526 112.715 184.808 113.161C183.566 113.933 179.718 108.059 175.126 107.406C170.534 106.753 170.284 105.389 170.284 103.491C170.284 101.593 170.749 95.2737 170.749 95.2737C173.883 94.5913 171.587 94.4139 173.268 92.8072C174.95 91.2005 180.589 92.9276 183.879 98.4449C187.169 103.962 189.527 101.352 190.83 104.853C191.378 106.332 190.615 107.9 189.458 109.28Z" fill="#8978F7"/>
<path d="M189.458 109.28C187.865 111.175 185.526 112.715 184.808 113.161C183.566 113.933 179.718 108.059 175.126 107.406C170.534 106.753 170.284 105.389 170.284 103.491C171.836 104.544 171.74 99.0962 171.74 99.0962L180.131 101.593C180.131 101.593 179.828 104.82 182.696 108.223C185.563 111.626 189.458 109.28 189.458 109.28Z" fill="#634DF4"/>
<path d="M175.807 94.8292C180.988 95.1228 180.462 102.126 179.532 106.398C178.601 110.67 177.545 113.755 176.553 114.229C175.56 114.704 157.25 113.835 156.878 113.231C156.505 112.627 157.188 110.669 157.188 110.669C157.188 110.669 162.091 109.957 167.615 109.661C173.139 109.364 173.015 109.068 172.332 105.33C171.649 101.592 170.416 94.5238 175.807 94.8292Z" fill="#8978F7"/>
<path d="M170.871 89.0456C170.809 89.0767 169.338 89.5536 169.042 88.6146C168.74 87.6585 168.22 89.2676 166.172 89.2676C165.158 89.2676 164.418 88.7931 163.929 88.3133C163.568 86.8845 163.395 85.7517 163.395 85.7517C165.69 90.3793 169.104 87.2645 169.104 87.2645C169.15 89.6998 170.796 89.0755 170.871 89.0456Z" fill="#EA847D"/>
<path d="M171.096 91.2676C172.868 90.5323 172.887 89.0518 172.247 88.5773C171.627 88.118 170.923 88.9819 170.874 89.0412C170.916 88.9414 171.87 86.7292 172.736 88.6002C173.601 90.4712 171.223 91.2276 171.096 91.2676Z" fill="#EA847D"/>
<path d="M144.474 91.5969H85.1565C83.7314 91.5969 82.5762 92.7012 82.5762 94.0634V150.764C82.5762 152.126 83.7314 153.23 85.1565 153.23H144.474C145.899 153.23 147.054 152.126 147.054 150.764V94.0634C147.054 92.7012 145.899 91.5969 144.474 91.5969Z" fill="#8978F7"/>
<path d="M135.155 146.735H94.4754C93.1219 146.734 91.8242 146.219 90.867 145.304C89.9099 144.389 89.3716 143.149 89.3701 141.855V102.972C89.3716 101.678 89.9099 100.437 90.867 99.5224C91.8242 98.6076 93.1219 98.093 94.4754 98.0916H135.155C136.509 98.093 137.806 98.6076 138.764 99.5224C139.721 100.437 140.259 101.678 140.26 102.972V141.857C140.259 143.15 139.72 144.39 138.763 145.305C137.806 146.219 136.508 146.734 135.155 146.735ZM94.4754 99.1287C93.4099 99.1297 92.3882 99.5348 91.6347 100.255C90.8813 100.975 90.4575 101.952 90.4563 102.97V141.856C90.4575 142.874 90.8813 143.851 91.6347 144.571C92.3882 145.291 93.4099 145.696 94.4754 145.697H135.155C136.221 145.696 137.242 145.291 137.996 144.571C138.749 143.851 139.173 142.874 139.174 141.856V102.972C139.173 101.953 138.749 100.977 137.996 100.256C137.242 99.536 136.221 99.1309 135.155 99.1298L94.4754 99.1287Z" fill="#E1EAFF"/>
<path d="M135.358 153.23H94.2725V158.004H135.358V153.23Z" fill="#8978F7"/>
<path d="M141.328 105.53H138.106C137.732 105.53 137.429 105.82 137.429 106.177V117.555C137.429 117.913 137.732 118.203 138.106 118.203H141.328C141.702 118.203 142.006 117.913 142.006 117.555V106.177C142.006 105.82 141.702 105.53 141.328 105.53Z" fill="#E1EAFF"/>
<path d="M141.328 126.624H138.106C137.732 126.624 137.429 126.914 137.429 127.272V138.65C137.429 139.007 137.732 139.297 138.106 139.297H141.328C141.702 139.297 142.006 139.007 142.006 138.65V127.272C142.006 126.914 141.702 126.624 141.328 126.624Z" fill="#E1EAFF"/>
<path d="M122.631 132.331C128.361 132.331 133.006 127.891 133.006 122.414C133.006 116.937 128.361 112.496 122.631 112.496C116.901 112.496 112.255 116.937 112.255 122.414C112.255 127.891 116.901 132.331 122.631 132.331Z" stroke="#E1EAFF" stroke-width="10" stroke-miterlimit="10"/>
<path d="M122.631 130.75C127.447 130.75 131.352 127.018 131.352 122.414C131.352 117.809 127.447 114.077 122.631 114.077C117.814 114.077 113.909 117.809 113.909 122.414C113.909 127.018 117.814 130.75 122.631 130.75Z" fill="#E1EAFF"/>
<path d="M122.631 126.033C124.722 126.033 126.417 124.413 126.417 122.414C126.417 120.415 124.722 118.794 122.631 118.794C120.539 118.794 118.844 120.415 118.844 122.414C118.844 124.413 120.539 126.033 122.631 126.033Z" fill="#507EFF"/>
<path d="M122.63 114.077V115.028" stroke="#507EFF" stroke-width="2" stroke-miterlimit="10"/>
<path d="M119.648 114.58L119.989 115.473" stroke="#507EFF" stroke-width="2" stroke-miterlimit="10"/>
<path d="M117.025 116.027L117.665 116.756" stroke="#507EFF" stroke-width="2" stroke-miterlimit="10"/>
<path d="M115.078 118.245L115.94 118.721" stroke="#507EFF" stroke-width="2" stroke-miterlimit="10"/>
<path d="M114.042 120.966L115.022 121.132" stroke="#507EFF" stroke-width="2" stroke-miterlimit="10"/>
<path d="M114.042 123.862L115.022 123.696" stroke="#507EFF" stroke-width="2" stroke-miterlimit="10"/>
<path d="M115.078 126.582L115.94 126.106" stroke="#507EFF" stroke-width="2" stroke-miterlimit="10"/>
<path d="M117.025 128.801L117.665 128.071" stroke="#507EFF" stroke-width="2" stroke-miterlimit="10"/>
<path d="M119.648 130.248L119.989 129.354" stroke="#507EFF" stroke-width="2" stroke-miterlimit="10"/>
<path d="M122.63 130.751V129.8" stroke="#507EFF" stroke-width="2" stroke-miterlimit="10"/>
<path d="M125.614 130.248L125.274 129.354" stroke="#507EFF" stroke-width="2" stroke-miterlimit="10"/>
<path d="M128.237 128.801L127.598 128.071" stroke="#507EFF" stroke-width="2" stroke-miterlimit="10"/>
<path d="M130.184 126.582L129.322 126.106" stroke="#507EFF" stroke-width="2" stroke-miterlimit="10"/>
<path d="M131.22 123.862L130.24 123.696" stroke="#507EFF" stroke-width="2" stroke-miterlimit="10"/>
<path d="M131.22 120.966L130.24 121.132" stroke="#507EFF" stroke-width="2" stroke-miterlimit="10"/>
<path d="M130.184 118.245L129.322 118.721" stroke="#507EFF" stroke-width="2" stroke-miterlimit="10"/>
<path d="M128.237 116.027L127.598 116.756" stroke="#507EFF" stroke-width="2" stroke-miterlimit="10"/>
<path d="M125.614 114.58L125.274 115.473" stroke="#507EFF" stroke-width="2" stroke-miterlimit="10"/>
<path d="M122.631 117.478C122.98 117.478 123.263 117.208 123.263 116.874C123.263 116.541 122.98 116.271 122.631 116.271C122.283 116.271 122 116.541 122 116.874C122 117.208 122.283 117.478 122.631 117.478Z" fill="#507EFF"/>
<path d="M100.377 122.414C103.578 122.414 106.173 119.934 106.173 116.874C106.173 113.815 103.578 111.335 100.377 111.335C97.1767 111.335 94.582 113.815 94.582 116.874C94.582 119.934 97.1767 122.414 100.377 122.414Z" stroke="#E1EAFF" stroke-width="10" stroke-miterlimit="10"/>
<path d="M102.857 111.866L100.377 116.874L94.582 117.478" stroke="#E1EAFF" stroke-width="10" stroke-miterlimit="10"/>
<path d="M100.377 116.874L104.085 121.131" stroke="#E1EAFF" stroke-width="10" stroke-miterlimit="10"/>
<path d="M100.378 118.483C101.307 118.483 102.061 117.763 102.061 116.874C102.061 115.986 101.307 115.265 100.378 115.265C99.448 115.265 98.6943 115.986 98.6943 116.874C98.6943 117.763 99.448 118.483 100.378 118.483Z" fill="#E1EAFF"/>
<path d="M135.358 153.23V157.069L94.2725 154.259V153.23H135.358Z" fill="#634DF4"/>
<defs>
<linearGradient id="paint0_linear_0_1" x1="151.497" y1="152.038" x2="158.362" y2="153.487" gradientUnits="userSpaceOnUse">
<stop stop-color="#FFDCAD"/>
<stop offset="1" stop-color="#FEC989"/>
</linearGradient>
<linearGradient id="paint1_linear_0_1" x1="26096.1" y1="19645.6" x2="26903.9" y2="19930.6" gradientUnits="userSpaceOnUse">
<stop stop-color="#FFDCAD"/>
<stop offset="1" stop-color="#FEC989"/>
</linearGradient>
<linearGradient id="paint2_linear_0_1" x1="22642.8" y1="15288.6" x2="23442.8" y2="15533.3" gradientUnits="userSpaceOnUse">
<stop stop-color="#FFDCAD"/>
<stop offset="1" stop-color="#FEC989"/>
</linearGradient>
<linearGradient id="paint3_linear_0_1" x1="23597.7" y1="14552.9" x2="24397.6" y2="14797.4" gradientUnits="userSpaceOnUse">
<stop stop-color="#FFDCAD"/>
<stop offset="1" stop-color="#FEC989"/>
</linearGradient>
<linearGradient id="paint4_linear_0_1" x1="22961.3" y1="14094.5" x2="23761.2" y2="14339.1" gradientUnits="userSpaceOnUse">
<stop stop-color="#FFDCAD"/>
<stop offset="1" stop-color="#FEC989"/>
</linearGradient>
<linearGradient id="paint5_linear_0_1" x1="23707" y1="13350.2" x2="24507" y2="13594.8" gradientUnits="userSpaceOnUse">
<stop stop-color="#FFDCAD"/>
<stop offset="1" stop-color="#FEC989"/>
</linearGradient>
</defs>
</svg>
