<svg width="240" height="167" viewBox="0 0 240 167" fill="none" xmlns="http://www.w3.org/2000/svg">
<path opacity="0.24" d="M36.4425 109.474C70.2686 156.447 156.318 162.016 204.047 130.782C212.779 125.132 238.212 108.425 239.06 82.0325C239.145 80.3376 239.738 57.7387 223.8 46.5199C207.523 35.0591 194.043 49.5869 167.762 43.3722C134.699 35.4626 133.936 7.37542 99.1777 1.32214C80.4419 -1.90627 65.3516 3.58203 61.0279 5.35766C58.6542 6.32618 35.4252 16.0921 25.1671 39.1753C10.4159 72.2665 33.8992 106.003 36.4425 109.474Z" fill="#8978F7"/>
<path d="M0.608384 166.483L0.0654297 166.344C0.0888329 166.262 2.42541 158.037 7.26426 148.936C10.1092 143.588 13.2499 138.987 16.5993 135.261C20.7979 130.59 25.34 127.286 30.0993 125.441C38.2885 122.265 47.2014 123.355 56.5917 128.68C70.2592 136.433 81.7062 141.755 90.62 144.501C99.1594 147.132 105.265 147.376 108.768 145.227C111.512 143.543 112.635 140.355 112.106 135.751C111.791 133.009 112.293 131.015 113.631 129.652C116.448 126.789 122.667 127.063 130.539 127.401C140.07 127.815 151.932 128.331 163.223 123.683C167.039 122.112 169.174 120.092 169.751 117.509C170.401 114.6 169.024 110.884 165.543 106.149C162.396 101.864 158.018 97.329 153.382 92.5253C144.848 83.6811 136.024 74.5361 135.315 66.9614C134.912 62.6638 136.733 58.4671 140.725 54.4892C143.895 51.3316 148.436 48.3017 154.224 45.4834C164.054 40.6958 174.236 38.139 174.337 38.114L174.479 38.6327C174.377 38.6577 164.251 41.2019 154.472 45.9646C148.742 48.7552 144.253 51.7485 141.128 54.8623C137.254 58.7233 135.486 62.7781 135.873 66.9141C136.566 74.3076 145.328 83.3847 153.795 92.1628C163.062 101.767 171.814 110.838 170.3 117.621C169.683 120.388 167.44 122.53 163.444 124.175C152.034 128.871 140.101 128.353 130.513 127.936C122.785 127.599 116.68 127.334 114.037 130.018C112.815 131.26 112.364 133.116 112.661 135.692C113.215 140.513 112.006 143.875 109.069 145.677C105.418 147.917 99.1529 147.693 90.445 145.01C81.4918 142.252 70.0046 136.912 56.3025 129.14C47.0741 123.905 38.3288 122.828 30.3118 125.937C19.7082 130.049 12.1986 140.846 7.76603 149.179C2.95713 158.229 0.635531 166.401 0.608384 166.483Z" fill="white"/>
<path d="M64.8271 72.3225C62.9272 72.3185 61.0307 72.1713 59.1551 71.8824C54.6027 71.1914 49.776 69.6801 44.8099 67.3911C41.1589 65.7084 37.435 63.6087 33.7401 61.1492C27.7236 57.1454 23.8274 53.5308 23.7891 53.4951L24.1813 53.1121C24.2197 53.1478 28.0859 56.733 34.0612 60.71C37.7318 63.1534 41.4304 65.2388 45.0542 66.9082C55.946 71.9279 65.7642 73.0876 74.2352 70.355C87.8615 65.9583 93.5494 49.6439 95.9207 36.7236C98.4997 22.6776 97.8229 9.50461 97.8163 9.37338L98.378 9.3457C98.3855 9.47783 99.066 22.7026 96.4767 36.8075C94.9546 45.1026 92.6152 52.0783 89.5241 57.54C85.6438 64.397 80.5606 68.8775 74.4159 70.862C71.4016 71.8333 68.1925 72.3225 64.8271 72.3225Z" fill="white"/>
<path d="M57.5098 129.042C67.0435 129.042 74.772 121.672 74.772 112.58C74.772 103.489 67.0435 96.1187 57.5098 96.1187C47.9761 96.1187 40.2476 103.489 40.2476 112.58C40.2476 121.672 47.9761 129.042 57.5098 129.042Z" fill="#F9D679"/>
<path d="M59.6341 119.62L58.9985 118.091C57.9444 118.454 56.7855 118.564 56.0337 118.41L55.8643 116.76C56.8289 116.906 57.8166 116.809 58.7298 116.479C59.7708 116.085 60.2782 115.328 59.9636 114.572C59.6687 113.863 58.9002 113.625 57.5007 113.662C55.517 113.719 54.0791 113.387 53.4697 111.922C52.908 110.566 53.4697 109.154 55.0162 108.237L54.374 106.693L55.7286 106.18L56.338 107.645C57.3921 107.283 58.2009 107.251 58.8347 107.303L58.991 108.922C58.5229 108.899 57.6448 108.811 56.5215 109.236C55.3653 109.674 55.1875 110.397 55.4103 110.932C55.679 111.579 56.4241 111.716 58.0511 111.721C60.1771 111.683 61.3566 112.222 61.9398 113.624C62.4968 114.963 62.0128 116.514 60.3137 117.484L60.9887 119.107L59.6341 119.62Z" fill="#FFBA52"/>
<path d="M57.5128 125.486C50.065 125.486 44.0063 119.707 44.0063 112.605C44.0063 105.504 50.0631 99.728 57.5128 99.728C64.9626 99.728 71.0193 105.507 71.0193 112.608C71.0193 119.71 64.9579 125.486 57.5128 125.486ZM57.5128 101.616C55.2336 101.616 53.0056 102.261 51.1106 103.468C49.2155 104.676 47.7385 106.392 46.8663 108.4C45.9941 110.408 45.7659 112.618 46.2105 114.749C46.6551 116.881 47.7527 118.839 49.3643 120.376C50.9759 121.913 53.0293 122.96 55.2647 123.384C57.5 123.808 59.8171 123.59 61.9228 122.758C64.0285 121.927 65.8282 120.518 67.0945 118.711C68.3607 116.904 69.0366 114.779 69.0366 112.605C69.0321 109.693 67.8165 106.9 65.6562 104.841C63.4959 102.781 60.5674 101.623 57.5128 101.62V101.616Z" fill="#FFBA52"/>
<path d="M111.376 112.857V117.662C111.376 118.823 103.919 119.77 94.7185 119.77C85.5182 119.77 78.061 118.826 78.061 117.662V112.857H111.376Z" fill="#FFBA52"/>
<path d="M94.7185 114.966C103.918 114.966 111.376 114.022 111.376 112.858C111.376 111.694 103.918 110.75 94.7185 110.75C85.5189 110.75 78.061 111.694 78.061 112.858C78.061 114.022 85.5189 114.966 94.7185 114.966Z" fill="#FFC67B"/>
<path d="M94.7183 114.504C102.516 114.504 108.837 113.767 108.837 112.858C108.837 111.949 102.516 111.212 94.7183 111.212C86.9208 111.212 80.5996 111.949 80.5996 112.858C80.5996 113.767 86.9208 114.504 94.7183 114.504Z" fill="#F9D679"/>
<path d="M110.563 114.191C110.575 115.3 110.586 116.408 110.597 117.516C107.083 118.462 103.448 118.94 99.7969 118.937L99.7295 115.644C103.4 115.718 107.058 115.227 110.564 114.19L110.563 114.191Z" fill="#F19A6A"/>
<path d="M86.5332 115.508V118.769C85.1602 118.688 83.7925 118.539 82.4358 118.323C81.67 118.2 80.938 118.062 80.2368 117.91V114.62C80.9324 114.783 81.6663 114.932 82.4358 115.061C83.791 115.289 85.1592 115.438 86.5332 115.508Z" fill="url(#paint0_linear_0_1)"/>
<path d="M117.217 107.289L116.936 112.087C116.867 113.248 109.367 113.795 100.179 113.306C90.9909 112.818 83.6021 111.48 83.6704 110.318L83.9512 105.52L117.217 107.289Z" fill="#FFBA52"/>
<path d="M117.21 107.281C117.278 106.119 109.886 104.781 100.701 104.293C91.5155 103.805 84.0142 104.351 83.9462 105.513C83.8783 106.675 91.2695 108.013 100.455 108.502C109.64 108.99 117.142 108.443 117.21 107.281Z" fill="#FFC67B"/>
<path d="M114.675 107.147C114.728 106.239 108.46 105.167 100.674 104.754C92.8888 104.34 86.5344 104.74 86.4813 105.648C86.4283 106.556 92.6966 107.627 100.482 108.041C108.268 108.455 114.622 108.054 114.675 107.147Z" fill="#F9D679"/>
<path d="M116.328 108.577L116.168 111.899C112.604 112.657 108.947 112.941 105.301 112.744L105.426 109.452C109.086 109.722 112.767 109.426 116.328 108.577Z" fill="#F19A6A"/>
<path d="M92.2587 108.613L92.0714 111.87C90.7051 111.716 89.348 111.495 88.0058 111.207C87.2485 111.045 86.5239 110.867 85.834 110.679L86.0259 107.395C86.7111 107.594 87.4301 107.782 88.1958 107.952C89.535 108.25 90.8917 108.471 92.2587 108.613Z" fill="url(#paint1_linear_0_1)"/>
<path d="M109.833 100.654V105.458C109.833 106.619 102.375 107.566 93.175 107.566C83.9747 107.566 76.5166 106.622 76.5166 105.458V100.654H109.833Z" fill="#FFBA52"/>
<path d="M93.1746 102.761C102.374 102.761 109.832 101.818 109.832 100.654C109.832 99.4896 102.374 98.5459 93.1746 98.5459C83.9749 98.5459 76.5171 99.4896 76.5171 100.654C76.5171 101.818 83.9749 102.761 93.1746 102.761Z" fill="#FFC67B"/>
<path d="M93.1753 102.3C100.973 102.3 107.294 101.563 107.294 100.654C107.294 99.7448 100.973 99.0078 93.1753 99.0078C85.3778 99.0078 79.0566 99.7448 79.0566 100.654C79.0566 101.563 85.3778 102.3 93.1753 102.3Z" fill="#F9D679"/>
<path d="M109.02 101.987C109.031 103.096 109.042 104.205 109.054 105.313C105.539 106.259 101.905 106.737 98.2534 106.733L98.186 103.44C101.856 103.514 105.515 103.024 109.021 101.987L109.02 101.987Z" fill="#F19A6A"/>
<path d="M84.9902 103.304V106.565C83.6172 106.484 82.2496 106.335 80.8928 106.119C80.1271 105.997 79.395 105.858 78.6938 105.706V102.418C79.3894 102.58 80.1233 102.729 80.8928 102.859C82.248 103.086 83.6163 103.234 84.9902 103.304Z" fill="url(#paint2_linear_0_1)"/>
<path d="M116.355 93.4216V98.2263C116.355 99.3868 108.897 100.334 99.697 100.334C90.4968 100.334 83.0396 99.3904 83.0396 98.2263V93.4216H116.355Z" fill="#FFBA52"/>
<path d="M99.697 95.5293C108.897 95.5293 116.355 94.5857 116.355 93.4216C116.355 92.2576 108.897 91.314 99.697 91.314C90.4974 91.314 83.0396 92.2576 83.0396 93.4216C83.0396 94.5857 90.4974 95.5293 99.697 95.5293Z" fill="#FFC67B"/>
<path d="M99.6968 95.0679C107.494 95.0679 113.816 94.3309 113.816 93.4218C113.816 92.5126 107.494 91.7756 99.6968 91.7756C91.8993 91.7756 85.5781 92.5126 85.5781 93.4218C85.5781 94.3309 91.8993 95.0679 99.6968 95.0679Z" fill="#FF9350"/>
<path d="M115.542 94.7546C115.553 95.8633 115.564 96.9718 115.576 98.0799C112.061 99.0258 108.427 99.5038 104.775 99.5002L104.708 96.207C108.378 96.2814 112.037 95.7907 115.543 94.7537L115.542 94.7546Z" fill="#F19A6A"/>
<path d="M91.5117 96.0722V99.3333C90.1387 99.2524 88.7711 99.1034 87.4143 98.8869C86.6485 98.7646 85.9165 98.6262 85.2153 98.4745V95.1848C85.9109 95.3473 86.6448 95.4964 87.4143 95.6258C88.7695 95.8529 90.1378 96.002 91.5117 96.0722Z" fill="url(#paint3_linear_0_1)"/>
<path d="M112.008 88.9119V93.7165C112.008 94.877 104.551 95.8242 95.3504 95.8242C86.1501 95.8242 78.6929 94.8806 78.6929 93.7165V88.9119H112.008Z" fill="#FFBA52"/>
<path d="M95.3504 91.0195C104.55 91.0195 112.008 90.0758 112.008 88.9117C112.008 87.7476 104.55 86.804 95.3504 86.804C86.1507 86.804 78.6929 87.7476 78.6929 88.9117C78.6929 90.0758 86.1507 91.0195 95.3504 91.0195Z" fill="#FFC67B"/>
<path d="M95.3507 90.5569C103.148 90.5569 109.469 89.8203 109.469 88.9116C109.469 88.003 103.148 87.2664 95.3507 87.2664C87.5531 87.2664 81.2319 88.003 81.2319 88.9116C81.2319 89.8203 87.5531 90.5569 95.3507 90.5569Z" fill="#F9D679"/>
<path d="M111.196 90.2453C111.207 91.354 111.218 92.4625 111.229 93.5706C107.715 94.5165 104.081 94.9945 100.429 94.9909L100.362 91.6977C104.032 91.7721 107.69 91.2814 111.197 90.2444L111.196 90.2453Z" fill="#F19A6A"/>
<path d="M87.1656 91.5622V94.8232C85.7925 94.7423 84.4249 94.5934 83.0681 94.3769C82.3024 94.2546 81.5703 94.1162 80.8691 93.9645V90.6748C81.5647 90.8373 82.2986 90.9864 83.0681 91.1158C84.4233 91.3429 85.7916 91.492 87.1656 91.5622Z" fill="url(#paint4_linear_0_1)"/>
<path d="M117.103 81.5886V86.3933C117.103 87.5538 109.645 88.501 100.445 88.501C91.2448 88.501 83.7876 87.5574 83.7876 86.3933V81.5886H117.103Z" fill="#FFBA52"/>
<path d="M100.445 83.6973C109.645 83.6973 117.103 82.7536 117.103 81.5896C117.103 80.4256 109.645 79.4819 100.445 79.4819C91.2454 79.4819 83.7876 80.4256 83.7876 81.5896C83.7876 82.7536 91.2454 83.6973 100.445 83.6973Z" fill="#FFC67B"/>
<path d="M100.445 83.2358C108.242 83.2358 114.564 82.4988 114.564 81.5897C114.564 80.6806 108.242 79.9436 100.445 79.9436C92.6473 79.9436 86.3262 80.6806 86.3262 81.5897C86.3262 82.4988 92.6473 83.2358 100.445 83.2358Z" fill="#F9D679"/>
<path d="M116.291 82.9225C116.302 84.0313 116.313 85.1397 116.325 86.2479C112.81 87.1938 109.176 87.6717 105.524 87.6682L105.457 84.375C109.127 84.4494 112.786 83.9586 116.292 82.9216L116.291 82.9225Z" fill="#F19A6A"/>
<path d="M92.2603 84.2418V87.5029C90.8873 87.422 89.5196 87.273 88.1628 87.0566C87.3971 86.9343 86.665 86.7959 85.9639 86.6441V83.3491C86.6594 83.5116 87.3933 83.6607 88.1628 83.7901C89.5179 84.019 90.8862 84.1699 92.2603 84.2418Z" fill="url(#paint5_linear_0_1)"/>
<path d="M173.189 46.9459C173.189 25.6848 155.116 8.44995 132.821 8.44995C110.527 8.44995 92.4536 25.6848 92.4536 46.9459C92.4536 60.8857 100.223 73.0945 111.859 79.8498C111.859 79.8498 116.483 82.6922 116.483 96.1348H149.16C149.16 82.6913 153.784 79.8498 153.784 79.8498C165.419 73.0945 173.189 60.8857 173.189 46.9459Z" fill="#82EEC8"/>
<path d="M138.723 97.7371H128.309L128.24 97.0282C128.225 96.8747 126.742 81.5423 125.387 73.1534C124.603 68.3095 123.281 62.8871 121.821 58.5682C120.638 58.2436 119.508 57.7654 118.462 57.147C115.872 55.6392 114.361 53.5216 114.42 51.4836C114.451 50.4346 114.948 49.5633 115.751 49.1518C116.23 48.9072 117.234 48.6161 118.592 49.424C120.204 50.3828 121.751 53.4815 123.086 57.2496C126.52 57.8674 129.767 56.547 132.269 53.4163C129.877 50.1909 128.598 45.8425 128.444 42.6778C128.314 39.9809 129 38.2454 130.378 37.7919C131.884 37.2965 133.288 37.7393 134.333 39.0417C136.84 42.1573 136.799 49.5053 134.316 53.3467C135.502 54.7036 136.912 55.7141 138.517 56.0891C139.542 56.3325 140.593 56.4601 141.648 56.4694C143.651 51.0033 146.257 48.8277 148.398 48.7581C149.029 48.7257 149.651 48.9088 150.154 49.2747C150.656 49.6405 151.005 50.1651 151.138 50.7542C151.484 52.1638 150.778 53.91 149.293 55.3071C147.649 56.8586 145.384 57.7728 142.834 57.9799C142.262 59.7439 141.737 61.8775 141.3 64.4431C138.585 80.3335 138.715 96.7854 138.716 96.9506L138.723 97.7371ZM129.801 96.1766H137.079C137.091 92.695 137.291 78.2249 139.684 64.1923C140.028 62.1059 140.509 60.0423 141.125 58.0138C140.115 57.9713 139.111 57.8331 138.129 57.6013C136.257 57.163 134.65 56.0944 133.316 54.6723C130.667 57.8111 127.245 59.2663 123.645 58.9029C125.228 63.8129 126.444 69.4308 127.007 72.9186C128.201 80.3139 129.491 93.0467 129.8 96.1766H129.801ZM116.847 50.4551C116.736 50.4527 116.625 50.477 116.525 50.5257C116.245 50.6694 116.07 51.0434 116.057 51.5264C116.025 52.6628 116.863 54.3831 119.317 55.8115C119.904 56.1567 120.52 56.4553 121.158 56.7042C119.998 53.6305 118.791 51.3791 117.728 50.7471C117.404 50.5551 117.098 50.4551 116.847 50.4551ZM148.501 50.3123H148.452C147.229 50.3525 145.182 51.8147 143.413 56.3444C145.285 56.0766 146.924 55.3437 148.139 54.1974C149.206 53.1904 149.757 51.9763 149.544 51.105C149.499 50.8759 149.37 50.6696 149.179 50.524C148.988 50.3784 148.749 50.3033 148.505 50.3123H148.501ZM131.548 39.1533C131.331 39.1569 131.115 39.1952 130.91 39.2667C130.442 39.422 129.974 40.5335 130.077 42.6055C130.211 45.3809 131.335 49.1036 133.26 51.9585C135.183 48.3403 134.851 42.243 133.038 39.9889C132.508 39.3381 131.99 39.1524 131.549 39.1524L131.548 39.1533Z" fill="white"/>
<path d="M152.988 99.3728V99.879C152.987 100.738 152.629 101.562 151.992 102.169C151.354 102.776 150.491 103.117 149.59 103.117H116.054C115.256 103.117 114.484 102.85 113.873 102.361C113.261 101.873 112.849 101.195 112.709 100.447C112.673 100.259 112.655 100.069 112.656 99.879V99.3728C112.657 98.5137 113.015 97.6902 113.652 97.083C114.289 96.4758 115.153 96.1348 116.054 96.1348H149.59C150.491 96.1348 151.354 96.4758 151.992 97.083C152.629 97.6902 152.987 98.5137 152.988 99.3728Z" fill="#44E5AD"/>
<path d="M143.387 93.4907L142.977 93.4673C143.114 93.4668 143.251 93.4747 143.387 93.4907Z" fill="#507EFF"/>
<path d="M152.988 99.3728V99.879C152.987 100.738 152.629 101.562 151.992 102.169C151.354 102.776 150.49 103.117 149.59 103.117H116.054C115.256 103.117 114.484 102.85 113.873 102.361C113.261 101.873 112.849 101.195 112.709 100.447H142.982C143.882 100.446 144.745 100.105 145.382 99.4981C146.019 98.8909 146.377 98.0674 146.377 97.2087V96.7052C146.378 96.5139 146.36 96.3229 146.324 96.1348H149.593C150.494 96.1357 151.356 96.4772 151.993 97.0843C152.629 97.6913 152.987 98.5144 152.988 99.3728Z" fill="#35D69E"/>
<path d="M150.087 106.355V106.861C150.087 108.646 148.784 110.099 147.177 110.099H118.466C117.033 110.099 115.845 108.944 115.603 107.429C115.571 107.241 115.556 107.051 115.557 106.861V106.355C115.557 104.569 116.86 103.117 118.466 103.117H147.178C148.786 103.117 150.087 104.567 150.087 106.355Z" fill="#44E5AD"/>
<path d="M150.087 106.355V106.861C150.087 108.646 148.784 110.099 147.177 110.099H118.466C117.033 110.099 115.845 108.944 115.603 107.429H141.516C143.121 107.429 144.423 105.98 144.423 104.191V103.687C144.424 103.496 144.408 103.305 144.377 103.117H147.177C148.786 103.117 150.087 104.567 150.087 106.355Z" fill="#35D69E"/>
<path d="M144.947 113.012V113.468C144.947 113.851 144.868 114.23 144.714 114.583C144.56 114.937 144.335 115.258 144.051 115.529C143.767 115.799 143.43 116.014 143.059 116.16C142.689 116.306 142.291 116.382 141.89 116.382H123.754C123.036 116.382 122.342 116.141 121.791 115.701C121.241 115.262 120.871 114.652 120.744 113.978C120.712 113.81 120.696 113.639 120.696 113.468V113.012C120.696 112.63 120.775 112.251 120.929 111.897C121.083 111.543 121.308 111.222 121.592 110.951C121.876 110.681 122.213 110.466 122.584 110.32C122.955 110.174 123.353 110.098 123.754 110.099H141.89C142.7 110.099 143.477 110.406 144.05 110.952C144.624 111.499 144.946 112.24 144.947 113.012Z" fill="#44E5AD"/>
<path d="M137.02 119.298V119.752C137.02 120.135 136.942 120.514 136.788 120.867C136.635 121.221 136.41 121.543 136.126 121.814C135.842 122.084 135.505 122.299 135.134 122.446C134.764 122.593 134.366 122.668 133.965 122.668H131.679C130.913 122.668 130.175 122.394 129.611 121.899C129.047 121.404 128.699 120.726 128.635 119.998C128.628 119.918 128.623 119.835 128.623 119.752V119.298C128.623 118.915 128.702 118.536 128.855 118.183C129.009 117.829 129.234 117.508 129.518 117.237C129.801 116.966 130.138 116.751 130.509 116.605C130.88 116.458 131.277 116.383 131.679 116.383H133.965C134.066 116.382 134.168 116.388 134.269 116.399C135.023 116.47 135.723 116.806 136.231 117.342C136.74 117.878 137.021 118.575 137.02 119.298Z" fill="#44E5AD"/>
<g style="mix-blend-mode:screen" opacity="0.2">
<path d="M132.822 67.2212C152.21 67.2212 167.927 54.2683 167.927 38.29C167.927 22.3118 152.21 9.35889 132.822 9.35889C113.433 9.35889 97.7158 22.3118 97.7158 38.29C97.7158 54.2683 113.433 67.2212 132.822 67.2212Z" fill="#F9D67B"/>
</g>
<g style="mix-blend-mode:screen" opacity="0.3">
<path d="M132.822 43.6135C147.208 43.6135 158.87 36.1482 158.87 26.9393C158.87 17.7304 147.208 10.2651 132.822 10.2651C118.436 10.2651 106.774 17.7304 106.774 26.9393C106.774 36.1482 118.436 43.6135 132.822 43.6135Z" fill="#F9D67B"/>
</g>
<path d="M144.947 113.013V113.468C144.947 113.851 144.868 114.23 144.714 114.583C144.561 114.937 144.335 115.258 144.051 115.529C143.768 115.799 143.43 116.014 143.06 116.16C142.689 116.306 142.291 116.382 141.89 116.382H123.754C123.037 116.382 122.342 116.141 121.792 115.701C121.241 115.262 120.871 114.652 120.745 113.978H140.648C142.092 113.978 143.269 112.674 143.269 111.065V110.611C143.269 110.542 143.269 110.473 143.261 110.407C143.769 110.649 144.195 111.021 144.493 111.481C144.791 111.941 144.948 112.472 144.947 113.013Z" fill="#35D69E"/>
<path d="M137.02 119.298V119.752C137.02 120.135 136.942 120.514 136.788 120.867C136.635 121.221 136.41 121.543 136.126 121.814C135.842 122.084 135.505 122.299 135.134 122.446C134.764 122.593 134.366 122.668 133.965 122.668H131.679C130.913 122.668 130.175 122.394 129.611 121.899C129.047 121.404 128.699 120.726 128.635 119.998H130.874C131.774 119.998 132.637 119.657 133.274 119.049C133.911 118.442 134.269 117.619 134.269 116.76V116.403C135.022 116.474 135.721 116.81 136.23 117.345C136.738 117.88 137.02 118.576 137.02 119.298Z" fill="#35D69E"/>
<path d="M149.336 76.3227C148.459 77.2154 145.43 77.4832 143.887 76.7905C143.24 76.5003 142.857 76.0406 142.997 75.3853C143.479 73.166 145.244 75.0211 146.447 74.4855C147.651 73.9498 144.883 74.4096 145.685 73.682C146.019 73.3794 146.595 73.4089 147.155 73.5455C147.69 73.6878 148.206 73.8878 148.693 74.1418C148.693 74.1418 150.096 74.7917 149.336 76.3227Z" fill="#FCA69D"/>
<path d="M149.336 76.3227C148.459 77.2154 145.429 77.4832 143.887 76.7905C145.318 77.1824 147.009 76.7012 147.29 75.5951C147.455 74.9127 147.408 74.1991 147.155 73.5417C147.69 73.6841 148.206 73.8841 148.693 74.1381C148.693 74.1381 150.096 74.7916 149.336 76.3227Z" fill="#EA847D"/>
<path d="M168.688 57.2247V67.7267C168.688 67.7267 168.688 71.7056 164.007 73.5928C162.536 74.1865 159.225 75.2765 155.899 76.0166C153.494 76.5522 151.08 76.9048 149.351 76.7548C147.8 76.4486 148.068 74.1026 148.068 74.1026C148.068 74.1026 148.068 72.9295 152.668 72.1127C157.268 71.2958 160.959 69.9701 163.741 63.3899C166.522 56.8096 168.688 57.2247 168.688 57.2247Z" fill="#8978F7"/>
<path d="M168.687 57.2249V67.7268C168.687 67.7268 168.687 71.7057 164.007 73.5929C162.535 74.1865 159.224 75.2765 155.898 76.0166C158.22 75.1239 161.342 74.7498 163.739 71.12C165.705 68.1392 164.274 65.4825 165.505 61.809C166.735 58.1354 168.687 57.2249 168.687 57.2249Z" fill="#614BF4"/>
<path d="M167.665 125.932L166.073 126.301L165.471 124.784L164.955 126.506C164.955 126.506 161.128 127.408 159.666 127.121C159.052 127 159.113 126.707 159.489 126.342C160.008 125.839 161.129 125.202 161.903 124.702C163.236 123.841 164.955 122.856 164.955 122.856L165.664 122.792L167.063 122.665C167.063 122.665 168.051 124.414 167.665 125.932Z" fill="#8978F7"/>
<path d="M167.665 125.932L166.073 126.301L165.471 124.784L164.955 126.506C164.955 126.506 161.128 127.408 159.666 127.121C159.052 127 159.113 126.707 159.489 126.342C158.985 127.111 160.823 126.924 163.48 125.777C166.137 124.63 165.745 123.15 165.745 123.15L165.664 122.793L167.063 122.666C167.063 122.666 168.051 124.414 167.665 125.932Z" fill="#614BF4"/>
<path d="M184.16 130.077C182.635 130.574 179.184 128.547 179.184 128.547V126.557L178.584 128.048L177.62 127.399C177.299 126.136 178.262 124.414 178.262 124.414C178.564 124.254 178.911 124.187 179.255 124.221C179.743 124.275 180.213 124.432 180.629 124.682C180.629 124.682 181.632 126.174 183.197 127.284C184.138 127.951 184.845 128.646 184.93 129.202C184.987 129.571 184.768 129.879 184.16 130.077Z" fill="#8978F7"/>
<path d="M184.16 130.077C182.635 130.574 179.184 128.547 179.184 128.547V126.557L178.584 128.048L177.62 127.399C177.299 126.136 178.262 124.414 178.262 124.414C178.564 124.254 178.911 124.187 179.255 124.221L179.546 125.039C179.546 125.039 179.46 127.1 181.499 128.61C183.435 130.045 184.801 130.046 184.93 129.203C184.987 129.571 184.768 129.879 184.16 130.077Z" fill="#614BF4"/>
<path d="M174.571 88.3359C174.571 88.3359 172.492 99.0852 170.576 108.714C169.265 115.32 168.026 121.396 167.59 123.114C166.734 124.121 164.688 123.114 164.688 123.114C164.688 123.114 163.737 118.981 163.737 102.224C163.737 89.65 164.954 83.4769 165.567 81.1736C165.659 80.8012 165.772 80.4335 165.904 80.072H173.686L174.571 88.3359Z" fill="#000E94"/>
<path d="M174.572 88.3359C174.572 88.3359 172.492 99.0852 170.576 108.714C170.066 105.411 169.065 98.0729 169.155 91.8934C169.276 83.6295 165.568 81.1736 165.568 81.1736C165.661 80.8012 165.773 80.4335 165.906 80.072H173.687L174.572 88.3359Z" fill="#14182D"/>
<path d="M181.472 124.605C180.108 126.136 177.942 124.605 177.942 124.605C177.942 124.605 176.738 117.948 174.572 104.405C172.921 94.0851 171.596 86.231 171.059 83.077C170.892 82.0906 170.801 81.5594 170.801 81.5594C170.801 81.5594 176.498 77.5422 180.47 80.0677C181.353 81.4148 181.874 85.3249 182.147 90.3196C182.806 102.349 182.039 120.659 181.472 124.605Z" fill="#000E94"/>
<path d="M182.146 90.324C182.09 90.1892 180.273 85.8604 177.487 84.2803C174.654 82.6735 171.059 83.077 171.059 83.077C170.892 82.0905 170.801 81.5594 170.801 81.5594C170.801 81.5594 176.498 77.5422 180.47 80.0676C181.352 81.4192 181.872 85.3293 182.146 90.324Z" fill="#14182D"/>
<path d="M175.933 55.3303C174.542 57.5755 174.863 57.4729 174.542 57.5755C174.221 57.6782 171.333 56.3766 171.333 56.3766C171.333 56.3766 171.34 56.1865 171.333 55.8919C171.322 55.125 171.24 53.6538 170.796 53.0093C171.828 51.9785 173.065 51.1548 174.436 50.5864C174.463 51.2325 174.536 51.876 174.653 52.5129C174.852 53.5806 175.228 54.7992 175.933 55.3303Z" fill="#FCA69D"/>
<path d="M174.623 52.3397C172.46 53.4378 171.336 55.8918 171.336 55.8918C171.325 55.125 171.243 53.6538 170.799 53.0093C171.83 51.9788 173.066 51.1551 174.436 50.5864C174.447 51.1748 174.51 51.7612 174.623 52.3397Z" fill="#E57673"/>
<path d="M175.534 50.1143C175.534 50.1143 175.071 51.1481 174.278 51.6757C173.736 52.3176 173.371 52.0962 173.331 52.0685C173.331 52.0685 170.122 54.9377 168.477 53.829C167.635 53.2639 167.425 51.7641 167.418 50.4294C167.417 49.621 167.476 48.8134 167.594 48.0128C167.688 47.7173 167.849 47.4454 168.067 47.2174C169.221 45.9988 171.729 46.0408 171.967 46.1336C172.248 46.2443 174.656 46.9799 174.656 46.9799L174.987 48.1574L175.534 50.1143Z" fill="#FCA69D"/>
<path d="M175.534 50.1141C175.534 50.1141 175.071 51.1479 174.278 51.6755C173.736 52.3174 173.371 52.096 173.331 52.0683C174.509 52.2728 175.084 49.7472 174.094 49.3901C173.105 49.033 172.516 50.2319 172.516 50.2319C171.339 50.1552 171.178 48.8294 170.35 48.7267C169.73 48.6509 168.167 49.8293 167.418 50.4292C167.417 49.6207 167.476 48.8132 167.594 48.0125C167.688 47.717 167.849 47.4451 168.067 47.2171L169.199 46.6145H172.141L174.987 48.1572L175.534 50.1141Z" fill="#EA847D"/>
<path d="M177.105 49.4262C175.945 50.6608 174.277 51.6741 174.277 51.6741C174.277 51.6741 175.668 49.4628 174.223 48.8504C172.779 48.238 172.512 50.2296 172.512 50.2296C172.512 50.2296 170.746 48.8013 171.282 47.6282C171.282 47.6282 163.525 51.0965 161.117 45.9445C160.151 43.8761 160.254 42.4156 161.058 41.5479C162.259 40.2543 165.02 40.2757 168.125 41.5577C173.314 43.7002 174.17 40.4355 175.721 42.0674C177.272 43.6993 176.095 44.975 176.095 44.975C176.095 44.975 177.861 45.2304 178.182 47.1685C178.301 47.8889 177.793 48.6968 177.105 49.4262Z" fill="#6A3442"/>
<path d="M182.674 80.9896C181.47 82.9795 176.655 79.8416 174.168 81.7547C171.681 83.6678 168.953 83.3616 166.465 81.7547C163.978 80.1478 164.374 80.7861 165.983 74.7156C167.518 68.929 166.345 63.5433 166.545 61.0946C166.745 58.6459 168.07 57.1541 171.333 55.7767C173.232 56.7328 175.933 55.3303 175.933 55.3303C175.933 55.3303 180.346 56.8863 180.587 58.2638C180.681 58.8137 180.69 60.1786 180.643 61.9864C180.572 64.7092 180.379 68.4354 180.186 71.8839C179.865 77.6232 181.873 77.3938 182.674 80.9896Z" fill="#8978F7"/>
<path d="M182.673 80.9896C181.469 82.9794 176.655 79.8415 174.168 81.7546C175.559 80.5307 176.733 79.2702 176.832 76.0162C176.931 72.7623 173.681 72.2159 173.681 72.2159L172.295 68.8423C172.295 68.8423 175.833 67.797 176.114 65.8009C176.276 64.6484 175.78 60.075 175.78 60.075L180.648 61.9863C180.576 64.709 180.384 68.4353 180.191 71.8838C179.865 77.6231 181.873 77.3937 182.673 80.9896Z" fill="#614BF4"/>
<path d="M219.001 83.9563C217.129 92.4371 209.787 97.364 202.494 98.5513C192.625 100.158 179.302 95.9446 180.228 86.729C181.154 77.5135 184.28 69.2826 181.793 65.0744C181.195 64.0629 180.576 63.3211 179.961 62.8104C179.118 62.1088 178.264 61.84 177.454 61.9025C176.393 61.9838 175.401 62.6319 174.571 63.6201C172.646 65.9153 171.308 66.1197 169.717 70.5449C169.717 70.5449 170.278 73.3383 171.282 74.2944C172.285 75.2505 171.442 78.2348 170.499 78.4268C169.355 78.1973 169.917 76.9324 168.874 77.1823C167.831 77.4323 168.754 75.8629 167.871 75.7486C167.72 75.7305 167.568 75.7203 167.415 75.7183C166.598 75.7013 165.691 75.8165 165.824 75.3147C165.984 74.7157 164.018 75.2889 164.22 74.4854C164.421 73.682 166.956 72.8982 168.176 69.7897C168.498 68.9693 168.718 67.8909 169.005 66.6206L169.011 66.5947C169.011 66.584 169.015 66.5741 169.018 66.5634C169.021 66.5527 169.028 66.5206 169.034 66.492C169.837 62.9551 171.187 57.9719 176.599 52.9075C184.038 45.9443 196.315 46.5567 201.37 52.9075C202.991 54.9447 204.985 56.2811 207.063 57.6469C211.463 60.5385 216.25 63.5612 218.702 73.6445C219.646 77.5198 219.665 80.9603 219.001 83.9563Z" fill="#A39CD3"/>
<path d="M219.001 83.9536C217.129 92.4344 209.786 97.3613 202.494 98.5486C192.625 100.156 179.302 95.9419 180.228 86.7264C181.154 77.5109 184.28 69.2801 181.792 65.0718C181.195 64.0604 180.575 63.3185 179.96 62.8079L181.443 57.5784C181.443 57.5784 184.2 59.7905 185.163 64.421C186.125 69.0515 183.741 80.847 190.338 80.847C200.598 80.847 188.052 94.1119 201.05 94.9153C214.049 95.7187 219.001 83.9536 219.001 83.9536Z" fill="#7267BB"/>
<path d="M177.454 61.9026C176.393 61.9838 175.401 62.6319 174.571 63.6202C172.646 65.9153 171.308 66.1198 169.717 70.545C169.717 70.545 170.278 73.3383 171.282 74.2944C172.285 75.2505 171.442 78.2348 170.499 78.4268C169.355 78.1973 169.917 76.9324 168.874 77.1823C167.831 77.4323 168.754 75.8629 167.871 75.7486C167.72 75.7305 167.568 75.7203 167.416 75.7183C170.234 75.2933 169.623 73.3892 168.764 71.5528C167.906 69.7165 170.051 66.9616 172.712 63.5434C175.374 60.1252 176.035 58.6531 176.035 58.6531L177.454 61.9026Z" fill="#614BF4"/>
<path d="M169.747 71.1189C167.853 70.9645 166.963 70.3155 166.657 69.6531C166.377 69.0594 166.571 68.456 166.926 68.1917C167.656 67.6472 169.016 68.8032 169.084 68.8622C169.055 68.8166 168.631 68.1551 169.084 67.957C169.262 67.8793 169.519 68.0462 169.77 68.2908C170.069 68.5949 170.339 68.9235 170.577 69.2728C170.577 69.2728 171.62 70.71 169.747 71.1189Z" fill="#FCA69D"/>
<path d="M169.746 71.1189C167.853 70.9645 166.962 70.3154 166.657 69.653C167.485 70.5707 168.81 70.3672 169.226 69.7664C169.642 69.1656 169.772 68.2898 169.772 68.2898C170.07 68.5939 170.34 68.9225 170.579 69.2718C170.579 69.2718 171.62 70.71 169.746 71.1189Z" fill="#EA847D"/>
<path d="M183.048 71.9101C182.56 72.1107 182.044 72.2402 181.516 72.294C181.071 72.3427 180.623 72.3624 180.175 72.3529C177.974 72.3243 175.527 71.8003 173.681 72.2163C170.959 72.8278 169.309 70.8388 169.309 70.8388C169.309 70.8388 169.461 68.7347 170.798 68.8427C172.134 68.9507 177.805 67.7777 177.965 66.6046C178.126 65.4316 172.817 58.8379 178.198 56.7444C181.115 55.6107 182.459 58.4406 183.048 62.3195C183.349 64.3005 184.026 66.468 184.265 68.2633C184.501 69.9836 184.331 71.3611 183.048 71.9101Z" fill="#8978F7"/>
<path d="M177.105 49.4255C175.945 50.6601 174.277 51.6733 174.277 51.6733C174.277 51.6733 175.668 49.4621 174.223 48.8497C172.779 48.2373 172.512 50.2289 172.512 50.2289C172.512 50.2289 170.746 48.8006 171.282 47.6276C171.282 47.6276 163.525 51.0958 161.117 45.9439C160.151 43.8755 160.254 42.4151 161.058 41.5474C161.058 41.5474 160.664 45.2075 164.688 46.1305C168.711 47.0536 171.6 45.1405 172.364 45.6761C173.128 46.2118 172.364 47.9079 172.364 47.9079C172.364 47.9079 175.172 47.3125 175.533 47.9079C175.893 48.5033 175.147 50.1548 177.105 49.4255Z" fill="#3D2042"/>
<path d="M183.048 71.9101C182.56 72.1107 182.044 72.2402 181.516 72.294C181.071 72.3427 180.623 72.3624 180.175 72.3529C184.246 71.928 184.268 68.3356 184.268 68.2642C184.501 69.9836 184.331 71.3611 183.048 71.9101Z" fill="#614BF4"/>
<path d="M202.145 77.5403L201.725 76.5324C201.031 76.7707 200.266 76.8439 199.771 76.7422L199.659 75.6539C200.296 75.7501 200.947 75.6861 201.549 75.4682C202.236 75.2085 202.571 74.7094 202.363 74.2104C202.168 73.7426 201.662 73.5855 200.739 73.6096C199.428 73.6471 198.483 73.431 198.081 72.4624C197.707 71.5697 198.081 70.6359 199.1 70.0333L198.677 69.0147L199.57 68.6772L199.972 69.6432C200.496 69.4512 201.058 69.374 201.618 69.4173L201.721 70.4886C201.168 70.4328 200.61 70.5038 200.092 70.6957C199.329 70.9841 199.212 71.4608 199.359 71.8143C199.536 72.2401 200.027 72.3312 201.1 72.3339C202.504 72.3089 203.279 72.6642 203.664 73.5891C204.031 74.472 203.713 75.4941 202.591 76.1342L203.036 77.2055L202.145 77.5403Z" fill="#F9D679"/>
<path d="M200.741 81.4102C198.979 81.4102 197.257 80.912 195.793 79.9788C194.328 79.0455 193.187 77.719 192.512 76.167C191.838 74.6151 191.662 72.9073 192.006 71.2598C192.349 69.6122 193.198 68.0988 194.443 66.911C195.689 65.7232 197.276 64.9143 199.003 64.5865C200.731 64.2588 202.522 64.427 204.149 65.0699C205.777 65.7127 207.168 66.8013 208.146 68.1981C209.125 69.5948 209.647 71.2369 209.647 72.9167C209.644 75.1685 208.705 77.3274 207.036 78.9196C205.366 80.5119 203.102 81.4076 200.741 81.4102ZM200.741 65.6705C199.238 65.6705 197.769 66.0955 196.519 66.8917C195.27 67.6879 194.296 68.8196 193.721 70.1437C193.146 71.4678 192.995 72.9248 193.288 74.3304C193.581 75.7361 194.305 77.0272 195.368 78.0406C196.431 79.054 197.784 79.7442 199.258 80.0238C200.732 80.3034 202.26 80.1599 203.649 79.6114C205.037 79.063 206.224 78.1342 207.059 76.9426C207.894 75.7509 208.339 74.3499 208.339 72.9167C208.336 70.996 207.535 69.1548 206.11 67.7969C204.686 66.439 202.755 65.6753 200.741 65.6732V65.6705Z" fill="#F9D679"/>
<path d="M59.3775 97.4603C59.0724 97.5274 58.7601 97.5598 58.447 97.5567C56.2686 97.5442 55.8633 97.5299 55.8633 97.5299V96.3693C55.8633 96.3693 56.7545 95.3997 57.568 94.9792C57.8273 94.8453 58.0782 94.7676 58.2907 94.7935C59.1519 94.8989 58.0716 95.5506 58.0229 95.5801C58.1062 95.556 60.6703 94.8087 61.173 95.4212C61.6036 95.9443 60.9155 97.1165 59.3775 97.4603Z" fill="#FFB7A8"/>
<path d="M59.377 97.4603C59.072 97.5274 58.7596 97.5598 58.4465 97.5567C56.2681 97.5442 55.8628 97.5299 55.8628 97.5299V96.3694C55.8628 96.3694 56.754 95.3999 57.5675 94.9795C57.5675 94.9795 56.0931 97.2701 59.377 97.4603Z" fill="#EA847D"/>
<path d="M21.2444 138.637C21.3483 139.325 13.1001 137.448 13.1001 137.448C13.1001 137.448 12.5384 136.316 13.4231 134.474C13.7704 133.753 14.509 133.823 15.1886 134.096C15.7061 134.32 16.1905 134.609 16.6293 134.953C16.6293 134.953 19.8121 137.069 20.8887 138.153C21.0974 138.359 21.2276 138.528 21.2444 138.637Z" fill="#6D3842"/>
<path d="M21.2444 138.637C21.3483 139.325 13.1001 137.448 13.1001 137.448C13.1001 137.448 12.5384 136.316 13.4231 134.474C13.7704 133.753 14.509 133.823 15.1886 134.096C14.9724 134.81 14.7299 136.293 16.0995 137.059C17.5785 137.888 19.9909 138.101 20.8887 138.153C21.0974 138.359 21.2276 138.528 21.2444 138.637Z" fill="#3D2042"/>
<path d="M32.4357 139.05C32.4357 139.05 31.6933 138.015 32.2719 136.064C32.3954 135.647 32.6725 135.447 33.0151 135.378C33.9962 135.18 35.5174 136.064 35.5174 136.064C35.5174 136.064 38.895 137.634 40.185 138.552C40.4546 138.745 40.6324 138.909 40.6699 139.023C40.8843 139.686 32.4357 139.05 32.4357 139.05Z" fill="#6D3842"/>
<path d="M32.4357 139.05C32.4357 139.05 31.6933 138.015 32.2719 136.064C32.3954 135.648 32.6725 135.447 33.0151 135.378L33.3147 135.758C33.3147 135.758 35.26 139.472 40.185 138.552C40.4546 138.745 40.6324 138.909 40.6699 139.023C40.8843 139.686 32.4357 139.05 32.4357 139.05Z" fill="#3D2042"/>
<path d="M26.4146 124.05C26.0801 124.868 25.6775 125.658 25.2107 126.414C21.9483 131.746 15.9833 135.529 15.9833 135.529L13.3359 134.266C13.3359 134.266 21.1592 126.576 20.6771 118.082C20.4215 113.571 20.1322 109.189 19.9169 106.072C19.7297 103.32 19.594 101.554 19.594 101.554L28.2597 110.851C28.2597 110.851 29.0629 117.508 26.4146 124.05Z" fill="#000E94"/>
<path d="M26.4149 124.05C26.0803 124.867 25.6778 125.658 25.211 126.414C25.211 126.414 25.4516 119.306 24.4893 114.72C23.7469 111.183 21.0967 107.556 19.9172 106.075C19.73 103.324 19.5942 101.557 19.5942 101.557L28.26 110.855C28.26 110.855 29.0632 117.508 26.4149 124.05Z" fill="#14182D"/>
<path d="M35.5141 136.064H32.2723C32.2723 136.064 33.199 123.288 30.6677 117.393C27.9398 111.042 19.0326 106.528 19.3537 100.329C19.4913 97.6611 20.507 95.9997 21.6182 94.9731C23.0898 93.6135 24.7299 93.3662 24.7299 93.3662L30.9083 99.5644C30.9083 99.5644 31.8173 100.667 33.0118 102.809C34.4434 105.409 35.5936 108.142 36.4446 110.965C39.4935 120.913 35.5141 136.064 35.5141 136.064Z" fill="#000E94"/>
<path d="M32.6701 102.21C26.8829 102.216 25.6791 99.0547 24.9302 97.1157C24.1812 95.1767 21.6172 94.9731 21.6172 94.9731C23.0888 93.6135 24.7289 93.3662 24.7289 93.3662L30.9073 99.5644C30.9073 99.5644 31.4756 100.069 32.6701 102.21Z" fill="#14182D"/>
<path d="M45.5782 83.7768L43.1686 85.2292L42.811 85.4443C42.811 85.4443 40.7787 83.4947 41.8618 82.3083C42.8569 81.7968 43.4851 81.4816 43.8679 81.2951C44.2564 81.1049 44.3894 81.0469 44.3894 81.0469C44.3894 81.0469 46.4208 81.0228 45.5782 83.7768Z" fill="#FFB7A8"/>
<path d="M45.5786 83.7768L43.1689 85.2292C43.1933 85.1694 44.0938 83.0073 43.8673 81.296C44.2558 81.1059 44.3887 81.0479 44.3887 81.0479C44.3887 81.0479 46.4211 81.0229 45.5786 83.7768Z" fill="#EA847D"/>
<path d="M52.7434 81.2316C52.6545 81.9243 52.4477 82.5985 52.1312 83.2277C51.55 83.7566 50.9384 84.2544 50.2992 84.7186C49.1918 85.522 47.81 86.3255 46.8355 86.2505C44.9502 86.0969 44.3885 81.0468 44.3885 81.0468C44.3314 81.0289 43.2651 80.6843 43.6396 79.5613C43.8811 78.8471 44.3604 78.1445 44.689 77.7178C44.8884 77.4571 45.0325 77.2982 45.0325 77.2982L45.9687 77.2089L49.8443 76.8394C50.3236 77.0315 50.77 77.2908 51.1689 77.6089C52.0254 78.282 52.9447 79.4399 52.7434 81.2316Z" fill="#FFB7A8"/>
<path d="M48.1633 78.8857C47.4195 79.2395 46.6949 79.6289 45.9924 80.0525C45.9924 80.0525 45.0703 79.1535 44.4281 79.5927C43.7859 80.032 43.5266 80.6059 44.3851 81.046C44.328 81.0282 43.2617 80.6836 43.6362 79.5606C43.8777 78.8464 44.357 78.1439 44.6856 77.7172L45.9681 77.2083L48.5396 76.188L51.0672 77.3744L51.1683 77.6083L52.7419 81.2317C52.653 81.9244 52.4462 82.5986 52.1297 83.2278C51.5848 83.7319 51.0077 84.2033 50.4016 84.6392C50.4016 84.6392 49.4224 83.6867 49.3531 81.6772C49.2295 78.0412 49.0957 78.4617 48.1633 78.8857Z" fill="#EA847D"/>
<path d="M56.8258 83.878C48.4802 86.6329 50.4068 77.986 49.8451 77.6548C49.2834 77.3236 45.9929 80.0526 45.9929 80.0526C45.1102 77.8333 43.6376 79.5607 43.6376 79.5607C43.6376 79.5607 42.3776 76.2326 43.9831 74.3963C45.5885 72.56 48.0796 73.8544 48.0796 73.8544C48.0796 73.8544 47.4374 71.7887 50.1653 71.6351C52.8932 71.4816 53.4558 77.2209 53.4558 77.2209C53.4558 77.2209 56.5047 71.7119 60.2755 72.2475C61.3895 72.4055 62.2722 73.2438 62.7478 74.4186C63.8842 77.2236 62.7057 81.9372 56.8258 83.878Z" fill="#6D3842"/>
<path d="M43.9693 87.1129C43.4722 88.9707 41.643 91.3087 39.2137 92.5202C35.6031 94.3181 33.4547 97.0552 32.9557 98.9862C32.2733 101.626 28.7834 99.9048 27.5393 97.7622C27.1775 97.163 26.713 96.6259 26.165 96.1732L26.1566 96.1669C24.9237 95.11 23.5532 94.4529 23.4072 93.5531C23.0187 91.1686 28.5559 88.7832 29.7588 87.1388C30.9617 85.4944 35.033 82.2467 37.2479 81.5423C39.5348 80.8157 42.1157 81.1344 42.2899 82.0851C42.2899 82.0851 42.2168 83.4305 43.6641 84.9276C44.1359 85.4212 44.2108 86.2059 43.9693 87.1129Z" fill="#8978F7"/>
<path d="M43.9678 87.1175C43.4707 88.9752 41.6415 91.3132 39.2123 92.5246C35.6016 94.3226 33.4532 97.0596 32.9543 98.9906C32.2718 101.63 28.7819 99.9092 27.5378 97.7667C27.1761 97.1675 26.7116 96.6303 26.1636 96.1776C28.7211 98.3202 33.559 95.4706 34.8396 91.6069C35.4949 89.6215 35.5455 86.6666 35.5455 86.6666C35.5455 86.6666 37.3241 85.6123 42.0853 86.8014C42.8388 89.7037 43.9154 87.238 43.9678 87.1175Z" fill="#614BF4"/>
<path d="M56.1832 97.8559C55.4829 97.9387 54.7986 98.0104 54.1302 98.0711C53.8494 98.0952 53.5789 98.1184 53.3083 98.1389L53.1904 98.1479C47.3798 98.5835 42.9575 98.0907 40.9374 96.7329C38.5839 95.1519 32.3624 84.5678 37.4877 83.2466C40.4318 82.4869 41.9811 84.4134 42.3818 88.7752C42.7825 93.137 48.8813 94.3609 52.3319 94.7439C53.6556 94.8903 54.5665 95.0117 55.1853 95.1117C56.1804 95.2688 56.4238 95.3563 56.4238 95.3563C56.4238 95.3563 57.1464 96.8864 56.1832 97.8559Z" fill="#8978F7"/>
<path d="M56.8264 83.878C48.4808 86.6329 50.4073 77.986 49.8457 77.6548C49.284 77.3236 45.9935 80.0526 45.9935 80.0526C45.1107 77.8333 43.6382 79.5607 43.6382 79.5607C43.6382 79.5607 43.7065 77.7181 44.7906 77.4887C45.8746 77.2593 46.1011 78.6751 46.1011 78.6751C46.1011 78.6751 48.8421 75.8818 50.046 75.614C51.2498 75.3462 52.0437 77.0727 52.2122 78.56C52.493 81.0471 54.78 83.7637 59.514 81.0471C64.1946 78.3636 62.7839 74.5133 62.7492 74.4204C63.8848 77.2236 62.7062 81.9372 56.8264 83.878Z" fill="#3D2042"/>
<path d="M56.1833 97.8559C55.4831 97.9386 54.7988 98.0103 54.1304 98.071C55.4035 97.4462 55.2397 95.6126 55.1854 95.1118C56.1805 95.2689 56.4239 95.3564 56.4239 95.3564C56.4239 95.3564 57.1466 96.8865 56.1833 97.8559Z" fill="#6D3842"/>
<defs>
<linearGradient id="paint0_linear_0_1" x1="81.1889" y1="116.293" x2="86.9564" y2="117.513" gradientUnits="userSpaceOnUse">
<stop stop-color="#FFCE8D"/>
<stop offset="1" stop-color="#FEC989"/>
</linearGradient>
<linearGradient id="paint1_linear_0_1" x1="9901.94" y1="8837.16" x2="10275.9" y2="8969.37" gradientUnits="userSpaceOnUse">
<stop stop-color="#FFCE8D"/>
<stop offset="1" stop-color="#FEC989"/>
</linearGradient>
<linearGradient id="paint2_linear_0_1" x1="7479.61" y1="6395.44" x2="7850.13" y2="6508.94" gradientUnits="userSpaceOnUse">
<stop stop-color="#FFCE8D"/>
<stop offset="1" stop-color="#FEC989"/>
</linearGradient>
<linearGradient id="paint3_linear_0_1" x1="7924.8" y1="6053.63" x2="8295.37" y2="6167.02" gradientUnits="userSpaceOnUse">
<stop stop-color="#FFCE8D"/>
<stop offset="1" stop-color="#FEC989"/>
</linearGradient>
<linearGradient id="paint4_linear_0_1" x1="7628.2" y1="5839.54" x2="7998.67" y2="5953.01" gradientUnits="userSpaceOnUse">
<stop stop-color="#FFCE8D"/>
<stop offset="1" stop-color="#FEC989"/>
</linearGradient>
<linearGradient id="paint5_linear_0_1" x1="7975.9" y1="5498.92" x2="8346.45" y2="5612.27" gradientUnits="userSpaceOnUse">
<stop stop-color="#FFCE8D"/>
<stop offset="1" stop-color="#FEC989"/>
</linearGradient>
</defs>
</svg>
