<svg width="219" height="152" viewBox="0 0 219 152" fill="none" xmlns="http://www.w3.org/2000/svg">
<path opacity="0.24" d="M16.174 110.29C50.0001 157.615 136.049 163.225 183.779 131.757C192.511 126.065 217.944 109.233 218.792 82.6434C218.876 80.9358 219.47 58.168 203.532 46.8653C187.254 35.3188 173.775 49.9553 147.494 43.6941C114.431 35.7253 113.668 7.42814 78.9091 1.3296C60.1733 -1.92295 45.083 3.60639 40.7594 5.39529C38.3856 6.37106 15.1566 16.21 4.89858 39.4658C-9.85266 72.8044 13.6306 106.794 16.174 110.29Z" fill="#6864F9"/>
<path d="M191.86 20.3551L191.979 20.4694L191.776 20.6614L187.559 36.0467L182.733 31.4428L181.603 30.3648L141.952 68.1853H88.9912L38.7638 116.091L29.2998 107.065L83.4472 55.4196H136.408L172.14 21.339L165.966 15.4513L188.668 9.79129L195.202 8.16187L191.86 20.3551Z" fill="#82EEC8"/>
<path d="M176.778 25.7617L181.604 30.3647L141.952 68.1852H88.9918L38.7644 116.091L33.9375 111.487L84.1649 63.5813H137.126L176.778 25.7617Z" fill="#44E5AD"/>
<path d="M191.861 20.355L191.98 20.4693L191.777 20.6614L187.56 36.0466L182.734 31.4428L186.951 16.0584L187.154 15.8655L187.034 15.7521L188.669 9.79128L195.203 8.16187L191.861 20.355Z" fill="#44E5AD"/>
<path d="M123.675 85.4111C123.675 86.7662 122.991 85.4413 121.317 86.0731C119.643 86.705 119.664 83.8448 117.962 83.6335C116.259 83.4223 116.099 85.0792 114.425 84.2956C112.751 83.5119 111.741 82.7292 110.225 83.3921C109.165 82.7722 108.308 81.8203 107.684 80.958C107.227 80.3292 106.83 79.662 106.499 78.9647C106.499 78.9647 107.604 77.6388 108.583 74.8984C109.562 72.158 110.98 71.4347 112.562 71.2536C114.143 71.0726 112.37 72.82 115.467 72.8803C118.565 72.9407 117.709 74.3562 119.352 76.4346C119.596 76.7425 119.882 77.0191 120.2 77.2575C121.695 78.3859 123.297 78.3109 122.92 80.6773C122.428 83.7542 123.675 84.056 123.675 85.4111Z" fill="#A39CD3"/>
<path d="M123.676 85.4114C123.676 86.7665 122.991 85.4415 121.317 86.0734C119.643 86.7052 119.665 83.845 117.962 83.6338C116.259 83.4226 116.099 85.0794 114.425 84.2958C112.752 83.5122 111.741 82.7295 110.226 83.3924C109.165 82.7725 108.308 81.8206 107.684 80.9583C107.964 80.3804 108.184 79.9324 108.184 79.9324C108.184 79.9324 110.346 78.9979 112.339 79.5776C114.122 80.097 119.178 81.2089 120.2 77.2615C121.695 78.3898 123.297 78.3148 122.92 80.6813C122.428 83.7545 123.676 84.0562 123.676 85.4114Z" fill="#7267BB"/>
<path d="M110.223 83.3932L109.76 83.6675L104.455 79.7357C104.644 79.4906 104.864 79.2691 105.111 79.0765C105.622 78.6769 106.391 78.3002 107.276 78.6111C108.789 79.1432 109.362 80.6281 110.096 81.5178C110.137 81.5681 110.179 81.6166 110.222 81.6632C111.023 82.519 110.223 83.3932 110.223 83.3932Z" fill="#F9D679"/>
<path d="M110.223 83.3932L109.76 83.6675L104.455 79.7357C104.644 79.4905 104.864 79.269 105.111 79.0764C105.741 79.5043 106.439 79.832 107.179 80.0466C108.485 80.4013 109.116 80.7342 109.454 81.3148C109.634 81.6229 109.893 81.6037 110.096 81.5178C110.137 81.5681 110.179 81.6165 110.222 81.6632C111.023 82.519 110.223 83.3932 110.223 83.3932Z" fill="#F4B40B"/>
<path d="M109.655 85.7422C109.655 85.7422 110.939 84.8086 110.709 83.6639C110.479 82.5191 109.572 82.5996 109.046 81.7364C108.52 80.8733 106.937 80.652 105.786 79.8492C104.636 79.0464 103.39 79.0263 102.734 79.4277C102.078 79.8291 102.292 81.4557 102.292 81.4557L109.655 85.7422Z" fill="#F9D679"/>
<path d="M121.907 110.353C121.844 117.516 121.692 125.88 103.481 130.947C96.8053 132.805 90.9594 132.067 86.2926 129.898C79.4257 126.706 75.1146 120.416 74.4761 114.742C73.2423 103.777 83.2067 97.4728 89.8857 92.9914C96.5647 88.51 97.9069 86.0421 98.0018 83.6647C98.0928 81.3897 101.43 79.528 105.986 81.7116C106.196 81.8116 106.408 81.9207 106.623 82.0389C109.963 83.8741 110.476 85.563 111.013 88.7258C111.55 91.8887 112.623 92.7317 115.466 95.292C118.308 97.8523 121.971 103.192 121.907 110.353Z" fill="#A39CD3"/>
<path d="M121.906 110.353C121.843 117.516 121.692 125.88 103.481 130.947C96.8047 132.805 90.9588 132.067 86.292 129.898C120.057 134.42 116.586 107.519 111.52 102.009C107.671 97.8259 106.056 95.0599 108.014 89.4529C109.973 83.846 105.945 81.71 105.945 81.71H105.985C106.195 81.8099 106.407 81.919 106.621 82.0373C109.961 83.8725 110.474 85.5613 111.011 88.7242C111.548 91.887 112.622 92.7301 115.464 95.2903C118.307 97.8506 121.971 103.192 121.906 110.353Z" fill="#7267BB"/>
<path d="M92.2256 111.396L92.2946 110.323C91.565 110.258 90.847 110.016 90.4453 109.726L90.8288 108.704C91.3576 109.046 91.971 109.25 92.6081 109.297C93.3395 109.34 93.8601 109.022 93.8936 108.494C93.9253 107.995 93.5399 107.651 92.7001 107.305C91.5085 106.813 90.753 106.236 90.8192 105.207C90.8805 104.255 91.6235 103.561 92.8075 103.434L92.8765 102.349L93.8285 102.405L93.7623 103.434C94.3175 103.472 94.8568 103.629 95.3403 103.892L94.9616 104.892C94.4901 104.62 93.9573 104.46 93.4076 104.424C92.5956 104.376 92.2792 104.759 92.2572 105.134C92.2284 105.592 92.6292 105.866 93.5917 106.301C94.8619 106.841 95.4035 107.473 95.3403 108.458C95.2799 109.399 94.5427 110.189 93.2533 110.314L93.1804 111.455L92.2256 111.396Z" fill="#F9D679"/>
<path d="M89.2583 114.31C87.6762 113.602 86.3496 112.463 85.4464 111.036C84.5432 109.609 84.1039 107.959 84.1841 106.294C84.2643 104.629 84.8605 103.024 85.8971 101.682C86.9337 100.34 88.3642 99.3214 90.0078 98.7551C91.6513 98.1887 93.4341 98.0999 95.1305 98.5C96.827 98.9001 98.3609 99.771 99.5384 101.003C100.716 102.234 101.484 103.771 101.746 105.419C102.007 107.067 101.75 108.752 101.008 110.261C100.01 112.282 98.2131 113.843 96.0106 114.602C93.808 115.361 91.3798 115.256 89.2583 114.31ZM96.2077 100.17C94.8578 99.5665 93.3506 99.3583 91.8766 99.5718C90.4026 99.7852 89.0281 100.411 87.9268 101.369C86.8256 102.328 86.0471 103.576 85.6898 104.957C85.3325 106.338 85.4124 107.788 85.9195 109.125C86.4265 110.463 87.338 111.626 88.5385 112.47C89.739 113.313 91.1747 113.797 92.664 113.862C94.1534 113.927 95.6294 113.569 96.9056 112.834C98.1817 112.099 99.2006 111.019 99.8334 109.732C100.68 108.005 100.773 106.028 100.093 104.236C99.4137 102.443 98.0163 100.981 96.2077 100.17Z" fill="#F9D679"/>
<path d="M170.186 112.939V117.678C170.186 118.825 162.833 119.756 153.762 119.756C144.691 119.756 137.337 118.825 137.337 117.678V112.939H170.186Z" fill="#FFB850"/>
<path d="M153.765 115.018C162.836 115.018 170.19 114.087 170.19 112.939C170.19 111.792 162.836 110.861 153.765 110.861C144.694 110.861 137.34 111.792 137.34 112.939C137.34 114.087 144.694 115.018 153.765 115.018Z" fill="#FFC67B"/>
<path d="M153.765 114.562C161.453 114.562 167.686 113.836 167.686 112.939C167.686 112.043 161.453 111.316 153.765 111.316C146.077 111.316 139.844 112.043 139.844 112.939C139.844 113.836 146.077 114.562 153.765 114.562Z" fill="#F9D679"/>
<path d="M169.388 114.254C169.399 115.347 169.41 116.441 169.422 117.534C165.957 118.467 162.373 118.938 158.773 118.935L158.706 115.687C162.324 115.761 165.931 115.277 169.388 114.254V114.254Z" fill="#F19A6A"/>
<path d="M145.695 115.554V118.765C144.341 118.686 142.992 118.539 141.654 118.326C140.9 118.205 140.176 118.068 139.486 117.919V114.675C140.171 114.835 140.895 114.982 141.654 115.109C142.991 115.335 144.34 115.483 145.695 115.554V115.554Z" fill="url(#paint0_linear_351_224)"/>
<path d="M175.948 107.449L175.671 112.18C175.604 113.325 168.209 113.864 159.152 113.382C150.094 112.9 142.807 111.581 142.874 110.434L143.152 105.703L175.948 107.449Z" fill="#FFB850"/>
<path d="M175.938 107.44C176.005 106.294 168.717 104.974 159.659 104.493C150.602 104.012 143.206 104.55 143.139 105.696C143.072 106.842 150.36 108.162 159.417 108.643C168.474 109.125 175.871 108.586 175.938 107.44Z" fill="#FFC67B"/>
<path d="M173.437 107.307C173.489 106.412 167.309 105.356 159.633 104.948C151.956 104.539 145.691 104.934 145.639 105.829C145.586 106.724 151.767 107.781 159.443 108.189C167.12 108.597 173.385 108.202 173.437 107.307Z" fill="#F9D679"/>
<path d="M175.075 108.719L174.917 111.995C171.403 112.743 167.798 113.023 164.203 112.828L164.326 109.582C167.934 109.848 171.564 109.556 175.075 108.719V108.719Z" fill="#F19A6A"/>
<path d="M151.34 108.757L151.148 111.969C149.801 111.817 148.463 111.599 147.14 111.316C146.393 111.156 145.679 110.98 144.998 110.794L145.19 107.556C145.861 107.752 146.579 107.938 147.33 108.104C148.651 108.399 149.99 108.617 151.34 108.757V108.757Z" fill="url(#paint1_linear_351_224)"/>
<path d="M168.667 100.904V105.643C168.667 106.79 161.314 107.721 152.243 107.721C143.172 107.721 135.818 106.79 135.818 105.643V100.904H168.667Z" fill="#FFB850"/>
<path d="M152.242 102.984C161.313 102.984 168.667 102.053 168.667 100.906C168.667 99.7577 161.313 98.8271 152.242 98.8271C143.171 98.8271 135.817 99.7577 135.817 100.906C135.817 102.053 143.171 102.984 152.242 102.984Z" fill="#FFC67B"/>
<path d="M152.242 102.529C159.93 102.529 166.163 101.802 166.163 100.906C166.163 100.009 159.93 99.2825 152.242 99.2825C144.554 99.2825 138.321 100.009 138.321 100.906C138.321 101.802 144.554 102.529 152.242 102.529Z" fill="#F9D679"/>
<path d="M167.866 102.219C167.877 103.312 167.888 104.405 167.9 105.499C164.435 106.432 160.851 106.903 157.251 106.9L157.184 103.652C160.802 103.725 164.409 103.242 167.866 102.219V102.219Z" fill="#F19A6A"/>
<path d="M144.173 103.519V106.735C142.819 106.655 141.47 106.509 140.132 106.296C139.378 106.175 138.654 106.038 137.964 105.889V102.645C138.649 102.805 139.373 102.952 140.132 103.079C141.469 103.303 142.818 103.45 144.173 103.519V103.519Z" fill="url(#paint2_linear_351_224)"/>
<path d="M175.098 93.7725V98.5107C175.098 99.6583 167.745 100.589 158.674 100.589C149.603 100.589 142.25 99.6583 142.25 98.5107V93.7725H175.098Z" fill="#FFB850"/>
<path d="M158.673 95.8516C167.744 95.8516 175.098 94.921 175.098 93.7732C175.098 92.6253 167.744 91.6948 158.673 91.6948C149.602 91.6948 142.248 92.6253 142.248 93.7732C142.248 94.921 149.602 95.8516 158.673 95.8516Z" fill="#FFC67B"/>
<path d="M158.673 95.3962C166.361 95.3962 172.594 94.6696 172.594 93.7732C172.594 92.8768 166.361 92.1501 158.673 92.1501C150.985 92.1501 144.752 92.8768 144.752 93.7732C144.752 94.6696 150.985 95.3962 158.673 95.3962Z" fill="#FF9350"/>
<path d="M174.297 95.0872C174.308 96.1801 174.319 97.2734 174.33 98.367C170.865 99.2999 167.282 99.7713 163.681 99.7678L163.614 96.52C167.233 96.5934 170.84 96.1096 174.297 95.0872Z" fill="#F19A6A"/>
<path d="M150.604 96.3864V99.6023C149.25 99.523 147.901 99.3765 146.563 99.1634C145.809 99.0427 145.085 98.9055 144.395 98.7565V95.5122C145.08 95.6731 145.804 95.8194 146.563 95.9465C147.9 96.1704 149.249 96.3173 150.604 96.3864V96.3864Z" fill="url(#paint3_linear_351_224)"/>
<path d="M170.813 89.3223V94.0605C170.813 95.2081 163.46 96.1389 154.389 96.1389C145.318 96.1389 137.964 95.2081 137.964 94.0605V89.3223H170.813Z" fill="#FFB850"/>
<path d="M154.389 91.4041C163.46 91.4041 170.814 90.4735 170.814 89.3257C170.814 88.1778 163.46 87.2473 154.389 87.2473C145.318 87.2473 137.964 88.1778 137.964 89.3257C137.964 90.4735 145.318 91.4041 154.389 91.4041Z" fill="#FFC67B"/>
<path d="M154.388 90.9487C162.076 90.9487 168.309 90.2221 168.309 89.3257C168.309 88.4293 162.076 87.7026 154.388 87.7026C146.7 87.7026 140.467 88.4293 140.467 89.3257C140.467 90.2221 146.7 90.9487 154.388 90.9487Z" fill="#F9D679"/>
<path d="M170.011 90.6396C170.022 91.7327 170.034 92.826 170.045 93.9197C166.58 94.8526 162.997 95.324 159.396 95.3205L159.329 92.0725C162.948 92.146 166.555 91.6621 170.011 90.6396V90.6396Z" fill="#F19A6A"/>
<path d="M146.316 91.939V95.1548C144.962 95.0755 143.613 94.929 142.275 94.7159C141.52 94.5952 140.797 94.4581 140.106 94.309V91.0649C140.792 91.225 141.516 91.3722 142.275 91.4993C143.611 91.7231 144.961 91.87 146.316 91.939V91.939Z" fill="url(#paint4_linear_351_224)"/>
<path d="M175.836 82.104V86.8423C175.836 87.9898 168.483 88.9207 159.412 88.9207C150.341 88.9207 142.987 87.9898 142.987 86.8423V82.104H175.836Z" fill="#FFB850"/>
<path d="M159.412 84.1821C168.483 84.1821 175.836 83.2516 175.836 82.1038C175.836 80.9559 168.483 80.0254 159.412 80.0254C150.34 80.0254 142.987 80.9559 142.987 82.1038C142.987 83.2516 150.34 84.1821 159.412 84.1821Z" fill="#FFC67B"/>
<path d="M159.412 83.7268C167.1 83.7268 173.332 83.0001 173.332 82.1038C173.332 81.2074 167.1 80.4807 159.412 80.4807C151.723 80.4807 145.491 81.2074 145.491 82.1038C145.491 83.0001 151.723 83.7268 159.412 83.7268Z" fill="#F9D679"/>
<path d="M175.035 83.4187C175.046 84.5117 175.057 85.605 175.069 86.6985C171.604 87.6314 168.02 88.1028 164.42 88.0993L164.353 84.8515C167.971 84.925 171.578 84.4411 175.035 83.4187V83.4187Z" fill="#F19A6A"/>
<path d="M151.341 84.7174V87.9331C149.987 87.8538 148.638 87.7073 147.3 87.4942C146.546 87.3735 145.822 87.2364 145.132 87.0873V83.8433C145.817 84.0042 146.541 84.1505 147.3 84.2776C148.637 84.5014 149.986 84.6483 151.341 84.7174V84.7174Z" fill="url(#paint5_linear_351_224)"/>
<path d="M35.9564 87.1603C34.7197 89.5633 30.4134 90.2893 27.6055 88.5492C26.7474 88.0212 26.0673 87.268 25.647 86.3803C26.283 85.8695 26.8614 85.2968 27.3726 84.6713C27.8347 84.1083 28.2275 83.4966 28.5431 82.848C28.6545 82.6233 28.7484 82.391 28.824 82.1531L34.3018 82.6432C34.4527 83.3855 34.6508 84.1184 34.8952 84.8377V84.8377C35.1579 85.6067 35.5087 86.4553 35.9564 87.1603Z" fill="#FCA69D"/>
<path d="M34.8952 84.8359C31.8745 87.5523 28.3983 85.4146 27.3726 84.6694C27.8347 84.1065 28.2275 83.4948 28.5431 82.8463C28.6545 82.6215 28.7484 82.3893 28.824 82.1514L34.3018 82.6414C34.4527 83.3837 34.6508 84.1166 34.8952 84.8359Z" fill="#E57673"/>
<path d="M40.2357 113.827C36.2419 115.461 21.1784 116.985 20.9492 112.63C20.9425 112.51 20.9368 112.386 20.931 112.254C20.8553 110.552 20.8016 107.834 20.7393 104.875C20.6846 102.25 20.6223 99.4342 20.5293 96.9717C20.4392 94.5815 20.3203 92.5232 20.1516 91.2952C19.4671 86.3018 19.8094 85.3517 26.4875 85.6379C26.4875 85.6379 27.6829 87.5225 30.8015 87.6496C33.92 87.7767 34.7013 86.1299 35.8239 85.6379C36.9465 85.146 40.3172 85.7202 41.3084 86.5304C42.0888 87.1704 41.7744 90.689 41.5903 94.2359C41.5021 95.9284 41.4436 97.6283 41.5491 99.0236C42.061 105.882 44.2295 112.195 40.2357 113.827Z" fill="#8978F7"/>
<path d="M20.7383 104.875C20.6836 102.25 20.6213 99.4351 20.5283 96.9727L22.2041 93.1113C22.2041 93.1113 23.8367 102.417 20.7383 104.875Z" fill="#614BF4"/>
<path d="M40.2358 113.827C36.242 115.461 21.1785 116.985 20.9494 112.63C20.9427 112.51 20.9369 112.386 20.9312 112.254C22.3385 114.978 27.9294 114.523 33.6728 112.469C38.6953 110.672 39.6079 105.121 39.0941 100.765C38.5802 96.4085 40.0374 90.145 40.0374 90.145L41.5895 94.2405C41.5013 95.9331 41.4428 97.6329 41.5483 99.0282C42.0611 105.882 44.2296 112.195 40.2358 113.827Z" fill="#614BF4"/>
<path d="M47.7739 105.337C46.1758 107.842 40.1851 112.47 40.1851 112.47L39.5581 108.932C39.5581 108.932 42.0688 105.613 42.9249 104.141C42.9249 102.782 41.8589 100.417 41.8589 100.417C42.0861 97.5331 46.1729 97.2844 46.1729 97.2844C46.5213 97.9109 46.8358 98.5539 47.1153 99.2111C47.9109 101.055 48.7661 103.785 47.7739 105.337Z" fill="#FCA69D"/>
<path d="M47.1186 99.2094C44.9137 100.421 42.9244 104.141 42.9244 104.141C42.9244 102.781 41.8584 100.416 41.8584 100.416C42.0856 97.5324 46.1724 97.2837 46.1724 97.2837C46.522 97.9098 46.8378 98.5525 47.1186 99.2094V99.2094Z" fill="#EA847D"/>
<path d="M22.2045 108.93L21.5775 112.468C21.5775 112.468 15.5858 107.842 13.9887 105.335C12.9658 103.734 13.9063 100.884 14.7154 99.039C15.1717 98.0003 15.5858 97.2798 15.5858 97.2798C15.5858 97.2798 19.6755 97.5285 19.8998 100.412C19.8998 100.412 18.8348 102.777 18.8348 104.137C19.6937 105.611 22.2045 108.93 22.2045 108.93Z" fill="#FCA69D"/>
<path d="M19.9031 100.415C19.9031 100.415 18.8381 102.78 18.8381 104.139C18.8381 104.139 16.6053 99.7622 14.7158 99.0408C15.1721 98.002 15.5863 97.2815 15.5863 97.2815C15.5863 97.2815 19.675 97.5311 19.9031 100.415Z" fill="#EA847D"/>
<path d="M41.3067 86.5325C41.3067 86.5325 43.0323 86.698 44.8001 92.0041C46.1259 95.9817 47.6243 96.331 47.3962 97.0387C47.168 97.7464 42.6028 101.257 41.3067 100.984C40.0106 100.712 38.6694 90.2037 41.3067 86.5325Z" fill="#8978F7"/>
<path d="M20.6879 86.5325C20.6879 86.5325 18.9623 86.698 17.1945 92.0041C15.8686 95.9817 14.3702 96.331 14.5984 97.0387C14.8266 97.7464 19.3917 101.257 20.6879 100.984C21.984 100.712 23.3252 90.2037 20.6879 86.5325Z" fill="#8978F7"/>
<path d="M36.614 78.5616C36.0877 81.3833 34.7724 84.8369 31.487 84.8369C28.2774 84.8369 26.5249 80.9152 26.0149 79.5592C25.9085 79.2775 25.8568 79.102 25.8568 79.102L24.4868 75.6191L25.8568 72.4271C25.8568 72.4271 35.291 71.7742 36.9648 74.9672C36.9517 76.1725 36.8343 77.3747 36.614 78.5616Z" fill="#FCA69D"/>
<path d="M36.6878 78.14C32.5349 80.115 28.611 75.0568 27.1308 75.5862C25.6315 76.1229 26.0111 79.4786 26.0149 79.5591C25.9085 79.2775 25.8568 79.1019 25.8568 79.1019L24.4868 75.6191L25.8568 72.4271C25.8568 72.4271 35.291 71.7742 36.9649 74.9672C36.9639 74.9663 37.0512 76.1933 36.6878 78.14Z" fill="#EA847D"/>
<path d="M38.5141 76.1075C30.8678 78.1191 27.2823 72.9556 26.3707 73.827C25.459 74.6984 25.8568 79.1057 25.8568 79.1057C25.8568 79.1057 21.2916 75.1337 21.5773 73.1741C21.863 71.2146 23.7976 71.6499 23.7976 71.6499C23.7976 71.6499 22.3721 68.765 24.7678 67.2956C27.1635 65.8262 34.2672 70.3432 33.7533 67.622C33.2395 64.9008 34.2394 60.3134 40.8015 61.2397C41.0363 61.2726 41.2682 61.3218 41.4955 61.3869V61.3869C47.2696 63.0318 45.8776 74.1681 38.5141 76.1075Z" fill="#6A3442"/>
<path d="M38.5143 76.1075C30.868 78.1191 27.2826 72.9556 26.3709 73.827C25.4592 74.6984 25.857 79.1057 25.857 79.1057C25.857 79.1057 22.7193 73.282 25.648 71.3234C27.459 70.1119 34.3594 75.0788 39.7903 71.0491C45.2211 67.0194 41.5015 61.385 41.5015 61.385C47.2698 63.0318 45.8778 74.1681 38.5143 76.1075Z" fill="#3D2042"/>
<path d="M46.3262 104.124V119.297C46.3262 119.646 46.1809 119.98 45.9224 120.227C45.6639 120.474 45.3132 120.612 44.9476 120.612H18.1701C17.8045 120.612 17.4538 120.474 17.1953 120.227C16.9367 119.98 16.7915 119.646 16.7915 119.297V104.124C16.7915 103.775 16.9367 103.441 17.1953 103.194C17.4538 102.948 17.8045 102.809 18.1701 102.809H44.9438C45.0199 102.809 45.0959 102.815 45.171 102.827C45.4934 102.878 45.7865 103.036 45.9981 103.273C46.2097 103.511 46.3259 103.812 46.3262 104.124V104.124Z" fill="#B7C5FF"/>
<path d="M34.0049 111.713C34.0049 112.331 33.7477 112.924 33.2897 113.362C32.8317 113.799 32.2104 114.045 31.5623 114.046C29.9239 114.046 28.8195 112.26 29.1167 111.713C29.3545 111.276 30.4358 111.733 31.0647 111.073C31.6466 110.46 31.1711 109.591 31.5623 109.383C32.0895 109.098 34.0049 110.14 34.0049 111.713Z" fill="white"/>
<g style="mix-blend-mode:multiply" opacity="0.5">
<path d="M46.3262 104.124V119.297C46.3262 119.646 46.1809 119.981 45.9224 120.227C45.6639 120.474 45.3132 120.612 44.9476 120.612H18.1701C17.8045 120.612 17.4538 120.474 17.1953 120.227C16.9367 119.981 16.7915 119.646 16.7915 119.297V116.127C34.1367 115.654 42.3736 106.748 45.1681 102.828C45.491 102.878 45.7848 103.035 45.997 103.273C46.2092 103.51 46.3258 103.812 46.3262 104.124V104.124Z" fill="#B7C5FF"/>
</g>
<path d="M16.5603 130.155C16.5603 130.155 15.3821 131.606 13.4792 134.002C12.6259 135.076 11.7421 136.079 10.9943 136.694C10.0769 137.452 9.36457 137.63 9.17955 136.649C8.83731 134.872 10.5111 132.151 11.6529 129.32C12.4889 128.812 14.5816 128.16 14.5816 128.16L15.6304 129.218L16.5603 130.155Z" fill="#8978F7"/>
<path d="M15.6324 129.218C15.6324 129.218 12.694 130.407 11.3251 133.529C9.95609 136.652 10.9953 136.694 10.9953 136.694C10.0778 137.452 9.36555 137.63 9.18053 136.649C8.83828 134.872 10.5121 132.151 11.6539 129.32C12.4898 128.812 14.5826 128.16 14.5826 128.16L15.6324 129.218Z" fill="#614BF4"/>
<path d="M47.5642 125.623C47.3485 125.697 47.0686 125.779 46.7321 125.867C42.9454 126.873 31.9284 128.783 24.0318 129.881C19.4456 130.521 15.9129 130.881 15.4633 130.629C14.1691 129.903 13.9419 128.526 14.3647 127.871C14.5363 127.606 15.1757 127.27 16.3884 126.735C18.1629 125.952 21.1683 124.746 25.7335 122.72C29.6535 120.982 34.8907 118.816 39.5603 117.474C44.0459 116.185 48.0071 115.655 49.772 116.987C53.0372 119.453 51.5992 124.241 47.5642 125.623Z" fill="#000E94"/>
<path d="M46.7319 125.864C42.9451 126.87 31.9282 128.78 24.0316 129.878L16.3882 126.732C18.1627 125.949 21.1681 124.743 25.7333 122.717C29.6532 120.98 34.8904 118.814 39.5601 117.471C39.5601 117.471 35.388 120.631 40.3136 123.459C43.7188 125.414 46.7319 125.864 46.7319 125.864Z" fill="#14182D"/>
<path d="M52.5986 136.649C52.4692 137.323 52.0924 137.449 51.5718 137.217C50.7196 136.835 49.48 135.487 48.2989 134.002C47.2061 132.626 46.3509 131.56 45.8208 130.903C45.4306 130.418 45.2178 130.155 45.2178 130.155L47.1965 128.16C47.1965 128.16 49.2883 128.813 50.1252 129.32C51.267 132.151 52.9408 134.872 52.5986 136.649Z" fill="#8978F7"/>
<path d="M52.5986 136.649C52.4692 137.323 52.0924 137.449 51.5719 137.217C53.1527 136.332 49.9354 131.731 48.9307 130.903C47.9261 130.076 45.8237 130.903 45.8237 130.903C45.4335 130.418 45.2207 130.155 45.2207 130.155L47.1994 128.16C47.1994 128.16 49.2912 128.813 50.1281 129.32C51.267 132.151 52.9408 134.872 52.5986 136.649Z" fill="#614BF4"/>
<path d="M12.0059 116.985C15.6115 114.265 28.3636 119.307 36.0473 122.717C43.731 126.127 46.9924 127.216 47.4162 127.869C47.8399 128.523 47.6079 129.901 46.3185 130.627C45.0291 131.353 18.2478 126.994 14.2157 125.623C10.1835 124.251 8.73784 119.452 12.0059 116.985Z" fill="#000E94"/>
<path d="M112.583 24.1926C112.566 25.1609 111.602 26.3724 110.729 27.3856C109.175 29.1887 106.585 30.2375 105.935 31.2625C104.928 32.8645 100.628 31.6785 99.218 36.6454C98.3724 39.6208 95.3047 40.4245 91.2812 39.5778C86.3095 38.5309 86.3095 36.7643 78.9872 40.8013C71.6649 44.8382 67.0997 39.4096 67.3729 33.0657C67.4209 31.9327 67.6605 30.9626 68.0363 30.1397C69.7792 26.3633 74.584 25.6812 78.39 26.2609C83.0261 26.9659 85.1668 22.9317 89.2229 22.1462C95.7486 20.8807 98.0254 25.6208 101.452 22.3529C103.228 20.6594 106.664 19.0017 109.719 20.194C112.194 21.1614 112.583 24.1926 112.583 24.1926Z" fill="#6D3842"/>
<path d="M105.939 31.2589C104.932 32.8609 100.632 31.6749 99.2219 36.6419C98.3763 39.6173 95.3086 40.4211 91.285 39.5744C86.3134 38.5274 86.3134 36.7608 78.9911 40.7978C71.6688 44.8348 67.1036 39.4061 67.3769 33.0621C67.4248 31.9291 67.6645 30.959 68.0403 30.136C66.1124 37.2957 75.5783 37.5819 80.4339 34.5251C85.7181 31.1949 91.7644 38.211 95.5492 34.1593C97.6458 31.9136 99.4577 29.496 104.16 28.7242C107.386 28.1966 107.007 28.2204 107.007 28.2204C107.007 28.2204 106.585 30.2366 105.939 31.2589Z" fill="#3D2042"/>
<path d="M129.46 51.558C129.412 52.4239 129.286 53.4873 129.104 54.8168C128.656 58.0967 127.475 62.0349 126.66 64.8284C126.234 66.2978 125.91 67.4508 125.852 68.0232C125.623 70.2616 126.688 71.7237 126.688 71.7237L125.205 71.8682L123.531 69.2558C123.531 69.2558 124.424 63.6863 124.139 60.6926C123.977 58.9882 123.796 57.4621 123.852 56.0905C123.89 55.0527 124.065 54.1045 124.483 53.2368C124.722 52.7403 124.468 52.3919 123.95 52.1514C122.368 51.4107 118.32 51.6585 118.32 51.6585L120.26 46.1348C120.26 46.1348 125.341 46.0717 127.563 47.3601C129.122 48.2662 129.591 49.1641 129.46 51.558Z" fill="#FFB7A8"/>
<path d="M129.46 51.5582C129.412 52.4241 129.286 53.4876 129.105 54.8171C128.656 58.0969 127.475 62.0352 126.66 64.8286C126.66 64.8286 125.432 60.5859 124.824 58.6264C124.235 56.7281 123.872 56.1274 123.851 56.0917C123.889 55.0539 124.064 54.1057 124.482 53.2379C124.722 52.7414 124.467 52.393 123.949 52.1526L125.725 48.1458C125.725 48.1458 128.947 52.5183 129.46 51.5582Z" fill="#EA847D"/>
<path d="M116.265 44.8064C115.523 46.5437 114.78 47.0923 114.78 47.0923L113.027 46.2977L110.101 44.971C110.101 44.971 110.614 40.453 112.097 38.6572C112.097 38.6572 112.441 39.5414 112.978 40.6396C113.806 42.3339 115.089 44.5421 116.265 44.8064Z" fill="#8978F7"/>
<path d="M113.183 45.9117C113.14 46.0431 113.089 46.1717 113.028 46.2966L110.102 44.9699C110.102 44.9699 110.615 40.4521 112.098 38.6562C112.098 38.6562 112.442 39.5404 112.979 40.6386C112.89 41.6124 112.682 44.4935 113.183 45.9117Z" fill="#614BF4"/>
<path d="M137.834 73.5151L133.84 71.2292C133.84 71.2292 132.074 66.8758 129.077 63.4469C126.08 60.018 125.338 57.4047 124.539 55.1188C124.142 53.9785 122.321 53.5835 120.598 53.4729C119.477 53.411 118.353 53.4339 117.235 53.5414L117.578 47.2825C117.578 47.2825 120.53 47.128 122.981 47.374C123.868 47.4654 124.69 47.6026 125.281 47.822C127.507 48.645 135.552 68.6196 136.18 69.4361C136.809 70.2526 137.659 71.3956 138.919 72.3749C139.363 72.7178 137.834 73.5151 137.834 73.5151Z" fill="#FFB7A8"/>
<path d="M122.98 47.3712C120.931 48.9421 120.603 51.827 120.597 53.4729C119.476 53.411 118.352 53.4339 117.234 53.5415L117.577 47.2825C117.577 47.2825 120.527 47.128 122.98 47.3712Z" fill="#EA847D"/>
<path d="M120.317 48.8872C118.433 52.3162 119.597 54.9222 116.493 55.7762C115.267 56.1136 108.788 55.4269 105.894 55.7442C105.333 55.8058 104.765 55.7748 104.215 55.6528C100.668 54.8728 98.5477 50.3942 102.277 46.5016C107.822 46.1075 110.789 46.4888 110.789 46.4888C110.789 46.4888 111.093 46.4358 111.587 46.3526C113.395 46.0518 117.761 45.3696 119.195 45.5415C121.019 45.7637 122.199 45.4592 120.317 48.8872Z" fill="#000E94"/>
<path d="M103.027 52.0274C101.487 54.2119 104.143 55.62 104.213 55.6584C100.666 54.8785 98.5457 50.3997 102.275 46.5072C107.82 46.113 110.787 46.4944 110.787 46.4944C110.787 46.4944 111.091 46.4413 111.585 46.3581L112.119 47.3457C111.092 50.1766 104.586 49.8136 103.027 52.0274Z" fill="#14182D"/>
<path d="M112.099 41.051C111.817 41.7069 111.633 42.3972 111.552 43.1019V43.1019C111.337 44.8923 111.755 46.3196 111.162 47.2605C110.809 47.8201 110.097 48.2087 108.677 48.398C107.074 48.611 105.817 48.6952 104.842 48.6568C101.086 48.5068 101.462 46.5537 102.232 43.2263C102.711 41.1488 102.338 39.4316 101.955 38.0582C101.571 36.6592 101.171 35.6141 101.66 34.9C102.63 33.4854 105.911 31.7454 105.911 31.7454L107.366 32.0197C107.998 32.0564 108.614 32.2201 109.175 32.5C109.735 32.7799 110.227 33.1696 110.619 33.6436C111.995 35.2758 113.811 37.078 112.099 41.051Z" fill="#8978F7"/>
<path d="M111.161 47.2605L105.69 47.0913C105.69 47.0913 104.866 47.7616 104.84 48.6567C101.084 48.5068 101.46 46.5537 102.229 43.2262C102.709 41.1488 102.336 39.4316 101.952 38.0582L104.979 36.0667C104.979 36.0667 106.376 38.092 106.609 40.0515C106.842 42.011 108.748 44.5859 111.556 43.101C111.337 44.8922 111.755 46.3196 111.161 47.2605Z" fill="#614BF4"/>
<path d="M109.426 32.5683C109.42 32.9202 109.434 33.2721 109.467 33.6226C109.502 33.8768 105.441 33.7954 105.909 31.7472C105.988 31.397 106.06 31.056 106.12 30.7506C106.263 30.0282 106.348 29.4988 106.348 29.4988C106.348 29.4988 109.145 29.7859 109.467 30.7378C109.467 30.7368 109.426 31.7161 109.426 32.5683Z" fill="#FFB7A8"/>
<path d="M109.467 30.7369C109.467 30.7369 109.426 31.7162 109.426 32.5657C108.946 32.1185 107.659 31.0295 106.12 30.7469C106.263 30.0246 106.347 29.4951 106.347 29.4951C106.347 29.4951 109.145 29.785 109.467 30.7369Z" fill="#EA847D"/>
<path d="M102.155 34.3239C105.268 34.0349 105.728 37.8397 105.5 40.5974C105.272 43.3552 107.591 43.6451 110.444 44.4799C113.297 45.3147 116.835 45.3504 116.835 45.3504C116.835 45.3504 116.682 46.8847 116.15 47.3565C115.618 47.8283 105.271 47.3821 102.722 46.7293C100.174 46.0764 97.8563 34.7225 102.155 34.3239Z" fill="#8978F7"/>
<path d="M142.703 75.4564C142.247 75.8917 137.871 75.1483 134.752 73.8956C131.632 72.6429 132.112 71.445 133.622 70.73C134.158 71.1081 134.721 71.4488 135.308 71.7495V71.7495C136.458 72.3347 137.934 72.8632 138.917 72.3704C140.851 73.5947 142.097 74.3683 142.576 74.8749C142.805 75.1272 142.853 75.3129 142.703 75.4564Z" fill="#8978F7"/>
<path d="M142.703 75.4564C142.247 75.8917 137.871 75.1483 134.752 73.8956C131.632 72.6429 132.112 71.445 133.622 70.73C134.158 71.1081 134.721 71.4488 135.308 71.7495V71.7495C135.171 72.2762 135.267 73.3716 137.976 74.1132C141.656 75.119 142.577 74.8776 142.577 74.8776C142.805 75.1272 142.853 75.3129 142.703 75.4564Z" fill="#614BF4"/>
<path d="M129.313 75.6824C128.834 76.082 123.683 73.1798 122.427 71.437C121.171 69.6942 123.531 69.2607 123.531 69.2607C123.848 69.7017 124.207 70.1132 124.605 70.4897C125.166 71.0218 125.899 71.5604 126.688 71.7277C127.742 73.1907 129.036 74.3172 129.372 75.046C129.502 75.313 129.499 75.527 129.313 75.6824Z" fill="#8978F7"/>
<path d="M112.583 30.041C111.112 34.0642 107.174 30.041 107.174 30.041C106.895 30.0973 106.607 30.0973 106.329 30.041H106.322C105.831 29.9432 105.242 29.6396 104.892 28.8057C104.207 27.1726 106.604 28.5149 106.604 28.5149C106.604 28.5149 113.371 27.8986 112.197 22.8577C112.201 22.8628 112.204 22.8683 112.207 22.8741C112.414 23.1686 114.129 25.8129 112.583 30.041Z" fill="#FFB7A8"/>
<path d="M129.313 75.6824C128.834 76.082 123.683 73.1798 122.427 71.437C121.171 69.6942 123.531 69.2607 123.531 69.2607C123.848 69.7017 124.207 70.1132 124.605 70.4897C124.51 71.0383 124.468 72.2498 125.643 73.1551C127.201 74.3575 129.286 75.591 129.376 75.0469C129.502 75.313 129.499 75.527 129.313 75.6824Z" fill="#614BF4"/>
<path d="M132.67 38.0015L129.507 46.7575C129.465 46.8793 129.384 46.9855 129.275 47.0613C129.167 47.137 129.036 47.1785 128.902 47.1799H115.638C115.532 47.1772 115.429 47.1507 115.337 47.1025C115.245 47.0542 115.166 46.9858 115.107 46.9027C115.048 46.8196 115.01 46.7243 114.997 46.6246C114.984 46.525 114.997 46.4238 115.033 46.3296L115.209 45.8413L118.193 37.5727C118.236 37.4509 118.316 37.3448 118.425 37.2692C118.533 37.1936 118.664 37.1523 118.798 37.1511H132.068C132.207 37.1506 132.342 37.1943 132.452 37.2755C132.563 37.3596 132.644 37.4749 132.683 37.605C132.722 37.7352 132.718 37.8739 132.67 38.0015Z" fill="#B7C5FF"/>
<path d="M107.939 45.7537H117.561V47.1802H107.939C107.871 47.1802 107.803 47.1673 107.74 47.1424C107.677 47.1174 107.619 47.0809 107.571 47.0347C107.523 46.9886 107.484 46.9339 107.458 46.8737C107.432 46.8134 107.418 46.7488 107.418 46.6836V46.2465C107.419 46.1155 107.475 45.9901 107.572 45.8978C107.67 45.8055 107.802 45.7537 107.939 45.7537V45.7537Z" fill="#B7C5FF"/>
<path d="M125.393 42.1777C125.393 42.5051 125.257 42.8191 125.014 43.0506C124.771 43.2821 124.442 43.4121 124.099 43.4121C123.236 43.4121 122.648 42.4666 122.805 42.1777C122.93 41.9464 123.503 42.1878 123.835 41.8376C124.143 41.513 123.892 41.053 124.099 40.9433C124.38 40.7942 125.393 41.3447 125.393 42.1777Z" fill="white"/>
<g style="mix-blend-mode:multiply" opacity="0.5">
<path d="M132.67 38.0017L129.507 46.7577C129.465 46.8795 129.384 46.9858 129.275 47.0615C129.167 47.1373 129.036 47.1788 128.902 47.1802H115.638C115.532 47.1775 115.429 47.1509 115.337 47.1027C115.245 47.0545 115.166 46.986 115.107 46.9029C115.048 46.8198 115.01 46.7245 114.997 46.6249C114.984 46.5252 114.997 46.4241 115.033 46.3298L115.209 45.8415C125.015 44.3785 131.151 38.607 132.451 37.2756C132.562 37.3597 132.643 37.4748 132.683 37.605C132.722 37.7352 132.718 37.8739 132.67 38.0017V38.0017Z" fill="#B7C5FF"/>
</g>
<path d="M159.329 82.4861C167.989 82.4861 175.01 75.7898 175.01 67.5295C175.01 59.2693 167.989 52.573 159.329 52.573C150.669 52.573 143.648 59.2693 143.648 67.5295C143.648 75.7898 150.669 82.4861 159.329 82.4861Z" fill="#F9D679"/>
<path d="M161.259 73.9255L160.684 72.5366C159.725 72.8658 158.671 72.9654 157.991 72.8265L157.837 71.3278C158.713 71.4606 159.611 71.3727 160.44 71.0727C161.386 70.7152 161.847 70.0276 161.561 69.3399C161.294 68.6999 160.596 68.4795 159.324 68.517C157.522 68.5691 156.216 68.2674 155.662 66.9361C155.15 65.7053 155.662 64.4197 157.068 63.5885L156.485 62.1859L157.716 61.7205L158.269 63.0518C158.991 62.7876 159.766 62.6813 160.536 62.7409L160.678 64.2112C160.252 64.1902 159.455 64.1106 158.435 64.4965C157.38 64.8933 157.223 65.5508 157.425 66.0381C157.669 66.6252 158.347 66.7504 159.822 66.7541C161.753 66.7193 162.825 67.2113 163.355 68.4832C163.861 69.7002 163.421 71.1083 161.877 71.9907L162.49 73.4656L161.259 73.9255Z" fill="#FFBA52"/>
<path d="M159.33 79.2583C156.903 79.2583 154.53 78.5719 152.512 77.2858C150.494 75.9998 148.921 74.1719 147.993 72.0332C147.064 69.8946 146.821 67.5413 147.294 65.271C147.768 63.0006 148.937 60.9152 150.653 59.2784C152.369 57.6415 154.555 56.5268 156.936 56.0752C159.316 55.6236 161.783 55.8554 164.025 56.7413C166.268 57.6271 168.184 59.1272 169.532 61.0519C170.881 62.9767 171.6 65.2395 171.6 67.5543C171.597 70.6574 170.303 73.6326 168.003 75.8268C165.702 78.0211 162.583 79.2552 159.33 79.2583ZM159.33 57.5712C157.259 57.5714 155.236 58.157 153.515 59.2539C151.794 60.3509 150.452 61.91 149.66 63.7341C148.868 65.5582 148.66 67.5654 149.064 69.5019C149.467 71.4384 150.464 73.2174 151.927 74.6137C153.391 76.0101 155.256 76.9613 157.286 77.347C159.316 77.7326 161.42 77.5355 163.333 76.7805C165.246 76.0255 166.881 74.7466 168.032 73.1053C169.183 71.4641 169.797 69.5342 169.798 67.5598C169.796 64.9119 168.693 62.3729 166.73 60.5002C164.767 58.6275 162.106 57.5741 159.33 57.5712V57.5712Z" fill="#FFBA52"/>
<defs>
<linearGradient id="paint0_linear_351_224" x1="140.425" y1="116.327" x2="146.112" y2="117.53" gradientUnits="userSpaceOnUse">
<stop stop-color="#FFCE8D"/>
<stop offset="1" stop-color="#FEC989"/>
</linearGradient>
<linearGradient id="paint1_linear_351_224" x1="14293.9" y1="9248.09" x2="14649.2" y2="9373.78" gradientUnits="userSpaceOnUse">
<stop stop-color="#FFCE8D"/>
<stop offset="1" stop-color="#FEC989"/>
</linearGradient>
<linearGradient id="paint2_linear_351_224" x1="11815.5" y1="6747.89" x2="12167.4" y2="6855.61" gradientUnits="userSpaceOnUse">
<stop stop-color="#FFCE8D"/>
<stop offset="1" stop-color="#FEC989"/>
</linearGradient>
<linearGradient id="paint3_linear_351_224" x1="12238.7" y1="6421.73" x2="12590.5" y2="6529.45" gradientUnits="userSpaceOnUse">
<stop stop-color="#FFCE8D"/>
<stop offset="1" stop-color="#FEC989"/>
</linearGradient>
<linearGradient id="paint4_linear_351_224" x1="11956.9" y1="6217.98" x2="12308.7" y2="6325.7" gradientUnits="userSpaceOnUse">
<stop stop-color="#FFCE8D"/>
<stop offset="1" stop-color="#FEC989"/>
</linearGradient>
<linearGradient id="paint5_linear_351_224" x1="12287" y1="5887.74" x2="12638.8" y2="5995.54" gradientUnits="userSpaceOnUse">
<stop stop-color="#FFCE8D"/>
<stop offset="1" stop-color="#FEC989"/>
</linearGradient>
</defs>
</svg>
