<svg width="21" height="21" viewBox="0 0 21 21" fill="none" xmlns="http://www.w3.org/2000/svg">
<path fill-rule="evenodd" clip-rule="evenodd" d="M15.6281 13.9827C16.9271 12.2812 17.5393 10.1409 17.3401 7.99707C17.141 5.85327 16.1455 3.86707 14.5562 2.44254C12.9669 1.01801 10.9032 0.262161 8.78484 0.328762C6.6665 0.395363 4.6527 1.27941 3.15313 2.80106C1.65225 4.32376 0.779302 6.37063 0.712185 8.52456C0.645068 10.6785 1.38883 12.7774 2.79191 14.3935C4.19498 16.0096 6.15178 17.0213 8.26352 17.2225C10.3753 17.4236 12.483 16.799 14.1573 15.4761L14.2021 15.5237L18.6209 20.0143C18.7176 20.1127 18.8325 20.1907 18.959 20.2439C19.0854 20.2971 19.221 20.3245 19.3578 20.3245C19.4947 20.3245 19.6302 20.2971 19.7567 20.2439C19.8831 20.1907 19.998 20.1127 20.0948 20.0143C20.1916 19.916 20.2684 19.7993 20.3207 19.6708C20.3731 19.5423 20.4001 19.4046 20.4001 19.2655C20.4001 19.1265 20.3731 18.9888 20.3207 18.8603C20.2684 18.7318 20.1916 18.6151 20.0948 18.5167L15.675 14.0272C15.6598 14.0119 15.6442 13.9971 15.6281 13.9827ZM13.4656 4.29865C14.0538 4.88655 14.5215 5.58694 14.8419 6.35943C15.1623 7.13192 15.329 7.96121 15.3323 8.79948C15.3357 9.63774 15.1756 10.4684 14.8615 11.2435C14.5473 12.0186 14.0852 12.7229 13.5018 13.3156C12.9184 13.9084 12.2253 14.3779 11.4624 14.6971C10.6995 15.0163 9.88194 15.1789 9.05691 15.1755C8.23187 15.1721 7.41566 15.0027 6.65536 14.6772C5.89506 14.3517 5.20571 13.8764 4.62709 13.2789C3.47075 12.0847 2.82569 10.4747 2.8324 8.79948C2.83911 7.12427 3.49706 5.51962 4.66293 4.33506C5.8288 3.15051 7.40813 2.48201 9.05691 2.47519C10.7057 2.46836 12.2903 3.12377 13.4656 4.29865Z" fill="#6864F9"/>
</svg>
