<svg width="112" height="112" viewBox="0 0 112 112" fill="none" xmlns="http://www.w3.org/2000/svg">
<path fill-rule="evenodd" clip-rule="evenodd" d="M56 111C86.3757 111 111 86.3757 111 56C111 25.6243 86.3757 1 56 1C25.6243 1 1 25.6243 1 56C1 86.3757 25.6243 111 56 111Z" stroke="#6864F9" stroke-width="2"/>
<mask id="mask0_0_1" style="mask-type:alpha" maskUnits="userSpaceOnUse" x="0" y="0" width="112" height="112">
<path fill-rule="evenodd" clip-rule="evenodd" d="M56 111C86.3757 111 111 86.3757 111 56C111 25.6243 86.3757 1 56 1C25.6243 1 1 25.6243 1 56C1 86.3757 25.6243 111 56 111Z" fill="white" stroke="white" stroke-width="2"/>
</mask>
<g mask="url(#mask0_0_1)">
</g>
<path d="M34 30V66" stroke="#6864F9" stroke-width="2" stroke-linecap="round" stroke-linejoin="round"/>
<path d="M30 34L34 30L38 34" stroke="#6864F9" stroke-width="2" stroke-linecap="round" stroke-linejoin="round"/>
<path d="M78 82V46" stroke="#6864F9" stroke-width="2" stroke-linecap="round" stroke-linejoin="round"/>
<path d="M74 78L78 82L82 78" stroke="#6864F9" stroke-width="2" stroke-linecap="round" stroke-linejoin="round"/>
<path fill-rule="evenodd" clip-rule="evenodd" d="M56 70C63.732 70 70 63.732 70 56C70 48.268 63.732 42 56 42C48.268 42 42 48.268 42 56C42 63.732 48.268 70 56 70Z" stroke="#6864F9" stroke-width="2" stroke-linecap="round" stroke-linejoin="round"/>
<path d="M59.836 51.7881C59.412 50.5161 58.214 49.6001 56.8 49.6001H55.2C53.432 49.6001 52 51.0321 52 52.8001V52.8001C52 54.5681 53.432 56.0001 55.2 56.0001H56.8C58.568 56.0001 60 57.4321 60 59.2001V59.2001C60 60.9681 58.568 62.4001 56.8 62.4001H55.2C53.748 62.4001 52.522 61.4321 52.13 60.1061" stroke="#6864F9" stroke-width="2" stroke-linecap="round" stroke-linejoin="round"/>
</svg>
