<svg width="112" height="112" viewBox="0 0 112 112" fill="none" xmlns="http://www.w3.org/2000/svg">
<path fill-rule="evenodd" clip-rule="evenodd" d="M56 111C86.3757 111 111 86.3757 111 56C111 25.6243 86.3757 1 56 1C25.6243 1 1 25.6243 1 56C1 86.3757 25.6243 111 56 111Z" stroke="#6864F9" stroke-width="2"/>
<mask id="mask0_0_1" style="mask-type:alpha" maskUnits="userSpaceOnUse" x="0" y="0" width="112" height="112">
<path fill-rule="evenodd" clip-rule="evenodd" d="M56 111C86.3757 111 111 86.3757 111 56C111 25.6243 86.3757 1 56 1C25.6243 1 1 25.6243 1 56C1 86.3757 25.6243 111 56 111Z" fill="white" stroke="white" stroke-width="2"/>
</mask>
<g mask="url(#mask0_0_1)">
</g>
<path fill-rule="evenodd" clip-rule="evenodd" d="M68 84H44C41.79 84 40 82.21 40 80V32C40 29.79 41.79 28 44 28H68C70.21 28 72 29.79 72 32V80C72 82.21 70.21 84 68 84Z" stroke="#6864F9" stroke-width="2" stroke-linecap="round" stroke-linejoin="round"/>
<path d="M72 74C72 76.21 70.21 78 68 78H44C41.79 78 40 76.21 40 74" stroke="#6864F9" stroke-width="2" stroke-linecap="round" stroke-linejoin="round"/>
<path d="M50 34H56" stroke="#6864F9" stroke-width="2" stroke-linecap="round" stroke-linejoin="round"/>
<path d="M64 34H62" stroke="#6864F9" stroke-width="2" stroke-linecap="round" stroke-linejoin="round"/>
<path d="M64 50H48" stroke="#6864F9" stroke-width="2" stroke-linecap="round" stroke-linejoin="round"/>
<path d="M60 46L64 50L60 54" stroke="#6864F9" stroke-width="2" stroke-linecap="round" stroke-linejoin="round"/>
<path d="M48 62H64" stroke="#6864F9" stroke-width="2" stroke-linecap="round" stroke-linejoin="round"/>
<path d="M52 58L48 62L52 66" stroke="#6864F9" stroke-width="2" stroke-linecap="round" stroke-linejoin="round"/>
</svg>
