<svg width="112" height="112" viewBox="0 0 112 112" fill="none" xmlns="http://www.w3.org/2000/svg">
<path fill-rule="evenodd" clip-rule="evenodd" d="M56 111C86.3757 111 111 86.3757 111 56C111 25.6243 86.3757 1 56 1C25.6243 1 1 25.6243 1 56C1 86.3757 25.6243 111 56 111Z" stroke="#6864F9" stroke-width="2"/>
<mask id="mask0_0_1" style="mask-type:alpha" maskUnits="userSpaceOnUse" x="0" y="0" width="112" height="112">
<path fill-rule="evenodd" clip-rule="evenodd" d="M56 111C86.3757 111 111 86.3757 111 56C111 25.6243 86.3757 1 56 1C25.6243 1 1 25.6243 1 56C1 86.3757 25.6243 111 56 111Z" fill="white" stroke="white" stroke-width="2"/>
</mask>
<g mask="url(#mask0_0_1)">
</g>
<path fill-rule="evenodd" clip-rule="evenodd" d="M56 70C63.732 70 70 63.732 70 56C70 48.268 63.732 42 56 42C48.268 42 42 48.268 42 56C42 63.732 48.268 70 56 70Z" stroke="#6864F9" stroke-width="2" stroke-linecap="round" stroke-linejoin="round"/>
<path d="M59.836 51.7881C59.412 50.5161 58.214 49.6001 56.8 49.6001H55.2C53.432 49.6001 52 51.0321 52 52.8001V52.8001C52 54.5681 53.432 56.0001 55.2 56.0001H56.8C58.568 56.0001 60 57.4321 60 59.2001V59.2001C60 60.9681 58.568 62.4001 56.8 62.4001H55.2C53.748 62.4001 52.522 61.4321 52.13 60.1061" stroke="#6864F9" stroke-width="2" stroke-linecap="round" stroke-linejoin="round"/>
<path fill-rule="evenodd" clip-rule="evenodd" d="M56 36C58.2091 36 60 34.2091 60 32C60 29.7909 58.2091 28 56 28C53.7909 28 52 29.7909 52 32C52 34.2091 53.7909 36 56 36Z" stroke="#6864F9" stroke-width="2" stroke-linecap="round" stroke-linejoin="round"/>
<path fill-rule="evenodd" clip-rule="evenodd" d="M32 60C34.2091 60 36 58.2091 36 56C36 53.7909 34.2091 52 32 52C29.7909 52 28 53.7909 28 56C28 58.2091 29.7909 60 32 60Z" stroke="#6864F9" stroke-width="2" stroke-linecap="round" stroke-linejoin="round"/>
<path d="M56 36V42" stroke="#6864F9" stroke-width="2" stroke-linecap="round" stroke-linejoin="round"/>
<path fill-rule="evenodd" clip-rule="evenodd" d="M39.0298 43.0298C41.2389 43.0298 43.0298 41.2389 43.0298 39.0298C43.0298 36.8206 41.2389 35.0298 39.0298 35.0298C36.8206 35.0298 35.0298 36.8206 35.0298 39.0298C35.0298 41.2389 36.8206 43.0298 39.0298 43.0298Z" stroke="#6864F9" stroke-width="2" stroke-linecap="round" stroke-linejoin="round"/>
<path d="M41.8579 41.8579L46.0999 46.0999" stroke="#6864F9" stroke-width="2" stroke-linecap="round" stroke-linejoin="round"/>
<path d="M36 56H42" stroke="#6864F9" stroke-width="2" stroke-linecap="round" stroke-linejoin="round"/>
<path fill-rule="evenodd" clip-rule="evenodd" d="M39.0298 76.9702C41.2389 76.9702 43.0298 75.1794 43.0298 72.9702C43.0298 70.7611 41.2389 68.9702 39.0298 68.9702C36.8206 68.9702 35.0298 70.7611 35.0298 72.9702C35.0298 75.1794 36.8206 76.9702 39.0298 76.9702Z" stroke="#6864F9" stroke-width="2" stroke-linecap="round" stroke-linejoin="round"/>
<path d="M41.8579 70.1419L46.0999 65.8999" stroke="#6864F9" stroke-width="2" stroke-linecap="round" stroke-linejoin="round"/>
<path fill-rule="evenodd" clip-rule="evenodd" d="M56 84C58.2091 84 60 82.2091 60 80C60 77.7909 58.2091 76 56 76C53.7909 76 52 77.7909 52 80C52 82.2091 53.7909 84 56 84Z" stroke="#6864F9" stroke-width="2" stroke-linecap="round" stroke-linejoin="round"/>
<path d="M56 76V70" stroke="#6864F9" stroke-width="2" stroke-linecap="round" stroke-linejoin="round"/>
<path fill-rule="evenodd" clip-rule="evenodd" d="M72.9702 76.9702C75.1794 76.9702 76.9702 75.1794 76.9702 72.9702C76.9702 70.7611 75.1794 68.9702 72.9702 68.9702C70.7611 68.9702 68.9702 70.7611 68.9702 72.9702C68.9702 75.1794 70.7611 76.9702 72.9702 76.9702Z" stroke="#6864F9" stroke-width="2" stroke-linecap="round" stroke-linejoin="round"/>
<path d="M70.1419 70.1419L65.8999 65.8999" stroke="#6864F9" stroke-width="2" stroke-linecap="round" stroke-linejoin="round"/>
<path fill-rule="evenodd" clip-rule="evenodd" d="M80 60C82.2091 60 84 58.2091 84 56C84 53.7909 82.2091 52 80 52C77.7909 52 76 53.7909 76 56C76 58.2091 77.7909 60 80 60Z" stroke="#6864F9" stroke-width="2" stroke-linecap="round" stroke-linejoin="round"/>
<path d="M76 56H70" stroke="#6864F9" stroke-width="2" stroke-linecap="round" stroke-linejoin="round"/>
<path fill-rule="evenodd" clip-rule="evenodd" d="M72.9702 43.0298C75.1794 43.0298 76.9702 41.2389 76.9702 39.0298C76.9702 36.8206 75.1794 35.0298 72.9702 35.0298C70.7611 35.0298 68.9702 36.8206 68.9702 39.0298C68.9702 41.2389 70.7611 43.0298 72.9702 43.0298Z" stroke="#6864F9" stroke-width="2" stroke-linecap="round" stroke-linejoin="round"/>
<path d="M70.1419 41.8579L65.8999 46.0999" stroke="#6864F9" stroke-width="2" stroke-linecap="round" stroke-linejoin="round"/>
</svg>
