<svg width="219" height="36" viewBox="0 0 219 36" fill="none" xmlns="http://www.w3.org/2000/svg"><path d="M54.97 14.08h-4.19v10.55h-2.51V14.08h-4.23v-2.35h10.93v2.35ZM67.45 24.63h-2.56v-5.49h-5.53v5.49h-2.5v-12.9h2.5v5.03h5.53v-5.03h2.56v12.9ZM77.75 14.08h-4.9v2.72h4.23v2.38h-4.23v3.06h4.9v2.35h-7.42V11.73h7.42v2.35ZM92.02 15.33h-2.55c-.04-1.04-.67-1.59-1.55-1.59-.92 0-1.47.5-1.47 1.38 0 .97.72 1.3 2.27 1.84 2.76.93 3.72 2.06 3.72 3.98 0 2.47-1.84 3.9-4.31 3.9-2.93 0-4.48-1.72-4.56-4.19h2.55c.04 1.26.75 1.97 2 1.97 1.1 0 1.68-.63 1.68-1.47 0-.88-.67-1.38-2.3-1.88-2.34-.76-3.68-1.8-3.68-3.94 0-2.26 1.55-3.85 4.06-3.85s4.06 1.3 4.14 3.85ZM106.47 15.88h-2.77c-.45-1.26-1.38-2.06-3.14-2.06-2.3 0-3.8 1.85-3.8 4.32 0 2.51 1.54 4.35 3.85 4.35 1.8 0 2.84-.92 3.26-2.13h2.68c-.7 2.8-2.63 4.52-5.94 4.52-3.81 0-6.45-2.85-6.45-6.7-.04-3.9 2.6-6.7 6.4-6.7 3.27 0 5.24 1.8 5.9 4.4ZM110.4 24.63h-2.5l2.25-12.9h2.52l-2.26 12.9ZM122.46 14.08h-4.9v2.72h4.23v2.38h-4.23v3.06h4.9v2.35h-7.4V11.73h7.4v2.35ZM135.82 24.63h-2.55l-5.32-7.8-.5-.83v8.63h-2.51v-12.9h2.5l5.28 7.83.55.88v-8.7h2.55v12.89ZM150.56 15.88h-2.76c-.46-1.26-1.39-2.06-3.14-2.06-2.3 0-3.81 1.85-3.81 4.32 0 2.51 1.55 4.35 3.85 4.35 1.8 0 2.85-.92 3.26-2.13h2.68c-.7 2.8-2.63 4.52-5.94 4.52-3.81 0-6.45-2.85-6.45-6.7s2.68-6.66 6.45-6.66a5.59 5.59 0 0 1 5.86 4.36ZM160.2 14.08h-4.9v2.72h4.22v2.38h-4.23v3.06h4.9v2.35h-7.41V11.73h7.41v2.35ZM176.48 14.08h-4.19v10.55h-2.51V14.08h-4.19v-2.35h10.93v2.35h-.04ZM180.92 24.63h-2.51v-12.9h2.5v12.9ZM197.67 24.63h-2.56v-8.17l-.38 1.13-2.93 7.04h-2.13l-2.93-7.04-.38-1.13v8.17h-2.51v-12.9h2.93l3.68 8.3.3.75.3-.76 3.72-8.29h2.93v12.9h-.04ZM208.1 14.08h-4.9v2.72h4.22v2.38h-4.23v3.06h4.9v2.35h-7.45V11.73h7.41l.04 2.35ZM218.4 15.33h-2.56c-.04-1.04-.67-1.59-1.55-1.59-.92 0-1.47.5-1.47 1.38 0 .97.72 1.3 2.27 1.84 2.76.93 3.72 2.06 3.72 3.98 0 2.47-1.84 3.9-4.31 3.9-2.93 0-4.48-1.72-4.56-4.19h2.55c.04 1.26.75 1.97 2 1.97 1.1 0 1.68-.63 1.68-1.47 0-.88-.67-1.38-2.3-1.88-2.34-.76-3.68-1.8-3.68-3.94 0-2.26 1.55-3.85 4.06-3.85 2.47 0 4.02 1.3 4.14 3.85ZM26.84 36H9.16A9.19 9.19 0 0 1 0 26.84V9.16A9.19 9.19 0 0 1 9.16 0h17.68A9.19 9.19 0 0 1 36 9.16v17.68A9.19 9.19 0 0 1 26.84 36Z" fill="#81819E"/><path d="M26.75 11.82h-5.59c-.1-2.3-1.47-3.48-3.39-3.48-2.01 0-3.2 1.1-3.2 3.02 0 2.1 1.55 2.84 4.94 4.03 6.05 2.01 8.15 4.49 8.15 8.7 0 5.4-4.03 8.52-9.43 8.52-6.41 0-9.8-3.76-9.99-9.16h5.6c.08 2.75 1.64 4.3 4.39 4.3 2.38 0 3.66-1.37 3.66-3.2 0-1.92-1.46-3.02-5.04-4.12-5.12-1.65-8.06-3.94-8.06-8.61 0-4.95 3.4-8.43 8.89-8.43 5.4 0 8.8 2.84 9.07 8.43Z" fill="#fff"/></svg>
