<svg width="102" height="102" viewBox="0 0 102 102" fill="none" xmlns="http://www.w3.org/2000/svg"><path d="m45.6 73.25-40 23.1c-2.6 1.5-4.6.3-4.6-2.7v-60.9c0-2.9 2.1-6.5 4.6-8l40-23.1c2.6-1.5 4.7-.3 4.7 2.6v60.9c0 3-2.1 6.6-4.7 8.1ZM8.1 62.35l6.7-3.9M28.9 57.25l7.2-4.2M8.1 69.25l16.1-9.3M16.4 71.35l8.2-4.7M8.1 76.15l3.2-1.8" stroke="#060437" stroke-width="1.5" stroke-miterlimit="10" stroke-linecap="round" stroke-linejoin="round"/><path d="M100.9 67.65v14.9c-.2 4.7-3.5 9.3-9.7 12.9-12.9 7.5-33.9 7.5-46.8 0-6.2-3.6-9.4-8.3-9.7-13v-14.9c0 .8.2 1.7.4 2.5 1.1 3.8 4.2 7.5 9.3 10.4 12.9 7.5 33.9 7.5 46.8 0 5.1-2.9 8.2-6.6 9.3-10.4.3-.8.4-1.6.4-2.4Z" fill="#EDE9FF" stroke="#060437" stroke-width="1.5" stroke-miterlimit="10" stroke-linecap="round" stroke-linejoin="round"/><path d="M100.5 70.05c-1.1 3.8-4.2 7.5-9.3 10.4-12.9 7.5-33.9 7.5-46.8 0-5.1-2.9-8.2-6.6-9.3-10.4 1.1-3.8 4.2-7.5 9.3-10.4.3-.1.5-.3.8-.4 12.7-6.9 32.5-6.9 45.2 0 .3.1.5.3.8.4 5.2 3 8.3 6.6 9.3 10.4Z" fill="#D5E9E5"/><path d="M100.9 67.65c0 .8-.2 1.6-.4 2.5-1.1 3.8-4.2 7.5-9.3 10.4-12.9 7.5-33.9 7.5-46.8 0-5.1-2.9-8.2-6.6-9.3-10.4-.2-.8-.4-1.7-.4-2.5v-1c.2-4.7 3.4-9.4 9.7-13 12.9-7.5 33.9-7.5 46.8 0 6.2 3.6 9.4 8.2 9.7 12.9.1.3.1.7 0 1.1Z" fill="#fff" stroke="#060437" stroke-width="1.5" stroke-miterlimit="10" stroke-linecap="round" stroke-linejoin="round"/><path d="m67.7 59.45.2 15.1" stroke="#060437" stroke-width="1.5" stroke-miterlimit="10" stroke-linecap="round" stroke-linejoin="round"/><path d="M81.66 67.63c.2-1.36-1.18-2.7-3.1-2.99-1.9-.28-3.62.6-3.83 1.96-.2 1.36 1.18 2.7 3.1 2.99 1.9.29 3.62-.59 3.83-1.96ZM61.05 67.44c.2-1.36-1.18-2.7-3.1-2.99-1.9-.28-3.62.6-3.82 1.96-.2 1.36 1.18 2.7 3.09 2.99 1.91.28 3.63-.59 3.83-1.96ZM20.1 49.05l-3.1 1.8c-.7.4-1.3 0-1.3-1v-5.9c0-1 .6-2.1 1.3-2.5l3.1-1.8c.7-.4 1.3 0 1.3 1v5.9c0 .9-.6 2.1-1.3 2.5ZM30.5 43.05l-3.1 1.8c-.7.4-1.3 0-1.3-1v-22.3c0-1 .6-2.1 1.3-2.5l3.1-1.8c.7-.4 1.3 0 1.3 1v22.3c0 .9-.6 2.1-1.3 2.5ZM40.9 37.05l-3.1 1.8c-.7.4-1.3 0-1.3-1v-14.4c0-1 .6-2.1 1.3-2.5l3.1-1.8c.7-.4 1.3 0 1.3 1v14.4c0 1-.6 2.1-1.3 2.5Z" fill="#EDE9FF" stroke="#060437" stroke-width="1.5" stroke-miterlimit="10" stroke-linecap="round" stroke-linejoin="round"/></svg>
