<svg width="118" height="35" viewBox="0 0 118 35" fill="none" xmlns="http://www.w3.org/2000/svg">
<path fill-rule="evenodd" clip-rule="evenodd" d="M70.8173 0.23584H78.0103L95.5398 24.3484V3.90826C95.5398 1.84007 92.7676 0.310986 92.7676 0.310986H101.756C101.756 0.310986 99.3971 1.68978 99.3971 3.87232V34.8755C99.3971 34.8755 95.2389 33.1537 92.0921 28.7886C88.9454 24.4235 77.1492 8.69483 77.1492 8.69483V29.5172C77.1492 31.0104 79.6205 32.8466 79.6205 32.8466H70.7437C70.7437 32.8466 73.215 31.4678 73.215 29.6316V4.21539C73.215 1.46107 70.8173 0.23584 70.8173 0.23584ZM109.497 24.3451V3.87886C109.497 1.81067 106.712 0.275046 106.712 0.275046H117.292C117.292 0.275046 114.92 1.65384 114.92 3.83965V29.3016C114.92 31.2554 117.18 32.8662 117.18 32.8662H107.013C107.013 32.8662 109.497 31.2946 109.497 29.6871V24.3451ZM49.1648 3.53253V13.4095H53.7616C55.8936 13.4095 58.9219 12.2627 58.9219 8.24068C58.9219 4.22192 54.437 3.53253 52.8653 3.53253H49.1648ZM49.1648 16.6245V29.4845H55.2213C57.5774 29.4845 61.9501 27.4163 61.9501 23.3976C61.9501 19.3788 58.3617 16.6213 54.9972 16.6213H49.1648V16.6245ZM41.3284 0.265244H56.8699C60.3464 0.265244 64.303 3.30381 64.303 7.43692C64.303 13.0632 60.0775 13.8277 60.0775 13.8277C60.0775 13.8277 67.4817 15.6639 67.4817 22.8977C67.4817 30.1315 59.4052 32.8629 56.7131 32.8629L41.1299 32.8237C41.1299 32.8237 43.8156 31.3992 43.8156 28.9879V4.18272C43.8156 1.65711 41.3284 0.265244 41.3284 0.265244Z" fill="#282828"/>
<path fill-rule="evenodd" clip-rule="evenodd" d="M0.449219 32.866H32.3902V0.265137H0.449219V32.866Z" fill="white"/>
<path fill-rule="evenodd" clip-rule="evenodd" d="M0.449219 0.265137H10.4304C10.4016 0.337017 10.328 0.529785 10.2383 0.88265C9.80297 2.6045 9.17554 7.58055 13.5547 14.8731C14.6367 16.6734 15.6835 18.1012 16.7591 19.4995L13.289 22.3323C7.53335 15.1377 0.449219 5.97306 0.449219 5.97306V0.265137ZM0.449219 12.6938V32.8659L10.1263 24.8905L3.45509 16.4185L0.449219 12.6938ZM32.3902 10.6551C32.3198 10.557 32.0221 10.0963 31.59 9.6422C30.2647 8.25034 27.3933 6.01226 23.9392 7.92688C20.7477 9.69447 19.1119 13.7459 23.0941 19.1009C26.3657 23.5085 29.3235 23.9398 30.9913 23.6882C31.2794 23.6457 32.163 23.4268 32.3934 23.283V10.6551H32.3902ZM32.3902 4.74783V0.265137H14.6239C14.6047 0.343551 14.4734 0.618004 14.4222 1.07869C14.307 2.11115 14.2654 4.07477 14.9824 6.86175C15.9652 10.6845 18.7021 14.0955 18.7021 14.0955C18.7021 14.0955 18.4204 10.2924 21.8553 6.78007C24.0289 4.55833 26.4905 3.86893 28.488 3.89834C29.1923 3.90814 29.8421 4.00616 30.3991 4.13685C30.636 4.18913 32.2078 4.64981 32.3902 4.74783ZM32.3902 24.9199C32.3102 24.9886 32.1213 25.1127 31.798 25.3382C30.9273 25.9426 29.0547 26.8378 25.9655 26.3641C23.1677 25.9328 20.4916 24.0313 18.0331 21.0744L14.5183 23.9528C16.9991 26.9979 18.9198 29.4386 19.5633 29.9091C21.9897 31.6865 23.6575 31.0101 23.6575 31.0101L21.4103 32.8692H32.3902V24.9199ZM15.8211 32.8659H3.64396L4.63952 32.0426L11.4003 26.5111C11.4003 26.5111 14.0797 30.0626 15.1361 31.3663C15.3345 31.6146 15.4882 31.8466 15.6034 32.0557C15.8083 32.4314 15.7827 32.6797 15.8211 32.8659Z" fill="#282828"/>
</svg>
