<svg width="154" height="26" viewBox="0 0 154 26" fill="none" xmlns="http://www.w3.org/2000/svg">
<path d="M27.1481 17.4898C27.2213 17.4898 27.2806 17.4289 27.2806 17.3553C27.2806 17.2801 27.2213 17.2192 27.1481 17.2192C27.074 17.2192 27.0156 17.2801 27.0156 17.3553C27.0156 17.4289 27.074 17.4898 27.1481 17.4898Z" fill="#282828"/>
<path d="M26.8911 17.4898C26.965 17.4898 27.0236 17.4289 27.0236 17.3553C27.0236 17.2801 26.965 17.2192 26.8911 17.2192C26.8173 17.2192 26.7578 17.2801 26.7578 17.3553C26.758 17.4289 26.8175 17.4898 26.8911 17.4898Z" fill="#282828"/>
<path d="M17.6318 11.9956C18.6329 10.7123 19.2397 8.94048 19.0811 6.84444C18.8929 4.44528 17.715 2.8923 15.9565 1.93362C14.1118 0.935015 11.7072 0.873535 8.90778 0.873535H1.12874C0.752903 0.873535 0.449219 1.18413 0.449219 1.56837V25.0052C0.449219 25.3856 0.747463 25.6941 1.12079 25.699H9.43818C10.9497 25.699 12.3537 25.7163 13.6109 25.5137C15.3604 25.2219 16.7952 24.5808 17.8409 23.5634C18.0996 23.3397 21.3627 20.3962 19.9255 15.4115C19.9255 15.4113 19.4032 13.5258 17.6318 11.9956ZM6.90728 5.96133H6.91209H10.7194V5.96474C12.219 6.03134 13.4109 7.07178 13.4109 8.34576C13.4109 9.61995 12.2192 10.6602 10.7194 10.7266V10.7302L6.91209 10.7293C6.53667 10.7293 6.23216 10.4194 6.23216 10.036L6.22295 6.62436C6.23822 6.25549 6.54065 5.96133 6.90728 5.96133ZM11.1856 20.735C11.1808 20.735 11.1752 20.735 11.1703 20.735H6.90164C6.52538 20.735 6.22149 20.4253 6.22149 20.0417L6.22316 16.6257C6.22316 16.2827 6.50384 15.9409 6.90331 15.9427H11.1703C11.1752 15.9427 11.1808 15.9427 11.1856 15.9427C12.7557 15.9427 14.0286 17.0164 14.0286 18.3393C14.0283 19.6625 12.7557 20.735 11.1856 20.735Z" fill="#282828"/>
<path d="M37.4872 3.07666H33.066C32.7076 3.07666 32.3943 3.38576 32.3943 3.77043V17.3359C31.8565 17.5794 31.3395 17.7931 30.5228 17.9378C30.0529 18.0249 29.4547 18.1001 28.9113 18.0696C27.5299 17.9071 27.3017 16.6841 27.3017 16.6841L27.2982 16.6891C27.1173 15.8666 27.1292 14.7937 27.0886 13.9319C27.0259 12.6221 27.0886 11.3031 27.0886 10.1066V3.77043C27.0886 3.39366 26.7862 3.07666 26.4066 3.07666H21.9854C21.6271 3.07666 21.3145 3.38576 21.3145 3.77043V12.7741C21.3145 14.1059 21.3349 15.3831 21.446 16.5625C21.8823 20.3921 25.0703 23.365 28.9385 23.365C29.4068 23.365 29.865 23.3215 30.3099 23.237C30.3099 23.2378 30.3099 23.2389 30.3099 23.2389C30.4448 23.2124 30.577 23.1853 30.7075 23.1541C32.0203 22.8288 36.9263 20.9275 38.1686 20.4849V3.77043C38.1686 3.39387 37.8668 3.07666 37.4872 3.07666Z" fill="#282828"/>
<path d="M51.8417 8.36069C51.8242 8.36283 50.906 8.28705 50.3045 9.1407C49.087 10.8886 46.9305 14.0959 46.928 14.0974C46.8527 14.2121 46.7245 14.2876 46.5794 14.2876C46.346 14.2876 46.1529 14.0964 46.1529 13.859C46.1529 13.8426 46.1529 13.859 46.1529 13.8425V1.71373C46.1512 1.33184 45.8486 1.02295 45.4738 1.02295H45.4656H41.0976H41.0449C40.6868 1.02295 40.3735 1.33397 40.3735 1.71693V25.0029C40.3735 25.0029 40.3735 25.7468 41.0533 25.7468C41.6625 25.7468 45.4656 25.7468 45.4656 25.7468C45.845 25.7468 46.1479 25.43 46.1479 25.053V21.1882L46.1487 21.1654C46.1487 20.928 46.337 20.7354 46.5687 20.7354C46.7145 20.7354 46.8431 20.8116 46.9182 20.9263C47.8846 22.1787 49.1874 23.9532 50.0364 24.9378C50.038 24.9386 50.6648 25.747 51.5253 25.747H57.3134L51.0053 17.4149L57.3134 8.36091H51.8417V8.36069Z" fill="#282828"/>
<path d="M101.653 19.084L101.442 19.0703C100.02 19.0233 99.5938 18.5712 99.4647 17.9686C99.4229 17.7784 99.4369 16.9081 99.4369 16.6084V9.9375C99.4369 7.34749 99.0447 5.49117 97.6468 4.1523C96.3133 2.87106 93.8725 2.59483 91.3331 2.75408C90.5561 2.7987 89.7933 2.86679 89.0431 2.94941C87.4822 3.1189 87.0213 3.2045 86.2673 3.31913C85.3816 3.46749 84.9334 4.11558 84.7945 4.67231C84.734 4.90968 84.7324 5.12999 84.751 5.29649L84.9346 9.2021L84.9363 9.23818L84.9384 9.28984C84.9384 9.28984 85.0739 9.28343 84.9384 9.30648C86.8542 8.9803 87.0853 8.86994 89.7266 8.51559C90.637 8.3937 92.8322 8.13839 93.32 8.45625C93.7569 8.7329 93.7301 8.95363 93.6922 9.64953C91.8229 9.86471 89.987 9.85617 88.3657 10.1915C86.7362 10.5337 85.4439 11.2405 84.6113 12.4287C83.7839 13.6303 83.47 15.4621 83.6925 17.386C83.8288 18.5507 84.2248 19.6932 84.9327 20.6256C85.2937 21.1008 85.7474 21.4101 86.26 21.7062C87.3473 22.3342 88.6194 22.6493 89.8571 22.7033C90.1924 22.7178 90.6328 22.6903 90.9585 22.6476C91.3257 22.5989 91.6725 22.5244 92.018 22.4339C92.6854 22.2409 93.5274 21.9028 94.3559 21.3128L94.4523 21.3963C95.9895 22.698 98.7603 23.6733 101.442 22.742L101.654 22.6754V19.084H101.653ZM93.6887 17.0246C93.7035 17.363 93.4584 17.6394 93.139 17.6909L93.0568 17.6975C93.0491 17.6975 93.041 17.7001 93.0341 17.7001H93.0443L91.4688 17.8508C91.3619 17.8717 91.2519 17.8828 91.1381 17.8828C90.1587 17.8828 89.3637 17.0729 89.3637 16.0736C89.3637 15.074 90.1589 14.263 91.1381 14.263L93.6887 14.0152V17.0246Z" fill="#282828"/>
<path d="M121.79 25.7464H138.488L136.612 23.2569L136.4 23.2437C134.978 23.1961 134.551 22.7433 134.422 22.1422C134.382 21.9522 134.395 21.0812 134.395 20.7796V14.1096C134.395 11.52 134.003 9.66395 132.605 8.32551C131.272 7.04321 128.831 6.7672 126.292 6.9273C125.514 6.97191 124.751 7.0398 124.001 7.12134V7.12176C122.439 7.29168 121.979 7.37665 121.225 7.49235C120.34 7.63985 119.892 8.28836 119.752 8.84509C119.692 9.08267 119.689 9.30276 119.709 9.46884L119.892 13.374L119.893 13.4109L119.897 13.463C119.897 13.463 120.032 13.4558 119.897 13.4782C121.813 13.1531 122.044 13.0429 124.685 12.6883C125.596 12.5658 127.791 12.3112 128.279 12.6294C128.714 12.9057 128.688 13.1262 128.65 13.8217C126.781 14.0377 124.945 14.0281 123.324 14.3636C121.694 14.7058 120.4 15.4118 119.57 16.6016C118.742 17.8028 118.428 19.6331 118.65 21.5583C118.786 22.7232 119.183 23.8649 119.89 24.7977C120.199 25.2033 120.999 25.7464 121.79 25.7464ZM126.096 18.436L128.647 18.1873V21.1974C128.662 21.5355 128.418 21.8124 128.097 21.8627L128.015 21.8711C128.008 21.8711 128 21.8732 127.992 21.8732H128.003L126.428 22.0241C126.32 22.0446 126.21 22.0555 126.096 22.0555C125.116 22.0555 124.323 21.2458 124.323 20.2457C124.323 19.2463 125.117 18.436 126.096 18.436Z" fill="#282828"/>
<path d="M148.08 8.36069C148.062 8.36283 147.144 8.28705 146.543 9.1407C145.325 10.8886 143.168 14.0959 143.166 14.0974C143.09 14.2121 142.962 14.2876 142.816 14.2876C142.584 14.2876 142.391 14.0964 142.391 13.859C142.391 13.8426 142.391 13.859 142.391 13.8425V1.71373C142.389 1.33184 142.086 1.02295 141.711 1.02295H141.704H137.335H137.283C136.924 1.02295 136.612 1.33397 136.612 1.71693V25.0029C136.612 25.0029 136.612 25.7468 137.291 25.7468C137.899 25.7468 141.704 25.7468 141.704 25.7468C142.083 25.7468 142.386 25.43 142.386 25.053V21.1882L142.387 21.1654C142.387 20.928 142.574 20.7354 142.807 20.7354C142.952 20.7354 143.081 20.8116 143.156 20.9263C144.121 22.1787 145.426 23.9532 146.274 24.9378C146.275 24.9386 146.902 25.747 147.764 25.747H153.551L147.244 17.4149L153.551 8.36091H148.08V8.36069Z" fill="#282828"/>
<path d="M117.568 7.50467C117.051 3.94659 115.646 1.50878 112.1 1.04598C108.61 0.589159 105.14 1.75107 102.009 3.23915C101.958 3.2701 101.879 3.31728 101.833 3.36168C101.681 3.48955 101.581 3.68231 101.581 3.89983V16.7483V19.0751V22.6865V23.8969V25.0037C101.581 25.3875 101.894 25.6977 102.252 25.6977H106.674C107.053 25.6977 107.355 25.3807 107.355 25.0037L107.356 19.902C109.053 20.0899 110.823 20.0626 112.25 19.7219C115.369 18.9801 117.176 16.5956 117.606 13.1456C117.84 11.4124 117.84 9.3501 117.568 7.50467ZM110.934 13.7471C110.216 14.202 109.075 14.1433 107.934 14.1429C107.771 14.1429 107.319 14.1429 107.319 14.1429L107.323 7.28373C108.03 7.13366 108.615 6.99362 109.369 6.94538C111.649 6.79851 111.935 8.35299 112.029 10.2044C112.106 11.7303 111.93 13.1242 110.934 13.7471Z" fill="#282828"/>
<path d="M88.7265 22.1278L86.0632 21.0198L84.8795 20.576C84.891 20.5921 84.8997 20.6083 84.9119 20.623C84.941 20.6619 84.9727 20.6981 85.0031 20.7336L79.7896 20.7385V1.6657C79.7896 1.6657 79.7624 1.00928 79.1026 1.00928C78.4406 1.00928 74.7071 1.00928 74.7071 1.00928C74.7071 1.00928 74.0044 1.01163 74.0044 1.71714V8.66363C74.0061 10.479 74.0065 12.3103 74.0044 14.1045V18.2168H73.9793L73.7679 18.2036C72.3465 18.1564 71.9184 17.7043 71.7908 17.1023C71.7488 16.9114 71.7626 16.0422 71.7626 15.7408V9.07007C71.7626 6.48112 71.3717 4.62416 69.9725 3.28528C68.6402 2.00468 66.1994 1.72717 63.6596 1.88685C62.8815 1.9321 62.1194 1.99999 61.3698 2.08111V2.08239C59.8083 2.25188 59.3465 2.33706 58.5936 2.45276C57.7074 2.60048 57.2594 3.24814 57.1197 3.80572C57.0599 4.04224 57.0584 4.26361 57.0769 4.42948L57.2594 8.33425L57.2609 8.37097L57.2651 8.42348C57.2651 8.42348 57.4 8.4158 57.2651 8.43842C59.1802 8.11331 59.4116 8.00316 62.0529 7.6488C62.9625 7.52627 65.1581 7.27203 65.6458 7.58945C66.0817 7.86611 66.0547 8.08663 66.0179 8.78147C64.1488 8.99835 62.3129 8.98896 60.6924 9.32432C59.0619 9.66651 57.7691 10.3722 56.9371 11.5617C56.1095 12.7629 55.7954 14.5951 56.0184 16.5193C56.1547 17.6838 56.5502 18.826 57.2588 19.7589C57.6185 20.2336 58.0739 20.543 58.5854 20.8393C59.6743 21.4671 60.945 21.7819 62.1832 21.8364C62.5174 21.852 62.9587 21.8236 63.2833 21.7804C63.6514 21.7311 63.9982 21.6579 64.3437 21.5678C65.0104 21.3742 65.8523 21.0369 66.6807 20.4456L66.778 20.5287H66.7784C68.3148 21.8306 71.0849 22.8055 73.7674 21.8759L74.004 21.8003V23.5475C74.0061 23.5475 74.0084 23.5475 74.0099 23.5475V25.0892C74.0333 25.4512 74.3261 25.7367 74.6856 25.7384H88.3737C88.7113 25.7226 88.9861 25.4574 89.0195 25.1176C89.0289 24.9054 89.0396 24.6734 89.0488 24.4283V22.6298C89.1578 22.6452 89.2667 22.649 89.3772 22.6599L88.7265 22.1278ZM66.016 16.1572C66.0302 16.4958 65.7855 16.772 65.4658 16.8228L65.3829 16.8303C65.3754 16.8303 65.3673 16.8329 65.3608 16.8329H65.3706L63.7949 16.9846C63.6878 17.0047 63.5769 17.0158 63.4634 17.0158C62.4839 17.0158 61.6896 16.2053 61.6896 15.2062C61.6896 14.2063 62.4839 13.3962 63.4634 13.3962L66.016 13.1478V16.1572Z" fill="#282828"/>
</svg>
