<svg width="117" height="35" viewBox="0 0 117 35" fill="none" xmlns="http://www.w3.org/2000/svg">
<path fill-rule="evenodd" clip-rule="evenodd" d="M15.77 0.298819C10.1664 0.839189 5.62741 3.8667 2.86871 8.53982C1.0771 11.576 0.235654 15.1741 0.49543 18.8659C1.13075 27.898 8.73484 35.5453 18.4694 34.7571C27.2029 34.051 34.4089 26.032 33.6705 16.1698C33.4008 12.5587 32.1711 9.5831 30.2002 6.89566C29.3065 5.67802 29.1315 5.65929 28.1997 4.66213C27.0434 3.4272 24.5995 2.00927 23.0394 1.381C20.9485 0.539464 18.2858 0.0552922 15.77 0.298819Z" fill="#282828"/>
<path fill-rule="evenodd" clip-rule="evenodd" d="M7.45133 12.4852C7.23815 13.112 7.36521 20.072 7.36521 21.3632C7.36521 22.7595 7.09414 23.1947 9.23588 23.9426C14.9029 25.921 20.5149 19.2132 26.1509 22.5318C26.4121 22.686 26.7312 23.0016 26.806 22.4915L26.8074 13.5385C26.8074 12.576 26.8922 12.2733 26.2667 11.8281C21.2237 8.24287 15.7627 14.3758 10.6449 13.6884C8.75162 13.4334 7.96806 12.4477 7.45133 12.4852Z" fill="white"/>
<path fill-rule="evenodd" clip-rule="evenodd" d="M46.3896 26.2887C48.5977 26.4486 51.1714 24.7007 52.0793 23.6992C55.229 20.2192 55.3053 15.1844 52.1343 11.5415C50.9526 10.1855 48.1883 8.68545 46.4249 8.89584L40.0576 8.90016L40.0562 26.2656L46.3896 26.2887ZM43.6337 22.5248C44.1024 22.6084 46.0282 22.5781 46.5576 22.5277C50.9074 22.1213 52.4449 16.0518 48.7869 13.5085C48.1798 13.0863 47.5049 12.7491 46.6183 12.6496C46.1326 12.5934 44.0601 12.5589 43.6309 12.6381L43.6337 22.5248Z" fill="#282828"/>
<path fill-rule="evenodd" clip-rule="evenodd" d="M102.162 26.3203L105.784 26.3188L105.788 22.5766H112.974L112.995 26.3188L116.615 26.3203C116.618 24.2395 116.616 22.176 116.616 20.1139C116.616 18.255 116.77 15.9292 116.32 14.2433C115.56 11.3901 112.902 8.85969 109.405 8.84528C105.868 8.83087 103.302 11.3541 102.483 14.1669C101.997 15.8298 102.159 18.2161 102.159 20.0476C102.159 22.1356 102.138 24.2337 102.162 26.3203ZM105.786 18.8098L112.992 18.8127C113.009 17.2074 113.179 15.6482 112.473 14.4176C111.967 13.5372 110.903 12.6164 109.406 12.6106C107.88 12.6034 106.862 13.4882 106.317 14.4003C105.603 15.5949 105.765 17.242 105.786 18.8098Z" fill="#282828"/>
<path fill-rule="evenodd" clip-rule="evenodd" d="M60.7321 26.316L64.3421 26.3189C64.345 25.5379 64.2447 23.143 64.3774 22.5752L71.5368 22.5766L71.5622 26.3175L75.1765 26.3203C75.1581 24.2468 75.1751 22.1761 75.1751 20.114C75.1751 18.3445 75.336 15.8098 74.8814 14.2405C72.8131 7.09756 63.183 7.04713 61.0455 14.1699C60.5613 15.7824 60.7279 18.2508 60.7279 20.0477C60.7279 22.1213 60.6813 24.2496 60.7321 26.316ZM64.345 18.8099L71.5594 18.8142C71.5735 17.232 71.7429 15.6426 71.0356 14.4149C69.741 12.1684 66.4472 11.8442 64.8815 14.4034C64.1643 15.5734 64.321 17.2695 64.345 18.8099Z" fill="#282828"/>
<path fill-rule="evenodd" clip-rule="evenodd" d="M81.5297 15.6783L81.4817 18.2721C81.4817 20.448 81.3744 24.5044 81.4888 26.2696L85.0282 26.271C85.1101 25.0347 84.9011 16.2072 85.1242 15.9262C85.1256 14.2114 86.8777 12.6162 88.6495 12.6105C89.7381 12.6061 90.5315 13.0586 91.1089 13.5946C91.5607 14.014 92.2511 14.9679 92.237 15.9363C92.4036 16.0314 92.2723 25.2378 92.3245 26.2681L95.8682 26.271L95.84 15.7316C95.9275 14.9059 95.4404 13.6292 95.1284 12.9808C92.5052 7.53817 84.976 7.46612 82.278 12.8871C81.9617 13.5226 81.4549 14.8339 81.5297 15.6783Z" fill="#282828"/>
<path fill-rule="evenodd" clip-rule="evenodd" d="M46.3894 26.2882L40.056 26.2651L40.0574 8.89982L46.4247 8.8955C46.3089 8.72979 43.6533 8.82922 43.2806 8.82922C42.3544 8.82922 40.8918 8.73987 40.0306 8.84363C39.9487 9.12029 39.9162 25.8746 40.0249 26.3271C40.6108 26.4035 44.6966 26.3444 45.9885 26.3473L46.3442 26.3098C46.3555 26.3055 46.3739 26.2954 46.3894 26.2882Z" fill="#6864F9"/>
<path fill-rule="evenodd" clip-rule="evenodd" d="M92.237 15.9366C92.2751 17.3559 92.1622 25.8218 92.2921 26.329L95.9007 26.3449C95.9939 25.9385 95.936 19.3373 95.936 18.3387C95.936 17.8603 96.0617 15.9841 95.84 15.7319L95.8682 26.2714L92.3245 26.2685C92.2723 25.2382 92.4036 16.0317 92.237 15.9366Z" fill="#6864F9"/>
<path fill-rule="evenodd" clip-rule="evenodd" d="M85.1245 15.9261C84.9014 16.2071 85.1104 25.0347 85.0285 26.2711L81.489 26.2696C81.3747 24.5044 81.482 20.448 81.482 18.272L81.53 15.6782C81.3295 15.7676 81.4199 20.3903 81.4199 20.9682C81.4199 21.8083 81.321 25.8488 81.4622 26.3301L85.068 26.3445L85.1245 15.9261Z" fill="#6864F9"/>
</svg>
