<svg width="118" height="35" viewBox="0 0 118 35" fill="none" xmlns="http://www.w3.org/2000/svg">
<path fill-rule="evenodd" clip-rule="evenodd" d="M70.8168 0.23584H78.0098L95.5393 24.3484V3.90826C95.5393 1.84007 92.7671 0.310986 92.7671 0.310986H101.756C101.756 0.310986 99.3967 1.68978 99.3967 3.87232V34.8755C99.3967 34.8755 95.2384 33.1537 92.0916 28.7886C88.9449 24.4235 77.1487 8.69483 77.1487 8.69483V29.5172C77.1487 31.0104 79.62 32.8466 79.62 32.8466H70.7432C70.7432 32.8466 73.2145 31.4678 73.2145 29.6316V4.21539C73.2145 1.46107 70.8168 0.23584 70.8168 0.23584ZM109.496 24.3451V3.87886C109.496 1.81067 106.711 0.275046 106.711 0.275046H117.291C117.291 0.275046 114.919 1.65384 114.919 3.83965V29.3016C114.919 31.2554 117.179 32.8662 117.179 32.8662H107.012C107.012 32.8662 109.496 31.2946 109.496 29.6871V24.3451ZM49.1643 3.53253V13.4095H53.7611C55.8931 13.4095 58.9214 12.2627 58.9214 8.24068C58.9214 4.22192 54.4366 3.53253 52.8648 3.53253H49.1643ZM49.1643 16.6245V29.4845H55.2208C57.5769 29.4845 61.9496 27.4163 61.9496 23.3976C61.9496 19.3788 58.3612 16.6213 54.9968 16.6213H49.1643V16.6245ZM41.3279 0.265244H56.8694C60.3459 0.265244 64.3025 3.30381 64.3025 7.43692C64.3025 13.0632 60.077 13.8277 60.077 13.8277C60.077 13.8277 67.4812 15.6639 67.4812 22.8977C67.4812 30.1315 59.4047 32.8629 56.7126 32.8629L41.1294 32.8237C41.1294 32.8237 43.8152 31.3992 43.8152 28.9879V4.18272C43.8152 1.65711 41.3279 0.265244 41.3279 0.265244Z" fill="#282828"/>
<path fill-rule="evenodd" clip-rule="evenodd" d="M0.449219 32.8655H32.3902V0.264648H0.449219V32.8655Z" fill="white"/>
<path fill-rule="evenodd" clip-rule="evenodd" d="M0.449219 0.264648H10.4304C10.4016 0.336528 10.328 0.529297 10.2383 0.882162C9.80297 2.60401 9.17554 7.58006 13.5547 14.8726C14.6367 16.6729 15.6835 18.1007 16.7591 19.4991L13.289 22.3318C7.53335 15.1373 0.449219 5.97257 0.449219 5.97257V0.264648ZM0.449219 12.6933V32.8655L10.1263 24.8901L3.45509 16.418L0.449219 12.6933ZM32.3902 10.6546C32.3198 10.5565 32.0221 10.0959 31.59 9.64171C30.2647 8.24985 27.3933 6.01177 23.9392 7.92639C20.7477 9.69399 19.1119 13.7454 23.0941 19.1005C26.3657 23.508 29.3235 23.9393 30.9913 23.6877C31.2794 23.6452 32.163 23.4263 32.3934 23.2826V10.6546H32.3902ZM32.3902 4.74734V0.264648H14.6239C14.6047 0.343063 14.4734 0.617515 14.4222 1.0782C14.307 2.11066 14.2654 4.07429 14.9824 6.86127C15.9652 10.684 18.7021 14.095 18.7021 14.095C18.7021 14.095 18.4204 10.2919 21.8553 6.77958C24.0289 4.55784 26.4905 3.86844 28.488 3.89785C29.1923 3.90765 29.8421 4.00567 30.3991 4.13636C30.636 4.18864 32.2078 4.64932 32.3902 4.74734ZM32.3902 24.9195C32.3102 24.9881 32.1213 25.1122 31.798 25.3377C30.9273 25.9421 29.0547 26.8374 25.9655 26.3636C23.1677 25.9323 20.4916 24.0308 18.0331 21.0739L14.5183 23.9524C16.9991 26.9974 18.9198 29.4381 19.5633 29.9086C21.9897 31.686 23.6575 31.0097 23.6575 31.0097L21.4103 32.8687H32.3902V24.9195ZM15.8211 32.8655H3.64396L4.63952 32.0421L11.4003 26.5106C11.4003 26.5106 14.0797 30.0621 15.1361 31.3658C15.3345 31.6141 15.4882 31.8461 15.6034 32.0552C15.8083 32.4309 15.7827 32.6792 15.8211 32.8655Z" fill="#282828"/>
</svg>
