<svg width="20" height="20" viewBox="0 0 20 20" fill="none" xmlns="http://www.w3.org/2000/svg">
<g clip-path="url(#clip0_174_1724)">
<path d="M19.2178 3.99049C18.5567 4.28341 17.8466 4.48133 17.1001 4.57079C17.8704 4.10987 18.4466 3.38445 18.7214 2.52987C17.9977 2.95974 17.2056 3.26232 16.3796 3.42445C15.8242 2.83139 15.0885 2.43829 14.2867 2.3062C13.485 2.17411 12.6621 2.31041 11.9457 2.69394C11.2294 3.07748 10.6597 3.68678 10.3251 4.42726C9.99053 5.16774 9.90978 5.99796 10.0954 6.78904C8.62898 6.71541 7.19443 6.33426 5.88486 5.67034C4.57528 5.00641 3.41994 4.07454 2.49381 2.9352C2.17715 3.48145 1.99506 4.11479 1.99506 4.78929C1.99471 5.39649 2.14424 5.99439 2.43038 6.52995C2.71653 7.0655 3.13044 7.52215 3.6354 7.85937C3.04978 7.84074 2.47709 7.6825 1.96498 7.39783V7.44533C1.96492 8.29696 2.25951 9.12238 2.79875 9.78153C3.33799 10.4407 4.08868 10.893 4.92344 11.0617C4.38018 11.2087 3.81062 11.2303 3.25777 11.125C3.49329 11.8578 3.95206 12.4986 4.56985 12.9576C5.18765 13.4167 5.93354 13.6711 6.7031 13.6852C5.39672 14.7108 3.78335 15.2671 2.12252 15.2646C1.82832 15.2647 1.53437 15.2475 1.24219 15.2132C2.92802 16.2971 4.89046 16.8724 6.89469 16.8701C13.6793 16.8701 17.3882 11.2509 17.3882 6.37737C17.3882 6.21904 17.3843 6.05912 17.3771 5.90079C18.0986 5.37906 18.7213 4.733 19.2162 3.99287L19.2178 3.99049Z" fill="#AFB6E5"/>
</g>
<defs>
<clipPath id="clip0_174_1724">
<rect width="19" height="19" fill="white" transform="translate(0.5 0.0820312)"/>
</clipPath>
</defs>
</svg>
